<?xml version="1.0" standalone="no"?>
<!DOCTYPE svg PUBLIC "-//W3C//DTD SVG 1.1//EN" "http://www.w3.org/Graphics/SVG/1.1/DTD/svg11.dtd" >
<svg xmlns="http://www.w3.org/2000/svg" xmlns:xlink="http://www.w3.org/1999/xlink" version="1.1">
<metadata>
Created by FontForge 20200427 at Sat Dec 30 02:53:40 2017
 By www
Copyright (c) 2017 The Coca-Cola Company. All Rights Reserved.
</metadata>
<defs>
<font id="TCCC-UnityText-Light" horiz-adv-x="0" >
  <font-face 
    font-family="TCCC-UnityText"
    font-weight="300"
    font-stretch="normal"
    units-per-em="1000"
    panose-1="2 11 3 5 3 3 3 2 2 4"
    ascent="800"
    descent="-200"
    x-height="542"
    cap-height="720"
    bbox="-526 -270 1397 1243"
    underline-thickness="50"
    underline-position="-100"
    unicode-range="U+0020-FB02"
  />
<missing-glyph horiz-adv-x="821" 
d="M104 718h613v-718h-613v718zM671 45v628h-521v-628h521z" />
    <glyph glyph-name="fi" unicode="fi" horiz-adv-x="618" 
d="M184 542h174v-50h-174v-492h-58v492h-93v50h93v70q0 66 43 109.5t110 43.5q42 0 78 -13v-52q-38 13 -73 13q-43 0 -71.5 -28.5t-28.5 -74.5v-68zM521 716q12 -12 12 -31t-12 -31t-31 -12t-31 12t-12 31t12 31t31 12t31 -12zM461 542h58v-542h-58v542z" />
    <glyph glyph-name="fl" unicode="fl" horiz-adv-x="644" 
d="M184 542h174v-50h-174v-492h-58v492h-93v50h93v70q0 66 43 109.5t110 43.5q42 0 78 -13v-52q-38 13 -73 13q-43 0 -71.5 -28.5t-28.5 -74.5v-68zM619 52v-51q-21 -8 -45 -8q-54 0 -83.5 27t-29.5 77v655h58v-650q0 -28 16 -42.5t43 -14.5q23 0 41 7z" />
    <glyph glyph-name="f_f" unicode="ff" horiz-adv-x="668" 
d="M506.5 682q-30.5 -31 -30.5 -87v-53h150v-50h-150v-492h-58v492h-233v-492h-58v492h-94v50h94v79q0 61 39 100.5t108 39.5q32 0 70 -13v-52q-38 13 -67 13q-46 0 -69.5 -25.5t-23.5 -64.5v-77h234v54q0 76 45.5 122.5t128.5 46.5q47 0 82 -13v-53q-39 14 -78 14
q-59 0 -89.5 -31z" />
    <glyph glyph-name="f_f_i" unicode="ffi" horiz-adv-x="910" 
d="M476 542h174v-50h-174v-492h-58v492h-233v-492h-58v492h-94v50h94v79q0 61 39 100.5t108 39.5q32 0 70 -13v-52q-38 13 -67 13q-46 0 -69.5 -25.5t-23.5 -64.5v-77h234v70q0 66 43 109.5t110 43.5q42 0 78 -13v-52q-38 13 -73 13q-43 0 -71.5 -28.5t-28.5 -74.5v-68z
M813 716q12 -12 12 -31t-12 -31t-31 -12t-31 12t-12 31t12 31t31 12t31 -12zM753 542h58v-542h-58v542z" />
    <glyph glyph-name="f_f_l" unicode="ffl" horiz-adv-x="936" 
d="M476 542h174v-50h-174v-492h-58v492h-233v-492h-58v492h-94v50h94v79q0 61 39 100.5t108 39.5q32 0 70 -13v-52q-38 13 -67 13q-46 0 -69.5 -25.5t-23.5 -64.5v-77h234v70q0 66 43 109.5t110 43.5q42 0 78 -13v-52q-38 13 -73 13q-43 0 -71.5 -28.5t-28.5 -74.5v-68z
M911 52v-51q-21 -8 -45 -8q-54 0 -83.5 27t-29.5 77v655h58v-650q0 -28 16 -42.5t43 -14.5q23 0 41 7z" />
    <glyph glyph-name=".notdef" horiz-adv-x="821" 
d="M104 718h613v-718h-613v718zM671 45v628h-521v-628h521z" />
    <glyph glyph-name=".null" 
 />
    <glyph glyph-name="nonmarkingreturn" horiz-adv-x="333" 
 />
    <glyph glyph-name="space" unicode=" " horiz-adv-x="329" 
 />
    <glyph glyph-name="exclam" unicode="!" horiz-adv-x="306" 
d="M120 720h66l-15 -497h-36zM120.5 7q-12.5 13 -12.5 33t12.5 33t32.5 13t32.5 -13t12.5 -33t-12.5 -33t-32.5 -13t-32.5 13z" />
    <glyph glyph-name="quotedbl" unicode="&#x22;" horiz-adv-x="378" 
d="M93 720h65l-47 -250h-38zM245 720h65l-47 -250h-38z" />
    <glyph glyph-name="numbersign" unicode="#" horiz-adv-x="721" 
d="M540 469l-36 -217h128v-46h-136l-34 -206h-51l34 206h-226l-34 -206h-51l34 206h-133v46h141l36 217h-120v46h128l34 205h51l-34 -205h226l34 205h51l-34 -205h138v-46h-146zM489 469h-226l-36 -217h226z" />
    <glyph glyph-name="dollar" unicode="$" horiz-adv-x="683" 
d="M591.5 94q-30.5 -45 -85.5 -72t-126 -31v-117h-54v117q-79 4 -149 30.5t-121 70.5l37 46q48 -41 108 -65t125 -29v305l-65 13q-91 18 -139 61t-48 110q0 56 33 99t90.5 68t128.5 29v89h54v-90q136 -11 224 -92l-37 -43q-78 70 -187 81v-277l48 -9q96 -19 145 -68t49 -123
q0 -58 -30.5 -103zM326 408v268q-84 -5 -138 -43.5t-54 -96.5q0 -46 36.5 -75t114.5 -45zM510 90.5q52 40.5 52 103.5q0 108 -156 139l-26 5v-294q78 6 130 46.5z" />
    <glyph glyph-name="percent" unicode="%" horiz-adv-x="896" 
d="M333.5 416q46.5 51 46.5 133t-46.5 133t-122.5 51t-122.5 -51t-46.5 -133t46.5 -133t122.5 -51t122.5 51zM654 720h59l-471 -720h-59zM293 647q31 -37 31 -98t-31 -98t-82 -37t-82 37t-31 98t31 98t82 37t82 -37zM807.5 38q46.5 51 46.5 133t-46.5 133t-122.5 51
t-122.5 -51t-46.5 -133t46.5 -133t122.5 -51t122.5 51zM767 269q31 -37 31 -98t-31 -98t-82 -37t-82 37t-31 98t31 98t82 37t82 -37z" />
    <glyph glyph-name="ampersand" unicode="&#x26;" horiz-adv-x="744" 
d="M752 9v-9h-75l-107 90q-101 -103 -251 -103q-77 0 -137 27t-93 73.5t-33 102.5q0 121 166 192l-1 1q-99 83 -99 176q0 49 27 89t73.5 62.5t102.5 22.5q55 0 101 -21.5t72.5 -59t26.5 -84.5q0 -63 -51 -111.5t-150 -87.5l239 -201q31 45 48 98t18 103h56
q-1 -59 -21.5 -121t-58.5 -115zM202.5 488.5q21.5 -34.5 65.5 -72.5l15 -12q101 37 143 75.5t42 84.5q0 51 -41 84.5t-101 33.5q-62 0 -103.5 -35t-41.5 -88q0 -36 21.5 -70.5zM528 125l-265 223q-75 -31 -111 -69.5t-36 -86.5q0 -43 26 -77.5t72.5 -54.5t106.5 -20
q122 0 207 85z" />
    <glyph glyph-name="quotesingle" unicode="'" horiz-adv-x="226" 
d="M93 720h65l-47 -250h-38z" />
    <glyph glyph-name="parenleft" unicode="(" horiz-adv-x="370" 
d="M136.5 77q-34.5 117 -34.5 246t34.5 246t100.5 216h52q-130 -215 -130 -462t130 -462h-52q-66 99 -100.5 216z" />
    <glyph glyph-name="parenright" unicode=")" horiz-adv-x="370" 
d="M233.5 77q34.5 117 34.5 246t-34.5 246t-100.5 216h-52q130 -215 130 -462t-130 -462h52q66 99 100.5 216z" />
    <glyph glyph-name="asterisk" unicode="*" horiz-adv-x="449" 
d="M257 540l101 -124l-42 -31l-91 133l-92 -133l-42 31l101 124l-157 42l16 51l154 -56l-7 158h53l-7 -158l154 56l16 -51z" />
    <glyph glyph-name="plus" unicode="+" horiz-adv-x="626" 
d="M557 334h-218v-218h-52v218h-218v51h218v218h52v-218h218v-51z" />
    <glyph glyph-name="comma" unicode="," horiz-adv-x="238" 
d="M112 145h64l-85 -281h-46z" />
    <glyph glyph-name="hyphen" unicode="-" horiz-adv-x="362" 
d="M309 349l-17 -56h-239l16 56h240z" />
    <glyph glyph-name="period" unicode="." horiz-adv-x="234" 
d="M84.5 7q-12.5 13 -12.5 33t12.5 33t32.5 13t32.5 -13t12.5 -33t-12.5 -33t-32.5 -13t-32.5 13z" />
    <glyph glyph-name="slash" unicode="/" horiz-adv-x="390" 
d="M396 785l-350 -924h-55l350 924h55z" />
    <glyph glyph-name="zero" unicode="0" horiz-adv-x="734" 
d="M204.5 33q-69.5 46 -107 130.5t-37.5 196.5t37.5 196.5t107 130.5t162.5 46t162.5 -46t107 -130.5t37.5 -196.5t-37.5 -196.5t-107 -130.5t-162.5 -46t-162.5 46zM497 80q56 39 86.5 111t30.5 169t-30.5 169t-86.5 111t-130 39t-130 -39t-86.5 -111t-30.5 -169t30.5 -169
t86.5 -111t130 -39t130 39z" />
    <glyph glyph-name="one" unicode="1" horiz-adv-x="416" 
d="M288 720v-720h-59v614q-62 -84 -186 -118v54q75 20 120.5 61.5t71.5 108.5h53z" />
    <glyph glyph-name="two" unicode="2" horiz-adv-x="664" 
d="M103 586q45 41 106 66.5t130 25.5q84 0 137 -41t53 -108q0 -47 -29 -83.5t-71 -64t-116 -66.5q-85 -45 -136.5 -79.5t-87.5 -85t-36 -118.5v-32h553v54h-490q5 47 36.5 84.5t75.5 65.5t116 66q82 44 130.5 76t82 78t33.5 107q0 59 -31.5 105t-88 71.5t-129.5 25.5
q-81 0 -151.5 -27.5t-124.5 -76.5z" />
    <glyph glyph-name="three" unicode="3" horiz-adv-x="658" 
d="M468.5 399.5q58.5 -25.5 93.5 -74.5t35 -115q0 -65 -35 -115.5t-100 -79t-152 -28.5q-81 0 -157.5 24.5t-122.5 65.5l36 46q41 -36 108 -58.5t138 -22.5q66 0 117.5 21t79.5 59.5t28 88.5q0 52 -29 89t-77 56t-103 19q-50 0 -100 -16l-28 32l283 276h-415v53h491v-49
l-259 -249q21 3 41 3q69 0 127.5 -25.5z" />
    <glyph glyph-name="four" unicode="4" horiz-adv-x="670" 
d="M641 195h-113v-195h-58v195h-438v46l420 479h76v-472h113v-53zM470 248v415l-363 -415h363z" />
    <glyph glyph-name="five" unicode="5" horiz-adv-x="681" 
d="M493 427q60 -30 92.5 -82.5t32.5 -118.5q0 -68 -35 -122.5t-100 -85.5t-151 -31q-77 0 -154 24t-123 65l37 46q40 -35 108 -57.5t134 -22.5t117 24t79 65.5t28 94.5q0 50 -26 91t-74 64.5t-111 23.5q-71 0 -125.5 -28.5t-81.5 -73.5h-50l46 417h443v-54h-394l-33 -287
q34 37 85.5 57.5t116.5 20.5q79 0 139 -30z" />
    <glyph glyph-name="six" unicode="6" horiz-adv-x="695" 
d="M514.5 433q60.5 -30 95 -83.5t34.5 -121.5t-34.5 -123t-96.5 -86.5t-141 -31.5q-94 0 -163.5 46t-106 128.5t-36.5 190.5q0 115 41.5 201.5t115.5 133t169 46.5q60 0 118.5 -19t102.5 -56l-35 -45q-36 32 -86.5 49t-101.5 17q-77 0 -137 -39t-93.5 -113.5t-33.5 -176.5
q0 -30 2 -55q25 82 92 125t157 43q77 0 137.5 -30zM481 65.5q48 24.5 75.5 67.5t27.5 95q0 53 -27.5 94.5t-76 65t-107.5 23.5q-61 0 -111 -24t-78.5 -66t-28.5 -93t29 -94t79 -68t110 -25t108 24.5z" />
    <glyph glyph-name="seven" unicode="7" horiz-adv-x="597" 
d="M557 720v-47q-108 -124 -187.5 -306t-104.5 -367h-64q27 186 104 364t187 304h-461v52h526z" />
    <glyph glyph-name="eight" unicode="8" horiz-adv-x="710" 
d="M607 310.5q48 -52.5 48 -117.5q0 -60 -38 -107t-106.5 -73t-155.5 -26t-155.5 26t-106.5 73t-38 107q0 65 48 117.5t130 70.5q-63 24 -99.5 67.5t-36.5 98.5q0 54 33 96.5t91.5 66t133.5 23.5t133.5 -23.5t91.5 -66t33 -96.5q0 -55 -36.5 -98.5t-99.5 -67.5
q82 -18 130 -70.5zM181.5 474.5q25.5 -32.5 71 -51.5t102.5 -19t102.5 19t71 51.5t25.5 70.5q0 40 -25.5 70.5t-70.5 48t-103 17.5t-103 -17.5t-70.5 -48t-25.5 -70.5q0 -38 25.5 -70.5zM478.5 60q54.5 20 85 56t30.5 82q0 45 -31 79.5t-85.5 54t-122.5 19.5t-122.5 -19.5
t-85.5 -54t-31 -79.5q0 -46 30.5 -82t85 -56t123.5 -20t123.5 20z" />
    <glyph glyph-name="nine" unicode="9" horiz-adv-x="694" 
d="M486.5 687q68.5 -46 105 -128.5t36.5 -190.5q0 -116 -41 -202t-114.5 -132.5t-168.5 -46.5q-60 0 -119.5 19t-102.5 56l35 45q36 -32 86.5 -49t101.5 -17q77 0 137 39t93.5 113.5t33.5 176.5q0 27 -1 46q-24 -80 -92 -123.5t-160 -43.5q-76 0 -136.5 30t-94.5 84.5
t-34 123.5q0 70 35 126t97 88t141 32q94 0 162.5 -46zM433.5 324.5q49.5 24.5 78 67t28.5 96.5t-29.5 98t-79 68.5t-109.5 24.5t-108 -25t-75.5 -68.5t-27.5 -98.5q0 -54 27.5 -96.5t75.5 -66.5t109 -24t110.5 24.5z" />
    <glyph glyph-name="colon" unicode=":" horiz-adv-x="244" 
d="M89.5 7q-12.5 13 -12.5 33t12.5 33t32.5 13t32.5 -13t12.5 -33t-12.5 -33t-32.5 -13t-32.5 13zM89.5 387q-12.5 13 -12.5 33t12.5 33t32.5 13t32.5 -13t12.5 -33t-12.5 -33t-32.5 -13t-32.5 13z" />
    <glyph glyph-name="semicolon" unicode=";" horiz-adv-x="250" 
d="M118 145h64l-85 -281h-46zM109.5 387q-12.5 13 -12.5 33t12.5 33t32.5 13t32.5 -13t12.5 -33t-12.5 -33t-32.5 -13t-32.5 13z" />
    <glyph glyph-name="less" unicode="&#x3c;" horiz-adv-x="608" 
d="M535 543l-399 -186l399 -186v-59l-475 225v40l475 225v-59z" />
    <glyph glyph-name="equal" unicode="=" horiz-adv-x="657" 
d="M91 503h475v-50h-475v50zM91 265h475v-50h-475v50z" />
    <glyph glyph-name="greater" unicode="&#x3e;" horiz-adv-x="608" 
d="M73 543l399 -186l-399 -186v-59l475 225v40l-475 225v-59z" />
    <glyph glyph-name="question" unicode="?" horiz-adv-x="565" 
d="M97 536q2 37 25.5 70t65.5 53t96 20q73 0 121.5 -35t48.5 -89q0 -33 -22.5 -61t-81.5 -78q-43 -36 -64.5 -58t-32 -45.5t-10.5 -56.5v-35h57v32q0 25 9.5 43.5t28.5 36.5t61 53q63 52 89.5 88.5t26.5 82.5q0 51 -29 91t-81 62.5t-118 22.5q-72 0 -128 -27t-87.5 -72
t-33.5 -98h59zM239.5 7q-12.5 13 -12.5 33t12.5 33t32.5 13t32.5 -13t12.5 -33t-12.5 -33t-32.5 -13t-32.5 13z" />
    <glyph glyph-name="at" unicode="@" horiz-adv-x="981" 
d="M694 472v-268q0 -29 17 -44t47 -15q54 0 89 45t35 122q0 91 -51.5 170.5t-139 127t-191.5 47.5q-105 0 -193 -49t-139.5 -134t-51.5 -187q0 -104 54 -189.5t147.5 -135t207.5 -49.5q123 0 217 59l25 -40q-40 -29 -105.5 -46.5t-137.5 -17.5q-127 0 -232.5 55.5
t-166.5 151.5t-61 213q0 114 58.5 209t158.5 150t219 55q117 0 215.5 -53t156 -142.5t57.5 -193.5q0 -65 -23 -113t-62.5 -74t-88.5 -26q-43 0 -72.5 19t-37.5 53q-22 -38 -62 -61t-94 -23q-57 0 -102.5 26t-71.5 71t-26 100q0 54 26 99t72 71t103 26q49 0 87.5 -20
t62.5 -56v67h54zM569 156.5q34 19.5 53 53.5t19 75t-19 74.5t-53 52.5t-75 19t-75 -19.5t-53 -53t-19 -73.5q0 -41 19 -75t53 -53.5t75 -19.5t75 19.5z" />
    <glyph glyph-name="A" unicode="A" horiz-adv-x="780" 
d="M584 213h-389l-91 -213h-63l313 720h73l312 -720h-65zM561 266l-170 402l-173 -402h343z" />
    <glyph glyph-name="B" unicode="B" horiz-adv-x="759" 
d="M663.5 313q40.5 -49 40.5 -116q0 -55 -27.5 -100t-80 -71t-126.5 -26h-366v720h332q66 0 113.5 -24t72 -65.5t24.5 -92.5t-25.5 -94t-77.5 -66q80 -16 120.5 -65zM163 667v-272h271q81 0 117 40.5t36 96.5q0 61 -40.5 98t-117.5 37h-266zM596 92.5q48 39.5 48 107.5
q0 66 -46 104.5t-127 38.5h-308v-290h302q83 0 131 39.5z" />
    <glyph glyph-name="C" unicode="C" horiz-adv-x="754" 
d="M251 35.5q-90 48.5 -141 133.5t-51 190q0 106 51 191.5t140 134t196 48.5q77 0 146 -24.5t113 -68.5l-40 -43q-40 38 -99 59.5t-122 21.5q-87 0 -161 -41.5t-118 -114.5t-44 -163t43.5 -162.5t119 -113.5t166.5 -41q63 0 122.5 20t97.5 59l42 -42q-46 -47 -115 -69.5
t-145 -22.5q-111 0 -201 48.5z" />
    <glyph glyph-name="D" unicode="D" horiz-adv-x="807" 
d="M571.5 675q84.5 -45 130.5 -127t46 -188t-46 -188t-130.5 -127t-196.5 -45h-271v720h271q112 0 196.5 -45zM538.5 92q70.5 38 109 107.5t38.5 160.5t-38.5 160.5t-109 107.5t-165.5 38h-209v-612h209q95 0 165.5 38z" />
    <glyph glyph-name="E" unicode="E" horiz-adv-x="694" 
d="M654 0h-550v720h540l-16 -54h-464v-259h318v-54h-318v-299h474z" />
    <glyph glyph-name="F" unicode="F" horiz-adv-x="668" 
d="M164 666v-264h324v-54h-324v-348h-60v720h522v-54h-462z" />
    <glyph glyph-name="G" unicode="G" horiz-adv-x="820" 
d="M745 76q-50 -46 -124 -67.5t-154 -21.5q-121 0 -214 48t-143.5 132.5t-50.5 191.5t50.5 192.5t140.5 133.5t204 48q84 0 153 -25.5t110 -64.5l-38 -44q-36 33 -96 56t-132 23q-94 0 -169.5 -41t-118 -113.5t-42.5 -164.5t43 -164t121.5 -112.5t183.5 -40.5q61 0 117.5 15
t99.5 46v233h-245v53h304v-313z" />
    <glyph glyph-name="H" unicode="H" horiz-adv-x="836" 
d="M732 720v-720h-60v356h-508v-356h-60v720h60v-310h508v310h60z" />
    <glyph glyph-name="I" unicode="I" horiz-adv-x="280" 
d="M170 720v-720h-60v720h60z" />
    <glyph glyph-name="J" unicode="J" horiz-adv-x="570" 
d="M480 720v-510q0 -104 -62 -163.5t-163 -59.5q-99 0 -161 57.5t-64 158.5h59q3 -79 48.5 -120t117.5 -41q76 0 120.5 45t44.5 125v508h60z" />
    <glyph glyph-name="K" unicode="K" horiz-adv-x="776" 
d="M374 399l-210 -193v-206h-60v720h60v-442l480 442h78l-306 -281l327 -439h-73z" />
    <glyph glyph-name="L" unicode="L" horiz-adv-x="665" 
d="M623 54v-54h-519v720h60v-666h459z" />
    <glyph glyph-name="M" unicode="M" horiz-adv-x="984" 
d="M880 0h-58v649l-310 -631h-44l-306 624v-642h-58v720h81l306 -625l307 625h82v-720z" />
    <glyph glyph-name="N" unicode="N" horiz-adv-x="820" 
d="M716 720v-720h-66l-488 639v-639h-58v720h67l487 -638v638h58z" />
    <glyph glyph-name="O" unicode="O" horiz-adv-x="862" 
d="M239.5 35q-84.5 48 -132.5 133t-48 192t48 192t132.5 133t191.5 48t191.5 -48t132.5 -133t48 -192t-48 -192t-132.5 -133t-191.5 -48t-191.5 48zM590.5 83q70.5 41 110.5 113.5t40 163.5t-40 163.5t-110.5 113.5t-159.5 41t-159.5 -41t-110.5 -113.5t-40 -163.5
t40 -163.5t110.5 -113.5t159.5 -41t159.5 41z" />
    <glyph glyph-name="P" unicode="P" horiz-adv-x="726" 
d="M566.5 694q52.5 -26 80 -72t27.5 -106t-27.5 -106.5t-80 -72.5t-125.5 -26h-277v-311h-60v720h337q73 0 125.5 -26zM567.5 405.5q45.5 40.5 45.5 110.5q0 69 -45.5 109.5t-128.5 40.5h-275v-301h275q83 0 128.5 40.5z" />
    <glyph glyph-name="Q" unicode="Q" horiz-adv-x="865" 
d="M766 189.5q-37 -77.5 -103 -127.5l103 -130l-44 -35l-106 135q-82 -45 -185 -45q-107 0 -191.5 48t-132.5 133t-48 192t48 192t132.5 133t191.5 48t191.5 -48t132.5 -133t48 -192q0 -93 -37 -170.5zM580 77l-97 124l43 35l101 -128q54 43 84 108t30 144q0 91 -40 163.5
t-110.5 113.5t-159.5 41t-159.5 -41t-110.5 -113.5t-40 -163.5t40 -163.5t110.5 -113.5t159.5 -41q81 0 149 35z" />
    <glyph glyph-name="R" unicode="R" horiz-adv-x="767" 
d="M424 326h-261v-326h-59v720h359q67 0 116.5 -25.5t76.5 -70.5t27 -101q0 -79 -52.5 -133.5t-140.5 -62.5l230 -327h-71zM163 379h294q77 0 121 39.5t44 103.5t-44 104t-121 40h-294v-287z" />
    <glyph glyph-name="S" unicode="S" horiz-adv-x="692" 
d="M191 17q-80 27 -137 76l40 47q54 -47 122.5 -71t143.5 -24q58 0 106 18.5t76.5 52.5t28.5 79q0 108 -160 139l-149 29q-189 37 -189 172q0 59 36.5 103.5t99.5 69t141 24.5q165 0 262 -91l-37 -44q-50 44 -109 62.5t-117 18.5q-60 0 -109.5 -18t-78 -49.5t-28.5 -72.5
q0 -45 37.5 -74.5t117.5 -45.5l145 -29q98 -19 148 -68.5t50 -122.5q0 -61 -34 -108t-95.5 -73.5t-139.5 -26.5q-91 0 -171 27z" />
    <glyph glyph-name="T" unicode="T" horiz-adv-x="670" 
d="M629 666h-264v-666h-60v666h-264v54h588v-54z" />
    <glyph glyph-name="U" unicode="U" horiz-adv-x="774" 
d="M232.5 20q-67.5 33 -105 94t-37.5 142v464h60v-459q0 -67 30 -116.5t83.5 -76t123.5 -26.5t123.5 26.5t83.5 76t30 116.5v459h60v-464q0 -81 -37.5 -142t-105 -94t-154.5 -33t-154.5 33z" />
    <glyph glyph-name="V" unicode="V" horiz-adv-x="762" 
d="M723 720l-304 -720h-75l-303 720h66l275 -662l277 662h64z" />
    <glyph glyph-name="W" unicode="W" horiz-adv-x="1153" 
d="M1104 720l-252 -720h-74l-203 640l-195 -640h-75l-256 720h64l230 -657l200 654h66l207 -653l226 656h62z" />
    <glyph glyph-name="X" unicode="X" horiz-adv-x="727" 
d="M612 0l-248 327l-251 -327h-73l287 366l-275 354h76l238 -309l236 309h73l-273 -349l286 -371h-76z" />
    <glyph glyph-name="Y" unicode="Y" horiz-adv-x="720" 
d="M391 248v-248h-60v247l-304 473h70l264 -419l264 419h68z" />
    <glyph glyph-name="Z" unicode="Z" horiz-adv-x="688" 
d="M630 53v-53h-572v46l480 621h-457v53h532v-47l-479 -620h496z" />
    <glyph glyph-name="bracketleft" unicode="[" horiz-adv-x="370" 
d="M156 737v-828h139v-48h-191v924h191v-48h-139z" />
    <glyph glyph-name="backslash" unicode="\" horiz-adv-x="390" 
d="M-6 785l350 -924h55l-350 924h-55z" />
    <glyph glyph-name="bracketright" unicode="]" horiz-adv-x="370" 
d="M214 737v-828h-139v-48h191v924h-191v-48h139z" />
    <glyph glyph-name="asciicircum" unicode="^" horiz-adv-x="550" 
d="M435 374l-160 299l-160 -299h-61l188 346h66l188 -346h-61z" />
    <glyph glyph-name="underscore" unicode="_" horiz-adv-x="483" 
d="M484 -69v-49h-485v49h485z" />
    <glyph glyph-name="grave" unicode="`" horiz-adv-x="586" 
d="M247 768l116 -156h-58l-125 148v8h67z" />
    <glyph glyph-name="a" unicode="a" horiz-adv-x="635" 
d="M619 50v-48q-12 -6 -34 -6q-45 0 -72 28t-27 78v18q-32 -68 -94.5 -100t-137.5 -32q-88 0 -147.5 42.5t-59.5 118.5q0 81 71 126t204 45h163v24q0 72 -49.5 114.5t-130.5 42.5q-51 0 -100 -17t-79 -47l-36 42q39 36 97 55.5t120 19.5q107 0 170.5 -55.5t63.5 -150.5v-243
q0 -29 13.5 -44t37.5 -15q16 0 27 4zM365 61.5q51 22.5 85 74.5t35 135h-163q-109 0 -163.5 -32t-54.5 -88q0 -52 44 -82t111 -30q55 0 106 22.5z" />
    <glyph glyph-name="b" unicode="b" horiz-adv-x="708" 
d="M520 518q62 -37 97.5 -102t35.5 -145t-35.5 -145t-97.5 -102t-140 -37q-75 0 -135 34t-94 95v-116h-56v752h58v-323q34 59 94 92.5t133 33.5q78 0 140 -37zM488 70q50 30 78 83t28 118t-28 118t-78 83t-114 30q-60 0 -111.5 -29t-82 -81.5t-30.5 -120.5t30.5 -121
t82 -81.5t111.5 -28.5q64 0 114 30z" />
    <glyph glyph-name="c" unicode="c" horiz-adv-x="584" 
d="M196 23.5q-68 36.5 -106 101t-38 146.5q0 81 38.5 146t107 101.5t153.5 36.5q118 0 193 -72l-37 -43q-32 30 -72.5 45.5t-86.5 15.5q-65 0 -119.5 -29.5t-86 -82t-31.5 -118.5q0 -67 31.5 -119t86 -81.5t120.5 -29.5q49 0 93 16t69 45l39 -40q-31 -36 -84 -55.5
t-116 -19.5q-86 0 -154 36.5z" />
    <glyph glyph-name="d" unicode="d" horiz-adv-x="708" 
d="M613 752v-752h-56v116q-34 -61 -94 -95t-135 -34q-78 0 -140 37t-97.5 102t-35.5 145t35.5 145t97.5 102t140 37q73 0 133 -33.5t94 -92.5v323h58zM445.5 68.5q51.5 28.5 82 81.5t30.5 121t-30.5 120.5t-82 81.5t-111.5 29q-64 0 -114 -30t-78 -83t-28 -118t28 -118
t78 -83t114 -30q60 0 111.5 28.5z" />
    <glyph glyph-name="e" unicode="e" horiz-adv-x="647" 
d="M606 254h-491q4 -63 34.5 -111.5t82.5 -75.5t119 -27q60 0 107.5 20t77.5 53l38 -40q-33 -39 -91 -62.5t-134 -23.5q-87 0 -153.5 36.5t-103 101t-36.5 145.5t35.5 146t99 102t142.5 37q81 0 143.5 -37.5t97 -102t34.5 -142.5q0 -3 -2 -19zM229.5 477.5
q-46.5 -24.5 -76.5 -70t-36 -105.5h431q-4 55 -32 101t-75.5 72.5t-107.5 26.5q-57 0 -103.5 -24.5z" />
    <glyph glyph-name="f" unicode="f" horiz-adv-x="375" 
d="M213.5 682q-30.5 -31 -30.5 -87v-53h150v-50h-150v-492h-58v492h-92v50h92v54q0 76 45.5 122.5t128.5 46.5q47 0 82 -13v-53q-39 14 -78 14q-59 0 -89.5 -31z" />
    <glyph glyph-name="g" unicode="g" horiz-adv-x="678" 
d="M593 542v-493q0 -72 -34 -125.5t-96 -82.5t-144 -29q-131 0 -221 53l26 50q83 -50 195 -50q99 0 157.5 49.5t58.5 137.5v81q-34 -54 -92 -84t-127 -30q-74 0 -135.5 35.5t-96.5 97t-35 135.5t35 135t96.5 97t135.5 36q70 0 128.5 -31t92.5 -87v105h56zM429.5 98.5
q50.5 26.5 80.5 75t30 113.5q0 64 -30 113t-80.5 75.5t-110.5 26.5q-58 0 -106.5 -28.5t-76.5 -78t-28 -108.5q0 -60 28 -109t76.5 -77.5t106.5 -28.5q60 0 110.5 26.5z" />
    <glyph glyph-name="h" unicode="h" horiz-adv-x="663" 
d="M519.5 500q58.5 -55 58.5 -149v-351h-58v342q0 74 -43.5 116.5t-124.5 42.5q-59 0 -104 -23t-70 -61.5t-25 -84.5v-332h-58v752h58v-298q36 52 90.5 76.5t118.5 24.5q99 0 157.5 -55z" />
    <glyph glyph-name="i" unicode="i" horiz-adv-x="256" 
d="M99 542h58v-542h-58v542zM159 716q12 -12 12 -31t-12 -31t-31 -12t-31 12t-12 31t12 31t31 12t31 -12z" />
    <glyph glyph-name="j" unicode="j" horiz-adv-x="255" 
d="M-29 -177v51q10 -4 25 -6.5t26 -2.5q37 0 58.5 20.5t21.5 56.5v600h58v-603q0 -58 -35.5 -92t-95.5 -34q-34 0 -58 10zM162 716q12 -12 12 -31t-12 -31t-31 -12t-31 12t-12 31t12 31t31 12t31 -12z" />
    <glyph glyph-name="k" unicode="k" horiz-adv-x="630" 
d="M303 287l-150 -131v-156h-58v752h58v-529l365 319h77l-250 -219l268 -323h-73z" />
    <glyph glyph-name="l" unicode="l" horiz-adv-x="282" 
d="M157 752v-650q0 -28 16 -42.5t43 -14.5q23 0 41 7v-51q-21 -8 -45 -8q-54 0 -83.5 27t-29.5 77v655h58z" />
    <glyph glyph-name="m" unicode="m" horiz-adv-x="1034" 
d="M850.5 530q46.5 -25 72.5 -71t26 -108v-351h-58v342q0 73 -41.5 116t-112.5 43q-53 0 -95.5 -23t-66.5 -61.5t-24 -84.5v-332h-58v342q0 73 -41.5 116t-112.5 43q-53 0 -95.5 -23t-66.5 -61.5t-24 -84.5v-332h-58v542h56v-91q34 53 87.5 78.5t108.5 25.5q67 0 116 -31
t72 -86q35 59 92 88t116 29q61 0 107.5 -25z" />
    <glyph glyph-name="n" unicode="n" horiz-adv-x="661" 
d="M517.5 500q58.5 -55 58.5 -149v-351h-58v342q0 74 -43.5 116.5t-123.5 42.5q-58 0 -103.5 -23t-70 -61.5t-24.5 -84.5v-332h-58v542h56v-91q35 54 90.5 79t119.5 25q98 0 156.5 -55z" />
    <glyph glyph-name="o" unicode="o" horiz-adv-x="674" 
d="M483 24.5q65 37.5 102 102.5t37 144t-37 144t-102 102.5t-146 37.5t-146 -37.5t-102 -102.5t-37 -144t37 -144t102 -102.5t146 -37.5t146 37.5zM451.5 471q51.5 -30 81.5 -83t30 -117t-30 -117t-81.5 -83t-114.5 -30t-114.5 30t-81.5 83t-30 117t30 117t81.5 83t114.5 30
t114.5 -30z" />
    <glyph glyph-name="p" unicode="p" horiz-adv-x="704" 
d="M516 518q62 -37 97.5 -102t35.5 -145t-35.5 -145t-97.5 -102t-140 -37q-73 0 -133 33t-94 92v-292h-58v722h56v-116q34 61 94 95t135 34q78 0 140 -37zM484 70q50 30 78 83t28 118t-28 118t-78 83t-114 30q-60 0 -111.5 -29t-82 -81.5t-30.5 -120.5t30.5 -121t82 -81.5
t111.5 -28.5q64 0 114 30z" />
    <glyph glyph-name="q" unicode="q" horiz-adv-x="704" 
d="M188 518q-62 -37 -97.5 -102t-35.5 -145t35.5 -145t97.5 -102t140 -37q73 0 133 33t94 92v-292h58v722h-56v-116q-34 61 -94 95t-135 34q-78 0 -140 -37zM220 70q-50 30 -78 83t-28 118t28 118t78 83t114 30q60 0 111.5 -29t82 -81.5t30.5 -120.5t-30.5 -121t-82 -81.5
t-111.5 -28.5q-64 0 -114 30z" />
    <glyph glyph-name="r" unicode="r" horiz-adv-x="420" 
d="M397 543v-55q-27 7 -55 7q-53 0 -96 -22.5t-68 -63t-25 -91.5v-318h-58v542h56v-101q30 55 82.5 82t107.5 27q31 0 56 -7z" />
    <glyph glyph-name="s" unicode="s" horiz-adv-x="571" 
d="M176.5 63.5q58.5 -21.5 122.5 -21.5q72 0 117.5 29t45.5 77q0 36 -28 58t-85 33l-133 25q-79 15 -115.5 50t-36.5 84q0 44 26.5 79t77 55.5t120.5 20.5q61 0 117.5 -17t101.5 -54l-33 -44q-36 30 -87 46.5t-104 16.5q-71 0 -116 -28.5t-45 -72.5q0 -32 28.5 -51.5
t91.5 -31.5l128 -25q81 -16 115.5 -53.5t34.5 -87.5q0 -47 -28 -83.5t-78.5 -57t-116.5 -20.5q-69 0 -137 21.5t-112 59.5l34 45q36 -31 94.5 -52.5z" />
    <glyph glyph-name="t" unicode="t" horiz-adv-x="415" 
d="M382 63v-54q-16 -9 -40.5 -14t-50.5 -5q-82 0 -128.5 46t-46.5 126v330h-92v50h92v140l58 27v-167h204v-50h-204v-324q0 -59 32.5 -91.5t88.5 -32.5q46 0 87 19z" />
    <glyph glyph-name="u" unicode="u" horiz-adv-x="657" 
d="M562 542v-542h-56v91q-35 -54 -90 -79t-118 -25q-97 0 -155 55.5t-58 148.5v351h58v-342q0 -74 43 -116.5t122 -42.5q57 0 102 23t69.5 61.5t24.5 84.5v332h58z" />
    <glyph glyph-name="v" unicode="v" horiz-adv-x="601" 
d="M580 542l-243 -542h-71l-243 542h65l214 -491l215 491h63z" />
    <glyph glyph-name="w" unicode="w" horiz-adv-x="945" 
d="M916 542l-209 -542h-69l-164 463l-164 -463h-70l-210 542h64l181 -484l170 478h59l170 -481l180 487h62z" />
    <glyph glyph-name="x" unicode="x" horiz-adv-x="591" 
d="M490 0l-194 239l-197 -239h-72l234 276l-219 266h74l182 -224l180 224h72l-218 -263l232 -279h-74z" />
    <glyph glyph-name="y" unicode="y" horiz-adv-x="599" 
d="M579 542l-285 -619q-52 -113 -160 -113q-53 0 -103 22l20 51q42 -21 81 -21t67 20.5t48 64.5l26 56l-250 539h65l215 -478l213 478h63z" />
    <glyph glyph-name="z" unicode="z" horiz-adv-x="561" 
d="M508 49v-49h-453v40l366 453h-349v49h423v-40l-366 -453h379z" />
    <glyph glyph-name="braceleft" unicode="{" horiz-adv-x="399" 
d="M221 710q-27 -27 -27 -71q0 -42 5 -94q4 -62 4 -93q0 -54 -25 -84.5t-67 -44.5q42 -14 67 -44.5t25 -84.5q0 -31 -4 -93q-5 -52 -5 -94q0 -44 27 -71t76 -27h41v-48h-44q-74 0 -114 40t-40 106q0 39 5 91q1 11 3 40.5t2 53.5q0 46 -23 71t-70 36v48q47 11 70 36t23 71
q0 24 -2 53.5t-3 40.5q-5 52 -5 91q0 66 40 106t114 40h44v-48h-41q-49 0 -76 -27z" />
    <glyph glyph-name="bar" unicode="|" horiz-adv-x="296" 
d="M172 785v-924h-48v924h48z" />
    <glyph glyph-name="braceright" unicode="}" horiz-adv-x="399" 
d="M178 710q27 -27 27 -71q0 -42 -5 -94q-4 -62 -4 -93q0 -54 25 -84.5t67 -44.5q-42 -14 -67 -44.5t-25 -84.5q0 -31 4 -93q5 -52 5 -94q0 -44 -27 -71t-76 -27h-41v-48h44q74 0 114 40t40 106q0 39 -5 91q-1 11 -3 40.5t-2 53.5q0 46 23 71t70 36v48q-47 11 -70 36t-23 71
q0 24 2 53.5t3 40.5q5 52 5 91q0 66 -40 106t-114 40h-44v-48h41q49 0 76 -27z" />
    <glyph glyph-name="asciitilde" unicode="~" horiz-adv-x="612" 
d="M346 295q-27 16 -59 46q-27 24 -45 35.5t-40 11.5q-35 0 -57.5 -29t-23.5 -77h-52q1 71 36 114t96 43q38 0 65 -16t59 -46q27 -24 45 -35.5t40 -11.5q35 0 57 29t23 76h53q-2 -71 -37 -113.5t-96 -42.5q-37 0 -64 16z" />
    <glyph glyph-name="uni00A0" unicode="&#xa0;" horiz-adv-x="329" 
 />
    <glyph glyph-name="exclamdown" unicode="&#xa1;" horiz-adv-x="306" 
d="M120 0h66l-15 497h-36zM120.5 713q-12.5 -13 -12.5 -33t12.5 -33t32.5 -13t32.5 13t12.5 33t-12.5 33t-32.5 13t-32.5 -13z" />
    <glyph glyph-name="cent" unicode="&#xa2;" horiz-adv-x="588" 
d="M470 8q-51 -19 -111 -21v-113h-51v115q-75 9 -133.5 47.5t-90.5 99t-32 135.5q0 74 32.5 135t90.5 99t133 47v109h51v-106q113 -3 185 -72l-37 -43q-59 56 -148 61v-460q47 2 87.5 18t64.5 43l39 -40q-29 -35 -80 -54zM136.5 162.5q25.5 -48.5 70 -79t101.5 -39.5v454
q-56 -9 -101 -39.5t-70.5 -79t-25.5 -108.5t25.5 -108.5z" />
    <glyph glyph-name="sterling" unicode="&#xa3;" horiz-adv-x="672" 
d="M636 53v-53h-569v45q59 25 106 70.5t47 106.5q0 28 -11 52.5t-32 52.5h-144v52h105q-20 31 -31.5 61t-11.5 68q0 64 34 115.5t95 80.5t137 29q74 0 133.5 -27.5t94.5 -75.5t36 -108h-59q-1 43 -29 79.5t-74.5 57.5t-101.5 21q-58 0 -105 -23t-74 -62.5t-27 -87.5
q0 -35 13.5 -63.5t40.5 -64.5h293v-52h-256q34 -51 34 -105q0 -105 -117 -169h473z" />
    <glyph glyph-name="currency" unicode="&#xa4;" horiz-adv-x="601" 
d="M474 223l68 -68l-37 -36l-68 67q-62 -47 -137 -47q-38 0 -73 12.5t-63 34.5l-68 -67l-37 36l67 68q-47 62 -47 137t47 137l-67 68l37 36l68 -67q28 22 63 34.5t73 12.5q75 0 137 -47l68 67l37 -36l-68 -68q47 -62 47 -137t-47 -137zM383.5 215.5q38.5 22.5 61 61
t22.5 83.5t-22.5 83.5t-61 61t-83.5 22.5t-83.5 -22.5t-61 -61t-22.5 -83.5t22.5 -83.5t61 -61t83.5 -22.5t83.5 22.5z" />
    <glyph glyph-name="yen" unicode="&#xa5;" horiz-adv-x="717" 
d="M456 366h160v-49h-191l-36 -57v-42h227v-49h-227v-169h-60v169h-227v49h227v42l-36 57h-191v49h160l-225 354h66l256 -403l256 403h65z" />
    <glyph glyph-name="brokenbar" unicode="&#xa6;" horiz-adv-x="296" 
d="M172 785v-395h-48v395h48zM172 256v-395h-48v395h48z" />
    <glyph glyph-name="section" unicode="&#xa7;" horiz-adv-x="625" 
d="M535 55q19 -31 19 -70q0 -51 -28.5 -90.5t-82 -61.5t-126.5 -22t-141.5 22t-109.5 56l34 44q48 -38 108.5 -54t111.5 -16q73 0 125 32t52 87q0 33 -24 58t-82 44l-177 60q-72 24 -103.5 58.5t-31.5 82.5q0 49 29.5 85.5t82.5 57.5q-98 52 -98 137q0 49 30 87t84.5 59.5
t126.5 21.5q57 0 111.5 -16t111.5 -56l-33 -43q-84 64 -192 64q-55 0 -96 -15t-63.5 -41t-22.5 -58q0 -69 116 -114l188 -72q58 -22 84.5 -57.5t26.5 -78.5t-24 -78.5t-70 -58.5q45 -23 64 -54zM415 133l6 -2q89 41 89 109q0 30 -19.5 54.5t-67.5 42.5l-179 68
q-49 -13 -79.5 -42.5t-30.5 -69.5q0 -33 24.5 -57t76.5 -42z" />
    <glyph glyph-name="dieresis" unicode="&#xa8;" horiz-adv-x="594" 
d="M150 654q-12 12 -12 31t12 31t31 12t31 -12t12 -31t-12 -31t-31 -12t-31 12zM362 654q-12 12 -12 31t12 31t31 12t31 -12t12 -31t-12 -31t-31 -12t-31 12z" />
    <glyph glyph-name="copyright" unicode="&#xa9;" horiz-adv-x="929" 
d="M256.5 17q-92.5 53 -145 144t-52.5 200t52.5 199.5t145 143.5t207.5 53t208 -53t145.5 -143.5t52.5 -199.5t-52.5 -200t-145.5 -144t-208 -53t-207.5 53zM648.5 53.5q82.5 47.5 129.5 129t47 178.5t-47 178t-129.5 128.5t-184.5 47.5t-184 -47.5t-129 -128.5t-47 -178
t47 -178.5t129 -129t184 -47.5t184.5 47.5zM380.5 199q-45.5 24 -71.5 67t-26 96t26 96t71 67t100 24q41 0 76.5 -13t59.5 -37l-30 -33q-42 42 -107 42q-40 0 -74.5 -19t-54.5 -52.5t-20 -74.5t20 -74.5t55 -52.5t77 -19q30 0 58 10t48 30l30 -32q-24 -24 -60 -36.5
t-76 -12.5q-56 0 -101.5 24z" />
    <glyph glyph-name="ordfeminine" unicode="&#xaa;" horiz-adv-x="519" 
d="M506 332v-45q-9 -5 -30 -5q-36 0 -59.5 20t-24.5 55l-1 16q-27 -51 -77 -74.5t-108 -23.5q-72 0 -120.5 34.5t-48.5 95.5q0 67 62 103t182 36h108v16q0 57 -38 90t-102 33q-42 0 -81 -13.5t-65 -38.5l-31 40q32 30 80 45t99 15q88 0 140 -44.5t52 -122.5v-191
q0 -20 11.5 -32t31.5 -12q9 0 20 3zM334 365q53 43 55 135h-108q-96 0 -142.5 -24.5t-46.5 -67.5q0 -40 33.5 -63t85.5 -23q70 0 123 43z" />
    <glyph glyph-name="guillemotleft" unicode="&#xab;" horiz-adv-x="516" 
d="M114 277l165 -217h-62l-166 217l166 217h62zM301 277l165 -217h-62l-166 217l166 217h62z" />
    <glyph glyph-name="logicalnot" unicode="&#xac;" horiz-adv-x="621" 
d="M539 503v-288h-52v237h-428v51h480z" />
    <glyph glyph-name="uni00AD" unicode="&#xad;" horiz-adv-x="362" 
d="M309 349l-17 -56h-239l16 56h240z" />
    <glyph glyph-name="registered" unicode="&#xae;" horiz-adv-x="626" 
d="M449 698q61 -35 95 -94.5t34 -131.5q0 -71 -34.5 -131t-95 -95t-135.5 -35q-76 0 -136.5 35t-94.5 94.5t-34 131.5t34 131.5t94.5 94.5t136.5 35q75 0 136 -35zM430 275q52 30 81 82t29 115t-29 115t-81 82t-117 30q-66 0 -118 -30t-81 -82t-29 -115t29 -115t81 -82
t118 -30q65 0 117 30zM407 481.5q-15 -18.5 -40 -24.5l70 -103h-43l-67 101h-72v-101h-37v243h129q34 0 54.5 -20.5t20.5 -50.5q0 -26 -15 -44.5zM255 488h86q20 0 31.5 10.5t11.5 27.5q0 18 -11.5 28.5t-31.5 10.5h-86v-77z" />
    <glyph glyph-name="macron" unicode="&#xaf;" horiz-adv-x="586" 
d="M179 694h304v-48h-304v48z" />
    <glyph glyph-name="degree" unicode="&#xb0;" horiz-adv-x="456" 
d="M141 424.5q-39 21.5 -61.5 59.5t-22.5 84t22.5 84t61.5 59.5t87 21.5t87 -21.5t61.5 -59.5t22.5 -84t-22.5 -84t-61.5 -59.5t-87 -21.5t-87 21.5zM316 482q35 34 35 86t-35 86t-88 34t-88 -34t-35 -86t35 -86t88 -34t88 34z" />
    <glyph glyph-name="plusminus" unicode="&#xb1;" horiz-adv-x="653" 
d="M562 447v-51h-209v-178h-53v178h-209v51h209v178h53v-178h209zM91 118h471v-52h-471v52z" />
    <glyph glyph-name="uni00B2" unicode="&#xb2;" horiz-adv-x="438" 
d="M84 660q26 24 63 38t74 14q46 0 75 -21.5t29 -55.5t-29 -58t-90 -56q-52 -27 -84 -48.5t-54.5 -53.5t-22.5 -75v-14h343v47h-284q11 32 41.5 55t87.5 52q48 25 77 44.5t49 47t20 63.5q0 54 -43 87t-114 33q-48 0 -92 -16t-77 -46z" />
    <glyph glyph-name="uni00B3" unicode="&#xb3;" horiz-adv-x="437" 
d="M346 545q42 -36 42 -89q0 -59 -48 -96.5t-130 -37.5q-50 0 -98.5 15t-76.5 40l29 41q29 -23 66.5 -35.5t78.5 -12.5q58 0 91 24t33 62q0 37 -31 60.5t-82 23.5q-33 0 -61 -11l-23 25l163 151h-241v47h307v-43l-140 -128h9q70 0 112 -36z" />
    <glyph glyph-name="acute" unicode="&#xb4;" horiz-adv-x="586" 
d="M315 611h-59l125 158h68v-7z" />
    <glyph glyph-name="uni00B5" unicode="&#xb5;" horiz-adv-x="667" 
d="M572 542v-542h-56v91q-35 -54 -90 -78.5t-118 -24.5q-106 0 -159 64v-232h-58v722h58v-342q0 -74 43.5 -116t123.5 -42q58 0 103.5 22.5t70 61t24.5 84.5v332h58z" />
    <glyph glyph-name="paragraph" unicode="&#xb6;" horiz-adv-x="682" 
d="M578 -119h-47v794h-125v-794h-47v469h-93q-99 0 -152.5 51.5t-53.5 132.5q0 82 53.5 134t152.5 52h312v-839z" />
    <glyph glyph-name="periodcentered" unicode="&#xb7;" horiz-adv-x="234" 
d="M84.5 356q-12.5 13 -12.5 33t12.5 33t32.5 13t32.5 -13t12.5 -33t-12.5 -33t-32.5 -13t-32.5 13z" />
    <glyph glyph-name="cedilla" unicode="&#xb8;" horiz-adv-x="586" 
d="M429 -68q31 -22 31 -58q0 -40 -36.5 -63.5t-98.5 -23.5q-43 0 -80.5 11t-61.5 27l23 35q27 -17 58.5 -25t60.5 -8q39 0 60.5 12t21.5 33q0 20 -20 32.5t-54 12.5q-36 0 -66 -14l-20 15l74 100h54l-62 -69q17 5 36 5q49 0 80 -22z" />
    <glyph glyph-name="uni00B9" unicode="&#xb9;" horiz-adv-x="282" 
d="M193 752v-422h-53v336q-39 -42 -111 -61v47q88 23 118 100h46z" />
    <glyph glyph-name="ordmasculine" unicode="&#xba;" horiz-adv-x="548" 
d="M155 305q-53 30 -83 82t-30 116t30 116.5t83 83t119 30.5q65 0 118 -30.5t83 -83t30 -116.5t-30 -116t-83 -82t-118 -30q-66 0 -119 30zM363 347.5q40 23.5 63.5 64.5t23.5 91q0 51 -23.5 92t-63.5 64.5t-89 23.5t-89.5 -23.5t-63.5 -64.5t-23 -92q0 -50 23 -91
t63.5 -64.5t89.5 -23.5t89 23.5z" />
    <glyph glyph-name="guillemotright" unicode="&#xbb;" horiz-adv-x="516" 
d="M402 277l-165 -217h62l166 217l-166 217h-62zM215 277l-165 -217h62l166 217l-166 217h-62z" />
    <glyph glyph-name="onequarter" unicode="&#xbc;" horiz-adv-x="885" 
d="M227 720v-422h-53v336q-39 -42 -111 -61v47q88 23 118 100h46zM712 720l-511 -720h-54l511 720h54zM860 112h-66v-112h-51v112h-259v41l245 269h65v-264h66v-46zM743 158v214l-192 -214h192z" />
    <glyph glyph-name="onehalf" unicode="&#xbd;" horiz-adv-x="951" 
d="M227 720v-422h-53v336q-39 -42 -111 -61v47q88 23 118 100h46zM712 720l-511 -720h-54l511 720h54zM616 330q26 24 63 38t74 14q46 0 75 -21.5t29 -55.5t-29 -58t-90 -56q-52 -27 -84 -48.5t-54.5 -53.5t-22.5 -75v-14h343v47h-284q11 32 41.5 55t87.5 52q48 25 77 44.5
t49 47t20 63.5q0 54 -43 87t-114 33q-48 0 -92 -16t-77 -46z" />
    <glyph glyph-name="threequarters" unicode="&#xbe;" horiz-adv-x="982" 
d="M356 513q42 -36 42 -89q0 -59 -48 -96.5t-130 -37.5q-50 0 -98.5 15t-76.5 40l29 41q29 -23 66.5 -35.5t78.5 -12.5q58 0 91 24t33 62q0 37 -31 60.5t-82 23.5q-33 0 -61 -11l-23 25l163 151h-241v47h307v-43l-140 -128h9q70 0 112 -36zM817 720l-511 -720h-54l511 720
h54zM957 112h-66v-112h-51v112h-259v41l245 269h65v-264h66v-46zM840 158v214l-192 -214h192z" />
    <glyph glyph-name="questiondown" unicode="&#xbf;" horiz-adv-x="565" 
d="M468 184q-2 -37 -25.5 -70t-65.5 -53t-96 -20q-73 0 -121.5 35t-48.5 89q0 33 22.5 61t81.5 78q43 36 64.5 58t32 45.5t10.5 56.5v35h-57v-32q0 -25 -9.5 -43.5t-28.5 -36.5t-61 -53q-63 -52 -89.5 -88.5t-26.5 -82.5q0 -51 29 -91t81 -62.5t118 -22.5q72 0 128 27
t87.5 72t33.5 98h-59zM325.5 713q12.5 -13 12.5 -33t-12.5 -33t-32.5 -13t-32.5 13t-12.5 33t12.5 33t32.5 13t32.5 -13z" />
    <glyph glyph-name="Agrave" unicode="&#xc0;" horiz-adv-x="780" 
d="M584 213h-389l-91 -213h-63l313 720h73l312 -720h-65zM561 266l-170 402l-173 -402h343zM324 946l116 -156h-58l-125 148v8h67z" />
    <glyph glyph-name="Aacute" unicode="&#xc1;" horiz-adv-x="780" 
d="M584 213h-389l-91 -213h-63l313 720h73l312 -720h-65zM561 266l-170 402l-173 -402h343zM392 789h-59l125 158h68v-7z" />
    <glyph glyph-name="Acircumflex" unicode="&#xc2;" horiz-adv-x="780" 
d="M584 213h-389l-91 -213h-63l313 720h73l312 -720h-65zM561 266l-170 402l-173 -402h343zM494 790l-104 114l-104 -114h-57l128 157h65l129 -157h-57z" />
    <glyph glyph-name="Atilde" unicode="&#xc3;" horiz-adv-x="780" 
d="M584 213h-389l-91 -213h-63l313 720h73l312 -720h-65zM561 266l-170 402l-173 -402h343zM419 812.5q-22 13.5 -48 38.5q-20 19 -34 28.5t-31 9.5q-26 0 -41.5 -23.5t-17.5 -63.5h-48q2 61 30.5 98t77.5 37q30 0 51 -13t49 -39q20 -20 34 -29.5t31 -9.5q26 0 41.5 23.5
t17.5 63.5h48q-2 -61 -30.5 -97.5t-77.5 -36.5q-30 0 -52 13.5z" />
    <glyph glyph-name="Adieresis" unicode="&#xc4;" horiz-adv-x="780" 
d="M584 213h-389l-91 -213h-63l313 720h73l312 -720h-65zM561 266l-170 402l-173 -402h343zM253 832q-12 12 -12 31t12 31t31 12t31 -12t12 -31t-12 -31t-31 -12t-31 12zM465 832q-12 12 -12 31t12 31t31 12t31 -12t12 -31t-12 -31t-31 -12t-31 12z" />
    <glyph glyph-name="Aring" unicode="&#xc5;" horiz-adv-x="780" 
d="M584 213h-389l-91 -213h-63l313 720h73l312 -720h-65zM561 266l-170 402l-173 -402h343zM293.5 824.5q-37.5 35.5 -37.5 88.5q0 54 37.5 89.5t94.5 35.5q58 0 95 -35.5t37 -89.5q0 -53 -37 -88.5t-95 -35.5q-57 0 -94.5 35.5zM449.5 853.5q24.5 23.5 24.5 59.5
q0 37 -24.5 60.5t-61.5 23.5q-36 0 -60.5 -24t-24.5 -60t24.5 -59.5t60.5 -23.5q37 0 61.5 23.5z" />
    <glyph glyph-name="AE" unicode="&#xc6;" horiz-adv-x="1095" 
d="M1055 0h-526v208h-321l-144 -208h-67l500 720h548l-16 -54h-441v-259h302v-54h-302v-299h451zM529 261v413l-285 -413h285z" />
    <glyph glyph-name="Ccedilla" unicode="&#xc7;" horiz-adv-x="754" 
d="M251 35.5q-90 48.5 -141 133.5t-51 190q0 106 51 191.5t140 134t196 48.5q77 0 146 -24.5t113 -68.5l-40 -43q-40 38 -99 59.5t-122 21.5q-87 0 -161 -41.5t-118 -114.5t-44 -163t43.5 -162.5t119 -113.5t166.5 -41q63 0 122.5 20t97.5 59l42 -42q-46 -47 -115 -69.5
t-145 -22.5q-111 0 -201 48.5zM524 -68q31 -22 31 -58q0 -40 -36.5 -63.5t-98.5 -23.5q-43 0 -80.5 11t-61.5 27l23 35q27 -17 58.5 -25t60.5 -8q39 0 60.5 12t21.5 33q0 20 -20 32.5t-54 12.5q-36 0 -66 -14l-20 15l74 100h54l-62 -69q17 5 36 5q49 0 80 -22z" />
    <glyph glyph-name="Egrave" unicode="&#xc8;" horiz-adv-x="694" 
d="M654 0h-550v720h540l-16 -54h-464v-259h318v-54h-318v-299h474zM304 946l116 -156h-58l-125 148v8h67z" />
    <glyph glyph-name="Eacute" unicode="&#xc9;" horiz-adv-x="694" 
d="M654 0h-550v720h540l-16 -54h-464v-259h318v-54h-318v-299h474zM372 789h-59l125 158h68v-7z" />
    <glyph glyph-name="Ecircumflex" unicode="&#xca;" horiz-adv-x="694" 
d="M654 0h-550v720h540l-16 -54h-464v-259h318v-54h-318v-299h474zM474 790l-104 114l-104 -114h-57l128 157h65l129 -157h-57z" />
    <glyph glyph-name="Edieresis" unicode="&#xcb;" horiz-adv-x="694" 
d="M654 0h-550v720h540l-16 -54h-464v-259h318v-54h-318v-299h474zM233 832q-12 12 -12 31t12 31t31 12t31 -12t12 -31t-12 -31t-31 -12t-31 12zM445 832q-12 12 -12 31t12 31t31 12t31 -12t12 -31t-12 -31t-31 -12t-31 12z" />
    <glyph glyph-name="Igrave" unicode="&#xcc;" horiz-adv-x="280" 
d="M170 720v-720h-60v720h60zM74 946l116 -156h-58l-125 148v8h67z" />
    <glyph glyph-name="Iacute" unicode="&#xcd;" horiz-adv-x="280" 
d="M170 720v-720h-60v720h60zM142 789h-59l125 158h68v-7z" />
    <glyph glyph-name="Icircumflex" unicode="&#xce;" horiz-adv-x="280" 
d="M170 720v-720h-60v720h60zM244 790l-104 114l-104 -114h-57l128 157h65l129 -157h-57z" />
    <glyph glyph-name="Idieresis" unicode="&#xcf;" horiz-adv-x="280" 
d="M21 832q-12 12 -12 31t12 31t31 12t31 -12t12 -31t-12 -31t-31 -12t-31 12zM197 832q-12 12 -12 31t12 31t31 12t31 -12t12 -31t-12 -31t-31 -12t-31 12zM170 720v-720h-60v720h60z" />
    <glyph glyph-name="Eth" unicode="&#xd0;" horiz-adv-x="814" 
d="M578.5 675q84.5 -45 130.5 -127t46 -188t-46 -188t-130.5 -127t-196.5 -45h-271v356h-90v52h90v312h271q112 0 196.5 -45zM545.5 92q70.5 38 109 107.5t38.5 160.5t-38.5 160.5t-109 107.5t-165.5 38h-209v-258h298v-52h-298v-302h209q95 0 165.5 38z" />
    <glyph glyph-name="Ntilde" unicode="&#xd1;" horiz-adv-x="820" 
d="M716 720v-720h-66l-488 639v-639h-58v720h67l487 -638v638h58zM441 812.5q-22 13.5 -48 38.5q-20 19 -34 28.5t-31 9.5q-26 0 -41.5 -23.5t-17.5 -63.5h-48q2 61 30.5 98t77.5 37q30 0 51 -13t49 -39q20 -20 34 -29.5t31 -9.5q26 0 41.5 23.5t17.5 63.5h48
q-2 -61 -30.5 -97.5t-77.5 -36.5q-30 0 -52 13.5z" />
    <glyph glyph-name="Ograve" unicode="&#xd2;" horiz-adv-x="862" 
d="M239.5 35q-84.5 48 -132.5 133t-48 192t48 192t132.5 133t191.5 48t191.5 -48t132.5 -133t48 -192t-48 -192t-132.5 -133t-191.5 -48t-191.5 48zM590.5 83q70.5 41 110.5 113.5t40 163.5t-40 163.5t-110.5 113.5t-159.5 41t-159.5 -41t-110.5 -113.5t-40 -163.5
t40 -163.5t110.5 -113.5t159.5 -41t159.5 41zM365 946l116 -156h-58l-125 148v8h67z" />
    <glyph glyph-name="Oacute" unicode="&#xd3;" horiz-adv-x="862" 
d="M239.5 35q-84.5 48 -132.5 133t-48 192t48 192t132.5 133t191.5 48t191.5 -48t132.5 -133t48 -192t-48 -192t-132.5 -133t-191.5 -48t-191.5 48zM590.5 83q70.5 41 110.5 113.5t40 163.5t-40 163.5t-110.5 113.5t-159.5 41t-159.5 -41t-110.5 -113.5t-40 -163.5
t40 -163.5t110.5 -113.5t159.5 -41t159.5 41zM433 789h-59l125 158h68v-7z" />
    <glyph glyph-name="Ocircumflex" unicode="&#xd4;" horiz-adv-x="862" 
d="M239.5 35q-84.5 48 -132.5 133t-48 192t48 192t132.5 133t191.5 48t191.5 -48t132.5 -133t48 -192t-48 -192t-132.5 -133t-191.5 -48t-191.5 48zM590.5 83q70.5 41 110.5 113.5t40 163.5t-40 163.5t-110.5 113.5t-159.5 41t-159.5 -41t-110.5 -113.5t-40 -163.5
t40 -163.5t110.5 -113.5t159.5 -41t159.5 41zM535 790l-104 114l-104 -114h-57l128 157h65l129 -157h-57z" />
    <glyph glyph-name="Otilde" unicode="&#xd5;" horiz-adv-x="862" 
d="M239.5 35q-84.5 48 -132.5 133t-48 192t48 192t132.5 133t191.5 48t191.5 -48t132.5 -133t48 -192t-48 -192t-132.5 -133t-191.5 -48t-191.5 48zM590.5 83q70.5 41 110.5 113.5t40 163.5t-40 163.5t-110.5 113.5t-159.5 41t-159.5 -41t-110.5 -113.5t-40 -163.5
t40 -163.5t110.5 -113.5t159.5 -41t159.5 41zM460 812.5q-22 13.5 -48 38.5q-20 19 -34 28.5t-31 9.5q-26 0 -41.5 -23.5t-17.5 -63.5h-48q2 61 30.5 98t77.5 37q30 0 51 -13t49 -39q20 -20 34 -29.5t31 -9.5q26 0 41.5 23.5t17.5 63.5h48q-2 -61 -30.5 -97.5t-77.5 -36.5
q-30 0 -52 13.5z" />
    <glyph glyph-name="Odieresis" unicode="&#xd6;" horiz-adv-x="862" 
d="M239.5 35q-84.5 48 -132.5 133t-48 192t48 192t132.5 133t191.5 48t191.5 -48t132.5 -133t48 -192t-48 -192t-132.5 -133t-191.5 -48t-191.5 48zM590.5 83q70.5 41 110.5 113.5t40 163.5t-40 163.5t-110.5 113.5t-159.5 41t-159.5 -41t-110.5 -113.5t-40 -163.5
t40 -163.5t110.5 -113.5t159.5 -41t159.5 41zM294 832q-12 12 -12 31t12 31t31 12t31 -12t12 -31t-12 -31t-31 -12t-31 12zM506 832q-12 12 -12 31t12 31t31 12t31 -12t12 -31t-12 -31t-31 -12t-31 12z" />
    <glyph glyph-name="multiply" unicode="&#xd7;" horiz-adv-x="588" 
d="M76 179l181 181l-181 181l37 36l181 -181l181 181l37 -36l-181 -181l181 -181l-37 -37l-181 181l-181 -181z" />
    <glyph glyph-name="Oslash" unicode="&#xd8;" horiz-adv-x="861" 
d="M769.5 520.5q32.5 -73.5 32.5 -160.5q0 -107 -48 -192t-132.5 -133.5t-191.5 -48.5q-116 0 -204 57l-66 -88h-66l89 119q-59 51 -91.5 125t-32.5 161q0 107 48 192t132.5 133t190.5 48q116 0 205 -56l66 87h66l-89 -119q59 -51 91.5 -124.5zM145.5 226
q25.5 -62 72.5 -105l383 510q-75 47 -171 47q-89 0 -159.5 -41t-110.5 -113.5t-40 -163.5q0 -72 25.5 -134zM590 83q71 41 111 113.5t40 163.5q0 72 -25.5 133t-72.5 105l-383 -509q75 -47 170 -47q89 0 160 41z" />
    <glyph glyph-name="Ugrave" unicode="&#xd9;" horiz-adv-x="774" 
d="M232.5 20q-67.5 33 -105 94t-37.5 142v464h60v-459q0 -67 30 -116.5t83.5 -76t123.5 -26.5t123.5 26.5t83.5 76t30 116.5v459h60v-464q0 -81 -37.5 -142t-105 -94t-154.5 -33t-154.5 33zM321 946l116 -156h-58l-125 148v8h67z" />
    <glyph glyph-name="Uacute" unicode="&#xda;" horiz-adv-x="774" 
d="M232.5 20q-67.5 33 -105 94t-37.5 142v464h60v-459q0 -67 30 -116.5t83.5 -76t123.5 -26.5t123.5 26.5t83.5 76t30 116.5v459h60v-464q0 -81 -37.5 -142t-105 -94t-154.5 -33t-154.5 33zM389 789h-59l125 158h68v-7z" />
    <glyph glyph-name="Ucircumflex" unicode="&#xdb;" horiz-adv-x="774" 
d="M232.5 20q-67.5 33 -105 94t-37.5 142v464h60v-459q0 -67 30 -116.5t83.5 -76t123.5 -26.5t123.5 26.5t83.5 76t30 116.5v459h60v-464q0 -81 -37.5 -142t-105 -94t-154.5 -33t-154.5 33zM491 790l-104 114l-104 -114h-57l128 157h65l129 -157h-57z" />
    <glyph glyph-name="Udieresis" unicode="&#xdc;" horiz-adv-x="774" 
d="M232.5 20q-67.5 33 -105 94t-37.5 142v464h60v-459q0 -67 30 -116.5t83.5 -76t123.5 -26.5t123.5 26.5t83.5 76t30 116.5v459h60v-464q0 -81 -37.5 -142t-105 -94t-154.5 -33t-154.5 33zM250 832q-12 12 -12 31t12 31t31 12t31 -12t12 -31t-12 -31t-31 -12t-31 12z
M462 832q-12 12 -12 31t12 31t31 12t31 -12t12 -31t-12 -31t-31 -12t-31 12z" />
    <glyph glyph-name="Yacute" unicode="&#xdd;" horiz-adv-x="720" 
d="M391 248v-248h-60v247l-304 473h70l264 -419l264 419h68zM362 789h-59l125 158h68v-7z" />
    <glyph glyph-name="Thorn" unicode="&#xde;" horiz-adv-x="725" 
d="M611.5 514q61.5 -56 61.5 -148t-61.5 -148.5t-171.5 -56.5h-276v-161h-60v720h60v-150h276q110 0 171.5 -56zM566.5 255.5q45.5 40.5 45.5 110.5q0 69 -45.5 109.5t-128.5 40.5h-274v-301h274q83 0 128.5 40.5z" />
    <glyph glyph-name="germandbls" unicode="&#xdf;" horiz-adv-x="683" 
d="M177.5 623q24.5 43 67.5 66t98 23q65 0 107.5 -30.5t42.5 -77.5q0 -27 -16 -48.5t-60 -61.5t-58 -59t-14 -45q0 -22 11.5 -41.5t42.5 -37.5l104 -63q46 -28 63 -50t17 -49q0 -46 -38.5 -76t-111.5 -30q-44 0 -91 11.5t-90 32.5v-58q40 -18 88 -28.5t94 -10.5q98 0 153 45
t55 115q0 47 -25 78.5t-75 62.5l-96 59q-26 16 -34.5 25.5t-8.5 19.5q0 12 8.5 22t25 25t23.5 21q52 48 71.5 77.5t19.5 64.5q0 46 -26.5 82.5t-74 57t-107.5 20.5q-71 0 -127.5 -29.5t-88.5 -84t-32 -127.5v-524h58v523q0 57 24.5 100z" />
    <glyph glyph-name="agrave" unicode="&#xe0;" horiz-adv-x="635" 
d="M619 50v-48q-12 -6 -34 -6q-45 0 -72 28t-27 78v18q-32 -68 -94.5 -100t-137.5 -32q-88 0 -147.5 42.5t-59.5 118.5q0 81 71 126t204 45h163v24q0 72 -49.5 114.5t-130.5 42.5q-51 0 -100 -17t-79 -47l-36 42q39 36 97 55.5t120 19.5q107 0 170.5 -55.5t63.5 -150.5v-243
q0 -29 13.5 -44t37.5 -15q16 0 27 4zM365 61.5q51 22.5 85 74.5t35 135h-163q-109 0 -163.5 -32t-54.5 -88q0 -52 44 -82t111 -30q55 0 106 22.5zM247 768l116 -156h-58l-125 148v8h67z" />
    <glyph glyph-name="aacute" unicode="&#xe1;" horiz-adv-x="635" 
d="M619 50v-48q-12 -6 -34 -6q-45 0 -72 28t-27 78v18q-32 -68 -94.5 -100t-137.5 -32q-88 0 -147.5 42.5t-59.5 118.5q0 81 71 126t204 45h163v24q0 72 -49.5 114.5t-130.5 42.5q-51 0 -100 -17t-79 -47l-36 42q39 36 97 55.5t120 19.5q107 0 170.5 -55.5t63.5 -150.5v-243
q0 -29 13.5 -44t37.5 -15q16 0 27 4zM365 61.5q51 22.5 85 74.5t35 135h-163q-109 0 -163.5 -32t-54.5 -88q0 -52 44 -82t111 -30q55 0 106 22.5zM315 611h-59l125 158h68v-7z" />
    <glyph glyph-name="acircumflex" unicode="&#xe2;" horiz-adv-x="635" 
d="M619 50v-48q-12 -6 -34 -6q-45 0 -72 28t-27 78v18q-32 -68 -94.5 -100t-137.5 -32q-88 0 -147.5 42.5t-59.5 118.5q0 81 71 126t204 45h163v24q0 72 -49.5 114.5t-130.5 42.5q-51 0 -100 -17t-79 -47l-36 42q39 36 97 55.5t120 19.5q107 0 170.5 -55.5t63.5 -150.5v-243
q0 -29 13.5 -44t37.5 -15q16 0 27 4zM365 61.5q51 22.5 85 74.5t35 135h-163q-109 0 -163.5 -32t-54.5 -88q0 -52 44 -82t111 -30q55 0 106 22.5zM417 612l-104 114l-104 -114h-57l128 157h65l129 -157h-57z" />
    <glyph glyph-name="atilde" unicode="&#xe3;" horiz-adv-x="635" 
d="M619 50v-48q-12 -6 -34 -6q-45 0 -72 28t-27 78v18q-32 -68 -94.5 -100t-137.5 -32q-88 0 -147.5 42.5t-59.5 118.5q0 81 71 126t204 45h163v24q0 72 -49.5 114.5t-130.5 42.5q-51 0 -100 -17t-79 -47l-36 42q39 36 97 55.5t120 19.5q107 0 170.5 -55.5t63.5 -150.5v-243
q0 -29 13.5 -44t37.5 -15q16 0 27 4zM365 61.5q51 22.5 85 74.5t35 135h-163q-109 0 -163.5 -32t-54.5 -88q0 -52 44 -82t111 -30q55 0 106 22.5zM342 634.5q-22 13.5 -48 38.5q-20 19 -34 28.5t-31 9.5q-26 0 -41.5 -23.5t-17.5 -63.5h-48q2 61 30.5 98t77.5 37
q30 0 51 -13t49 -39q20 -20 34 -29.5t31 -9.5q26 0 41.5 23.5t17.5 63.5h48q-2 -61 -30.5 -97.5t-77.5 -36.5q-30 0 -52 13.5z" />
    <glyph glyph-name="adieresis" unicode="&#xe4;" horiz-adv-x="635" 
d="M619 50v-48q-12 -6 -34 -6q-45 0 -72 28t-27 78v18q-32 -68 -94.5 -100t-137.5 -32q-88 0 -147.5 42.5t-59.5 118.5q0 81 71 126t204 45h163v24q0 72 -49.5 114.5t-130.5 42.5q-51 0 -100 -17t-79 -47l-36 42q39 36 97 55.5t120 19.5q107 0 170.5 -55.5t63.5 -150.5v-243
q0 -29 13.5 -44t37.5 -15q16 0 27 4zM365 61.5q51 22.5 85 74.5t35 135h-163q-109 0 -163.5 -32t-54.5 -88q0 -52 44 -82t111 -30q55 0 106 22.5zM176 654q-12 12 -12 31t12 31t31 12t31 -12t12 -31t-12 -31t-31 -12t-31 12zM388 654q-12 12 -12 31t12 31t31 12t31 -12
t12 -31t-12 -31t-31 -12t-31 12z" />
    <glyph glyph-name="aring" unicode="&#xe5;" horiz-adv-x="635" 
d="M619 50v-48q-12 -6 -34 -6q-45 0 -72 28t-27 78v18q-32 -68 -94.5 -100t-137.5 -32q-88 0 -147.5 42.5t-59.5 118.5q0 81 71 126t204 45h163v24q0 72 -49.5 114.5t-130.5 42.5q-51 0 -100 -17t-79 -47l-36 42q39 36 97 55.5t120 19.5q107 0 170.5 -55.5t63.5 -150.5v-243
q0 -29 13.5 -44t37.5 -15q16 0 27 4zM365 61.5q51 22.5 85 74.5t35 135h-163q-109 0 -163.5 -32t-54.5 -88q0 -52 44 -82t111 -30q55 0 106 22.5zM216.5 646.5q-37.5 35.5 -37.5 88.5q0 54 37.5 89.5t94.5 35.5q58 0 95 -35.5t37 -89.5q0 -53 -37 -88.5t-95 -35.5
q-57 0 -94.5 35.5zM372.5 675.5q24.5 23.5 24.5 59.5q0 37 -24.5 60.5t-61.5 23.5q-36 0 -60.5 -24t-24.5 -60t24.5 -59.5t60.5 -23.5q37 0 61.5 23.5z" />
    <glyph glyph-name="ae" unicode="&#xe6;" horiz-adv-x="1049" 
d="M1008 261h-469q2 -65 31.5 -115t80.5 -78t117 -28q56 0 100 19.5t71 51.5l39 -39q-34 -39 -88.5 -62t-122.5 -23q-96 0 -162.5 45t-95.5 124q-27 -85 -100 -127t-156 -42q-56 0 -103 19.5t-75 55.5t-28 85q0 81 70.5 124t200.5 43h164v29q0 73 -47 115.5t-129 42.5
q-52 0 -100.5 -17.5t-80.5 -47.5l-34 42q38 37 96 56t121 19q85 0 140.5 -35t75.5 -99q32 64 92 99.5t141 35.5q74 0 131.5 -37.5t89.5 -99t32 -132.5q0 -10 -2 -24zM611 448.5q-59 -52.5 -70 -138.5h410q-5 52 -30 95.5t-67.5 69.5t-95.5 26q-88 0 -147 -52.5zM361 60
q50 22 84 73t37 131l-164 1q-104 1 -158 -30t-54 -87q0 -49 43.5 -79.5t108.5 -30.5q53 0 103 22z" />
    <glyph glyph-name="ccedilla" unicode="&#xe7;" horiz-adv-x="584" 
d="M196 23.5q-68 36.5 -106 101t-38 146.5q0 81 38.5 146t107 101.5t153.5 36.5q118 0 193 -72l-37 -43q-32 30 -72.5 45.5t-86.5 15.5q-65 0 -119.5 -29.5t-86 -82t-31.5 -118.5q0 -67 31.5 -119t86 -81.5t120.5 -29.5q49 0 93 16t69 45l39 -40q-31 -36 -84 -55.5
t-116 -19.5q-86 0 -154 36.5zM426 -68q31 -22 31 -58q0 -40 -36.5 -63.5t-98.5 -23.5q-43 0 -80.5 11t-61.5 27l23 35q27 -17 58.5 -25t60.5 -8q39 0 60.5 12t21.5 33q0 20 -20 32.5t-54 12.5q-36 0 -66 -14l-20 15l74 100h54l-62 -69q17 5 36 5q49 0 80 -22z" />
    <glyph glyph-name="egrave" unicode="&#xe8;" horiz-adv-x="647" 
d="M606 254h-491q4 -63 34.5 -111.5t82.5 -75.5t119 -27q60 0 107.5 20t77.5 53l38 -40q-33 -39 -91 -62.5t-134 -23.5q-87 0 -153.5 36.5t-103 101t-36.5 145.5t35.5 146t99 102t142.5 37q81 0 143.5 -37.5t97 -102t34.5 -142.5q0 -3 -2 -19zM229.5 477.5
q-46.5 -24.5 -76.5 -70t-36 -105.5h431q-4 55 -32 101t-75.5 72.5t-107.5 26.5q-57 0 -103.5 -24.5zM267 768l116 -156h-58l-125 148v8h67z" />
    <glyph glyph-name="eacute" unicode="&#xe9;" horiz-adv-x="647" 
d="M606 254h-491q4 -63 34.5 -111.5t82.5 -75.5t119 -27q60 0 107.5 20t77.5 53l38 -40q-33 -39 -91 -62.5t-134 -23.5q-87 0 -153.5 36.5t-103 101t-36.5 145.5t35.5 146t99 102t142.5 37q81 0 143.5 -37.5t97 -102t34.5 -142.5q0 -3 -2 -19zM229.5 477.5
q-46.5 -24.5 -76.5 -70t-36 -105.5h431q-4 55 -32 101t-75.5 72.5t-107.5 26.5q-57 0 -103.5 -24.5zM335 611h-59l125 158h68v-7z" />
    <glyph glyph-name="ecircumflex" unicode="&#xea;" horiz-adv-x="647" 
d="M606 254h-491q4 -63 34.5 -111.5t82.5 -75.5t119 -27q60 0 107.5 20t77.5 53l38 -40q-33 -39 -91 -62.5t-134 -23.5q-87 0 -153.5 36.5t-103 101t-36.5 145.5t35.5 146t99 102t142.5 37q81 0 143.5 -37.5t97 -102t34.5 -142.5q0 -3 -2 -19zM229.5 477.5
q-46.5 -24.5 -76.5 -70t-36 -105.5h431q-4 55 -32 101t-75.5 72.5t-107.5 26.5q-57 0 -103.5 -24.5zM437 612l-104 114l-104 -114h-57l128 157h65l129 -157h-57z" />
    <glyph glyph-name="edieresis" unicode="&#xeb;" horiz-adv-x="647" 
d="M606 254h-491q4 -63 34.5 -111.5t82.5 -75.5t119 -27q60 0 107.5 20t77.5 53l38 -40q-33 -39 -91 -62.5t-134 -23.5q-87 0 -153.5 36.5t-103 101t-36.5 145.5t35.5 146t99 102t142.5 37q81 0 143.5 -37.5t97 -102t34.5 -142.5q0 -3 -2 -19zM229.5 477.5
q-46.5 -24.5 -76.5 -70t-36 -105.5h431q-4 55 -32 101t-75.5 72.5t-107.5 26.5q-57 0 -103.5 -24.5zM196 654q-12 12 -12 31t12 31t31 12t31 -12t12 -31t-12 -31t-31 -12t-31 12zM408 654q-12 12 -12 31t12 31t31 12t31 -12t12 -31t-12 -31t-31 -12t-31 12z" />
    <glyph glyph-name="igrave" unicode="&#xec;" horiz-adv-x="260" 
d="M19 760v8h67l96 -156h-58zM117 542h58v-542h-58v542z" />
    <glyph glyph-name="iacute" unicode="&#xed;" horiz-adv-x="256" 
d="M99 542h58v-542h-58v542zM130 611h-59l125 158h68v-7z" />
    <glyph glyph-name="icircumflex" unicode="&#xee;" horiz-adv-x="256" 
d="M99 542h58v-542h-58v542zM232 612l-104 114l-104 -114h-57l128 157h65l129 -157h-57z" />
    <glyph glyph-name="idieresis" unicode="&#xef;" horiz-adv-x="256" 
d="M9 654q-12 12 -12 31t12 31t31 12t31 -12t12 -31t-12 -31t-31 -12t-31 12zM185 654q-12 12 -12 31t12 31t31 12t31 -12t12 -31t-12 -31t-31 -12t-31 12zM99 542h58v-542h-58v542z" />
    <glyph glyph-name="eth" unicode="&#xf0;" horiz-adv-x="659" 
d="M555 468q56 -108 56 -204q0 -76 -36 -139.5t-99.5 -100.5t-142.5 -37q-80 0 -144.5 37t-100.5 99t-36 136q0 73 36.5 135.5t100 99t142.5 36.5q57 0 100.5 -22t79.5 -68q-61 112 -170 199l-157 -63l-17 42l131 52q-48 33 -105 58l21 42q76 -31 141 -77l155 62l17 -42
l-130 -52q102 -85 158 -193zM444.5 70.5q49.5 29.5 78 79.5t28.5 110t-28.5 109.5t-78 78.5t-111.5 29t-113 -29.5t-79.5 -79.5t-28.5 -109t28.5 -109t79 -79.5t113.5 -29.5q62 0 111.5 29.5z" />
    <glyph glyph-name="ntilde" unicode="&#xf1;" horiz-adv-x="661" 
d="M517.5 500q58.5 -55 58.5 -149v-351h-58v342q0 74 -43.5 116.5t-123.5 42.5q-58 0 -103.5 -23t-70 -61.5t-24.5 -84.5v-332h-58v542h56v-91q35 54 90.5 79t119.5 25q98 0 156.5 -55zM367 634.5q-22 13.5 -48 38.5q-20 19 -34 28.5t-31 9.5q-26 0 -41.5 -23.5t-17.5 -63.5
h-48q2 61 30.5 98t77.5 37q30 0 51 -13t49 -39q20 -20 34 -29.5t31 -9.5q26 0 41.5 23.5t17.5 63.5h48q-2 -61 -30.5 -97.5t-77.5 -36.5q-30 0 -52 13.5z" />
    <glyph glyph-name="ograve" unicode="&#xf2;" horiz-adv-x="674" 
d="M483 24.5q65 37.5 102 102.5t37 144t-37 144t-102 102.5t-146 37.5t-146 -37.5t-102 -102.5t-37 -144t37 -144t102 -102.5t146 -37.5t146 37.5zM451.5 471q51.5 -30 81.5 -83t30 -117t-30 -117t-81.5 -83t-114.5 -30t-114.5 30t-81.5 83t-30 117t30 117t81.5 83t114.5 30
t114.5 -30zM271 768l116 -156h-58l-125 148v8h67z" />
    <glyph glyph-name="oacute" unicode="&#xf3;" horiz-adv-x="674" 
d="M483 24.5q65 37.5 102 102.5t37 144t-37 144t-102 102.5t-146 37.5t-146 -37.5t-102 -102.5t-37 -144t37 -144t102 -102.5t146 -37.5t146 37.5zM451.5 471q51.5 -30 81.5 -83t30 -117t-30 -117t-81.5 -83t-114.5 -30t-114.5 30t-81.5 83t-30 117t30 117t81.5 83t114.5 30
t114.5 -30zM339 611h-59l125 158h68v-7z" />
    <glyph glyph-name="ocircumflex" unicode="&#xf4;" horiz-adv-x="674" 
d="M483 24.5q65 37.5 102 102.5t37 144t-37 144t-102 102.5t-146 37.5t-146 -37.5t-102 -102.5t-37 -144t37 -144t102 -102.5t146 -37.5t146 37.5zM451.5 471q51.5 -30 81.5 -83t30 -117t-30 -117t-81.5 -83t-114.5 -30t-114.5 30t-81.5 83t-30 117t30 117t81.5 83t114.5 30
t114.5 -30zM441 612l-104 114l-104 -114h-57l128 157h65l129 -157h-57z" />
    <glyph glyph-name="otilde" unicode="&#xf5;" horiz-adv-x="674" 
d="M483 24.5q65 37.5 102 102.5t37 144t-37 144t-102 102.5t-146 37.5t-146 -37.5t-102 -102.5t-37 -144t37 -144t102 -102.5t146 -37.5t146 37.5zM451.5 471q51.5 -30 81.5 -83t30 -117t-30 -117t-81.5 -83t-114.5 -30t-114.5 30t-81.5 83t-30 117t30 117t81.5 83t114.5 30
t114.5 -30zM366 634.5q-22 13.5 -48 38.5q-20 19 -34 28.5t-31 9.5q-26 0 -41.5 -23.5t-17.5 -63.5h-48q2 61 30.5 98t77.5 37q30 0 51 -13t49 -39q20 -20 34 -29.5t31 -9.5q26 0 41.5 23.5t17.5 63.5h48q-2 -61 -30.5 -97.5t-77.5 -36.5q-30 0 -52 13.5z" />
    <glyph glyph-name="odieresis" unicode="&#xf6;" horiz-adv-x="674" 
d="M483 24.5q65 37.5 102 102.5t37 144t-37 144t-102 102.5t-146 37.5t-146 -37.5t-102 -102.5t-37 -144t37 -144t102 -102.5t146 -37.5t146 37.5zM451.5 471q51.5 -30 81.5 -83t30 -117t-30 -117t-81.5 -83t-114.5 -30t-114.5 30t-81.5 83t-30 117t30 117t81.5 83t114.5 30
t114.5 -30zM200 654q-12 12 -12 31t12 31t31 12t31 -12t12 -31t-12 -31t-31 -12t-31 12zM412 654q-12 12 -12 31t12 31t31 12t31 -12t12 -31t-12 -31t-31 -12t-31 12z" />
    <glyph glyph-name="divide" unicode="&#xf7;" horiz-adv-x="611" 
d="M273 518q-13 13 -13 32t13 31.5t32 12.5t32 -12.5t13 -31.5t-13 -32t-32 -13t-32 13zM69 385h473v-51h-473v51zM273 138.5q-13 12.5 -13 31.5t13 32t32 13t32 -13t13 -32t-13 -31.5t-32 -12.5t-32 12.5z" />
    <glyph glyph-name="oslash" unicode="&#xf8;" horiz-adv-x="674" 
d="M597 391q25 -56 25 -120q0 -79 -37 -144t-102 -102.5t-146 -37.5q-84 0 -149 40l-54 -73h-62l75 102q-45 39 -70 95t-25 120q0 79 37 144t102 102.5t146 37.5q84 0 150 -40l53 73h62l-75 -101q45 -40 70 -96zM129.5 177q18.5 -44 51.5 -75l273 368q-53 31 -117 31
q-63 0 -114.5 -30t-81.5 -83t-30 -117q0 -50 18.5 -94zM452.5 71q51.5 30 81.5 82.5t30 117.5q0 51 -18.5 95t-52.5 75l-272 -369q53 -31 116 -31q64 0 115.5 30z" />
    <glyph glyph-name="ugrave" unicode="&#xf9;" horiz-adv-x="657" 
d="M562 542v-542h-56v91q-35 -54 -90 -79t-118 -25q-97 0 -155 55.5t-58 148.5v351h58v-342q0 -74 43 -116.5t122 -42.5q57 0 102 23t69.5 61.5t24.5 84.5v332h58zM258 768l116 -156h-58l-125 148v8h67z" />
    <glyph glyph-name="uacute" unicode="&#xfa;" horiz-adv-x="657" 
d="M562 542v-542h-56v91q-35 -54 -90 -79t-118 -25q-97 0 -155 55.5t-58 148.5v351h58v-342q0 -74 43 -116.5t122 -42.5q57 0 102 23t69.5 61.5t24.5 84.5v332h58zM326 611h-59l125 158h68v-7z" />
    <glyph glyph-name="ucircumflex" unicode="&#xfb;" horiz-adv-x="657" 
d="M562 542v-542h-56v91q-35 -54 -90 -79t-118 -25q-97 0 -155 55.5t-58 148.5v351h58v-342q0 -74 43 -116.5t122 -42.5q57 0 102 23t69.5 61.5t24.5 84.5v332h58zM428 612l-104 114l-104 -114h-57l128 157h65l129 -157h-57z" />
    <glyph glyph-name="udieresis" unicode="&#xfc;" horiz-adv-x="657" 
d="M562 542v-542h-56v91q-35 -54 -90 -79t-118 -25q-97 0 -155 55.5t-58 148.5v351h58v-342q0 -74 43 -116.5t122 -42.5q57 0 102 23t69.5 61.5t24.5 84.5v332h58zM187 654q-12 12 -12 31t12 31t31 12t31 -12t12 -31t-12 -31t-31 -12t-31 12zM399 654q-12 12 -12 31t12 31
t31 12t31 -12t12 -31t-12 -31t-31 -12t-31 12z" />
    <glyph glyph-name="yacute" unicode="&#xfd;" horiz-adv-x="599" 
d="M579 542l-285 -619q-52 -113 -160 -113q-53 0 -103 22l20 51q42 -21 81 -21t67 20.5t48 64.5l26 56l-250 539h65l215 -478l213 478h63zM303 611h-59l125 158h68v-7z" />
    <glyph glyph-name="thorn" unicode="&#xfe;" horiz-adv-x="708" 
d="M520 518q62 -37 97.5 -102t35.5 -145t-35.5 -145t-97.5 -102t-140 -37q-73 0 -133 33t-94 92v-292h-58v932h58v-323q34 59 94 92.5t133 33.5q78 0 140 -37zM488 70q50 30 78 83t28 118t-28 118t-78 83t-114 30q-60 0 -111.5 -29t-82 -81.5t-30.5 -120.5t30.5 -121
t82 -81.5t111.5 -28.5q64 0 114 30z" />
    <glyph glyph-name="ydieresis" unicode="&#xff;" horiz-adv-x="599" 
d="M579 542l-285 -619q-52 -113 -160 -113q-53 0 -103 22l20 51q42 -21 81 -21t67 20.5t48 64.5l26 56l-250 539h65l215 -478l213 478h63zM164 654q-12 12 -12 31t12 31t31 12t31 -12t12 -31t-12 -31t-31 -12t-31 12zM376 654q-12 12 -12 31t12 31t31 12t31 -12t12 -31
t-12 -31t-31 -12t-31 12z" />
    <glyph glyph-name="Amacron" unicode="&#x100;" horiz-adv-x="780" 
d="M584 213h-389l-91 -213h-63l313 720h73l312 -720h-65zM561 266l-170 402l-173 -402h343zM238 872h304v-48h-304v48z" />
    <glyph glyph-name="amacron" unicode="&#x101;" horiz-adv-x="635" 
d="M619 50v-48q-12 -6 -34 -6q-45 0 -72 28t-27 78v18q-32 -68 -94.5 -100t-137.5 -32q-88 0 -147.5 42.5t-59.5 118.5q0 81 71 126t204 45h163v24q0 72 -49.5 114.5t-130.5 42.5q-51 0 -100 -17t-79 -47l-36 42q39 36 97 55.5t120 19.5q107 0 170.5 -55.5t63.5 -150.5v-243
q0 -29 13.5 -44t37.5 -15q16 0 27 4zM365 61.5q51 22.5 85 74.5t35 135h-163q-109 0 -163.5 -32t-54.5 -88q0 -52 44 -82t111 -30q55 0 106 22.5zM161 694h304v-48h-304v48z" />
    <glyph glyph-name="Abreve" unicode="&#x102;" horiz-adv-x="780" 
d="M584 213h-389l-91 -213h-63l313 720h73l312 -720h-65zM561 266l-170 402l-173 -402h343zM278 832.5q-44 44.5 -44 114.5h46q1 -49 32 -80t78 -31t78 31t32 80h46q0 -70 -44 -114.5t-112 -44.5t-112 44.5z" />
    <glyph glyph-name="abreve" unicode="&#x103;" horiz-adv-x="635" 
d="M619 50v-48q-12 -6 -34 -6q-45 0 -72 28t-27 78v18q-32 -68 -94.5 -100t-137.5 -32q-88 0 -147.5 42.5t-59.5 118.5q0 81 71 126t204 45h163v24q0 72 -49.5 114.5t-130.5 42.5q-51 0 -100 -17t-79 -47l-36 42q39 36 97 55.5t120 19.5q107 0 170.5 -55.5t63.5 -150.5v-243
q0 -29 13.5 -44t37.5 -15q16 0 27 4zM365 61.5q51 22.5 85 74.5t35 135h-163q-109 0 -163.5 -32t-54.5 -88q0 -52 44 -82t111 -30q55 0 106 22.5zM201 654.5q-44 44.5 -44 114.5h46q1 -49 32 -80t78 -31t78 31t32 80h46q0 -70 -44 -114.5t-112 -44.5t-112 44.5z" />
    <glyph glyph-name="Aogonek" unicode="&#x104;" horiz-adv-x="779" 
d="M751 -155q-42 -39 -108 -39q-44 0 -71.5 22.5t-27.5 61.5q0 34 29 68t94 60l-83 194h-389l-91 -212h-63l313 720h73l311 -718q-141 -50 -141 -105q0 -20 15 -32t38 -12q42 0 76 28zM561 266l-170 402l-173 -402h343z" />
    <glyph glyph-name="aogonek" unicode="&#x105;" horiz-adv-x="636" 
d="M496 -54q-33 -26 -33 -50q0 -20 15.5 -31.5t39.5 -11.5q41 0 75 28l25 -36q-40 -39 -107 -39q-44 0 -73 21.5t-29 60.5q0 34 29 66t93 55q-22 12 -34.5 33.5t-12.5 50.5l1 23q-33 -66 -95.5 -97.5t-135.5 -31.5q-57 0 -104 19t-75 55.5t-28 87.5q0 82 75.5 126.5
t222.5 44.5h138v23q0 72 -48.5 114.5t-129.5 42.5q-51 0 -100 -17t-79 -47l-36 42q38 37 96 56t121 19q107 0 170.5 -55.5t63.5 -150.5v-245q0 -25 13.5 -39.5t37.5 -14.5q16 0 27 4v-50q-90 -30 -123 -56zM364.5 61.5q50.5 22.5 84 74.5t34.5 135h-138q-122 0 -180.5 -32
t-58.5 -88q0 -52 43.5 -82t109.5 -30q55 0 105.5 22.5z" />
    <glyph glyph-name="Cacute" unicode="&#x106;" horiz-adv-x="754" 
d="M251 35.5q-90 48.5 -141 133.5t-51 190q0 106 51 191.5t140 134t196 48.5q77 0 146 -24.5t113 -68.5l-40 -43q-40 38 -99 59.5t-122 21.5q-87 0 -161 -41.5t-118 -114.5t-44 -163t43.5 -162.5t119 -113.5t166.5 -41q63 0 122.5 20t97.5 59l42 -42q-46 -47 -115 -69.5
t-145 -22.5q-111 0 -201 48.5zM428 789h-59l125 158h68v-7z" />
    <glyph glyph-name="cacute" unicode="&#x107;" horiz-adv-x="584" 
d="M196 23.5q-68 36.5 -106 101t-38 146.5q0 81 38.5 146t107 101.5t153.5 36.5q118 0 193 -72l-37 -43q-32 30 -72.5 45.5t-86.5 15.5q-65 0 -119.5 -29.5t-86 -82t-31.5 -118.5q0 -67 31.5 -119t86 -81.5t120.5 -29.5q49 0 93 16t69 45l39 -40q-31 -36 -84 -55.5
t-116 -19.5q-86 0 -154 36.5zM329 611h-59l125 158h68v-7z" />
    <glyph glyph-name="Ccircumflex" unicode="&#x108;" horiz-adv-x="754" 
d="M251 35.5q-90 48.5 -141 133.5t-51 190q0 106 51 191.5t140 134t196 48.5q77 0 146 -24.5t113 -68.5l-40 -43q-40 38 -99 59.5t-122 21.5q-87 0 -161 -41.5t-118 -114.5t-44 -163t43.5 -162.5t119 -113.5t166.5 -41q63 0 122.5 20t97.5 59l42 -42q-46 -47 -115 -69.5
t-145 -22.5q-111 0 -201 48.5zM530 790l-104 114l-104 -114h-57l128 157h65l129 -157h-57z" />
    <glyph glyph-name="ccircumflex" unicode="&#x109;" horiz-adv-x="584" 
d="M196 23.5q-68 36.5 -106 101t-38 146.5q0 81 38.5 146t107 101.5t153.5 36.5q118 0 193 -72l-37 -43q-32 30 -72.5 45.5t-86.5 15.5q-65 0 -119.5 -29.5t-86 -82t-31.5 -118.5q0 -67 31.5 -119t86 -81.5t120.5 -29.5q49 0 93 16t69 45l39 -40q-31 -36 -84 -55.5
t-116 -19.5q-86 0 -154 36.5zM431 612l-104 114l-104 -114h-57l128 157h65l129 -157h-57z" />
    <glyph glyph-name="Cdotaccent" unicode="&#x10a;" horiz-adv-x="754" 
d="M251 35.5q-90 48.5 -141 133.5t-51 190q0 106 51 191.5t140 134t196 48.5q77 0 146 -24.5t113 -68.5l-40 -43q-40 38 -99 59.5t-122 21.5q-87 0 -161 -41.5t-118 -114.5t-44 -163t43.5 -162.5t119 -113.5t166.5 -41q63 0 122.5 20t97.5 59l42 -42q-46 -47 -115 -69.5
t-145 -22.5q-111 0 -201 48.5zM457 894q12 -12 12 -31t-12 -31t-31 -12t-31 12t-12 31t12 31t31 12t31 -12z" />
    <glyph glyph-name="cdotaccent" unicode="&#x10b;" horiz-adv-x="584" 
d="M196 23.5q-68 36.5 -106 101t-38 146.5q0 81 38.5 146t107 101.5t153.5 36.5q118 0 193 -72l-37 -43q-32 30 -72.5 45.5t-86.5 15.5q-65 0 -119.5 -29.5t-86 -82t-31.5 -118.5q0 -67 31.5 -119t86 -81.5t120.5 -29.5q49 0 93 16t69 45l39 -40q-31 -36 -84 -55.5
t-116 -19.5q-86 0 -154 36.5zM358 716q12 -12 12 -31t-12 -31t-31 -12t-31 12t-12 31t12 31t31 12t31 -12z" />
    <glyph glyph-name="Ccaron" unicode="&#x10c;" horiz-adv-x="754" 
d="M251 35.5q-90 48.5 -141 133.5t-51 190q0 106 51 191.5t140 134t196 48.5q77 0 146 -24.5t113 -68.5l-40 -43q-40 38 -99 59.5t-122 21.5q-87 0 -161 -41.5t-118 -114.5t-44 -163t43.5 -162.5t119 -113.5t166.5 -41q63 0 122.5 20t97.5 59l42 -42q-46 -47 -115 -69.5
t-145 -22.5q-111 0 -201 48.5zM587 947l-129 -157h-65l-128 157h57l104 -114l104 114h57z" />
    <glyph glyph-name="ccaron" unicode="&#x10d;" horiz-adv-x="584" 
d="M196 23.5q-68 36.5 -106 101t-38 146.5q0 81 38.5 146t107 101.5t153.5 36.5q118 0 193 -72l-37 -43q-32 30 -72.5 45.5t-86.5 15.5q-65 0 -119.5 -29.5t-86 -82t-31.5 -118.5q0 -67 31.5 -119t86 -81.5t120.5 -29.5q49 0 93 16t69 45l39 -40q-31 -36 -84 -55.5
t-116 -19.5q-86 0 -154 36.5zM488 769l-129 -157h-65l-128 157h57l104 -114l104 114h57z" />
    <glyph glyph-name="Dcaron" unicode="&#x10e;" horiz-adv-x="807" 
d="M571.5 675q84.5 -45 130.5 -127t46 -188t-46 -188t-130.5 -127t-196.5 -45h-271v720h271q112 0 196.5 -45zM538.5 92q70.5 38 109 107.5t38.5 160.5t-38.5 160.5t-109 107.5t-165.5 38h-209v-612h209q95 0 165.5 38zM566 947l-129 -157h-65l-128 157h57l104 -114l104 114
h57z" />
    <glyph glyph-name="dcaron" unicode="&#x10f;" horiz-adv-x="708" 
d="M613 752v-752h-56v116q-34 -61 -94 -95t-135 -34q-78 0 -140 37t-97.5 102t-35.5 145t35.5 145t97.5 102t140 37q73 0 133 -33.5t94 -92.5v323h58zM445.5 68.5q51.5 28.5 82 81.5t30.5 121t-30.5 120.5t-82 81.5t-111.5 29q-64 0 -114 -30t-78 -83t-28 -118t28 -118
t78 -83t114 -30q60 0 111.5 28.5zM766 752l-49 -220h-44l37 220h56z" />
    <glyph glyph-name="Dcroat" unicode="&#x110;" horiz-adv-x="814" 
d="M578.5 675q84.5 -45 130.5 -127t46 -188t-46 -188t-130.5 -127t-196.5 -45h-271v356h-90v52h90v312h271q112 0 196.5 -45zM545.5 92q70.5 38 109 107.5t38.5 160.5t-38.5 160.5t-109 107.5t-165.5 38h-209v-258h298v-52h-298v-302h209q95 0 165.5 38z" />
    <glyph glyph-name="dcroat" unicode="&#x111;" horiz-adv-x="712" 
d="M704 624h-89v-624h-56v120q-34 -62 -95.5 -97.5t-135.5 -35.5q-80 0 -142 37t-96.5 101.5t-34.5 144.5t34.5 144.5t96.5 101.5t142 37q74 0 134.5 -34t94.5 -95v200h-216v47h216v81h58v-81h89v-47zM445.5 68.5q51.5 28.5 82 81t30.5 120.5t-30.5 120.5t-82 81
t-113.5 28.5t-112 -30t-78 -82.5t-28 -117.5t28 -117.5t78 -82.5t112 -30t113.5 28.5z" />
    <glyph glyph-name="Emacron" unicode="&#x112;" horiz-adv-x="694" 
d="M654 0h-550v720h540l-16 -54h-464v-259h318v-54h-318v-299h474zM218 872h304v-48h-304v48z" />
    <glyph glyph-name="emacron" unicode="&#x113;" horiz-adv-x="647" 
d="M606 254h-491q4 -63 34.5 -111.5t82.5 -75.5t119 -27q60 0 107.5 20t77.5 53l38 -40q-33 -39 -91 -62.5t-134 -23.5q-87 0 -153.5 36.5t-103 101t-36.5 145.5t35.5 146t99 102t142.5 37q81 0 143.5 -37.5t97 -102t34.5 -142.5q0 -3 -2 -19zM229.5 477.5
q-46.5 -24.5 -76.5 -70t-36 -105.5h431q-4 55 -32 101t-75.5 72.5t-107.5 26.5q-57 0 -103.5 -24.5zM181 694h304v-48h-304v48z" />
    <glyph glyph-name="Ebreve" unicode="&#x114;" horiz-adv-x="694" 
d="M654 0h-550v720h540l-16 -54h-464v-259h318v-54h-318v-299h474zM258 832.5q-44 44.5 -44 114.5h46q1 -49 32 -80t78 -31t78 31t32 80h46q0 -70 -44 -114.5t-112 -44.5t-112 44.5z" />
    <glyph glyph-name="ebreve" unicode="&#x115;" horiz-adv-x="647" 
d="M606 254h-491q4 -63 34.5 -111.5t82.5 -75.5t119 -27q60 0 107.5 20t77.5 53l38 -40q-33 -39 -91 -62.5t-134 -23.5q-87 0 -153.5 36.5t-103 101t-36.5 145.5t35.5 146t99 102t142.5 37q81 0 143.5 -37.5t97 -102t34.5 -142.5q0 -3 -2 -19zM229.5 477.5
q-46.5 -24.5 -76.5 -70t-36 -105.5h431q-4 55 -32 101t-75.5 72.5t-107.5 26.5q-57 0 -103.5 -24.5zM221 654.5q-44 44.5 -44 114.5h46q1 -49 32 -80t78 -31t78 31t32 80h46q0 -70 -44 -114.5t-112 -44.5t-112 44.5z" />
    <glyph glyph-name="Edotaccent" unicode="&#x116;" horiz-adv-x="694" 
d="M654 0h-550v720h540l-16 -54h-464v-259h318v-54h-318v-299h474zM401 894q12 -12 12 -31t-12 -31t-31 -12t-31 12t-12 31t12 31t31 12t31 -12z" />
    <glyph glyph-name="edotaccent" unicode="&#x117;" horiz-adv-x="647" 
d="M606 254h-491q4 -63 34.5 -111.5t82.5 -75.5t119 -27q60 0 107.5 20t77.5 53l38 -40q-33 -39 -91 -62.5t-134 -23.5q-87 0 -153.5 36.5t-103 101t-36.5 145.5t35.5 146t99 102t142.5 37q81 0 143.5 -37.5t97 -102t34.5 -142.5q0 -3 -2 -19zM229.5 477.5
q-46.5 -24.5 -76.5 -70t-36 -105.5h431q-4 55 -32 101t-75.5 72.5t-107.5 26.5q-57 0 -103.5 -24.5zM364 716q12 -12 12 -31t-12 -31t-31 -12t-31 12t-12 31t12 31t31 12t31 -12z" />
    <glyph glyph-name="Eogonek" unicode="&#x118;" horiz-adv-x="693" 
d="M603 -119l26 -36q-42 -39 -108 -39q-42 0 -69 21.5t-27 60.5q0 28 20.5 59.5t66.5 52.5h-408v720h540l-16 -54h-464v-259h325v-54h-325v-299h474l15 -53h-12q-46 -2 -83.5 -19.5t-58.5 -41t-21 -44.5t14 -32t35 -11q42 0 76 28z" />
    <glyph glyph-name="eogonek" unicode="&#x119;" horiz-adv-x="640" 
d="M600 253h-484q3 -63 33.5 -111.5t82.5 -75t119 -26.5q57 0 104 20t76 52l37 -39q-15 -17 -34.5 -30t-57.5 -35q-52 -29 -78.5 -52t-26.5 -56q0 -22 17 -34.5t41 -12.5q40 0 74 28l24 -36q-40 -39 -105 -39q-45 0 -75 22.5t-30 63.5q0 54 62 97q-22 -2 -32 -2
q-87 0 -153 36.5t-102 100.5t-36 146q0 81 35.5 146t98 101.5t140.5 36.5q80 0 141.5 -37.5t95.5 -101.5t34 -142q0 -11 -1 -20zM228 476.5q-46 -24.5 -75.5 -69.5t-35.5 -105h424q-4 55 -31.5 100.5t-74 72t-105.5 26.5q-56 0 -102 -24.5z" />
    <glyph glyph-name="Ecaron" unicode="&#x11a;" horiz-adv-x="694" 
d="M654 0h-550v720h540l-16 -54h-464v-259h318v-54h-318v-299h474zM531 947l-129 -157h-65l-128 157h57l104 -114l104 114h57z" />
    <glyph glyph-name="ecaron" unicode="&#x11b;" horiz-adv-x="647" 
d="M606 254h-491q4 -63 34.5 -111.5t82.5 -75.5t119 -27q60 0 107.5 20t77.5 53l38 -40q-33 -39 -91 -62.5t-134 -23.5q-87 0 -153.5 36.5t-103 101t-36.5 145.5t35.5 146t99 102t142.5 37q81 0 143.5 -37.5t97 -102t34.5 -142.5q0 -3 -2 -19zM229.5 477.5
q-46.5 -24.5 -76.5 -70t-36 -105.5h431q-4 55 -32 101t-75.5 72.5t-107.5 26.5q-57 0 -103.5 -24.5zM494 769l-129 -157h-65l-128 157h57l104 -114l104 114h57z" />
    <glyph glyph-name="Gcircumflex" unicode="&#x11c;" horiz-adv-x="820" 
d="M745 76q-50 -46 -124 -67.5t-154 -21.5q-121 0 -214 48t-143.5 132.5t-50.5 191.5t50.5 192.5t140.5 133.5t204 48q84 0 153 -25.5t110 -64.5l-38 -44q-36 33 -96 56t-132 23q-94 0 -169.5 -41t-118 -113.5t-42.5 -164.5t43 -164t121.5 -112.5t183.5 -40.5q61 0 117.5 15
t99.5 46v233h-245v53h304v-313zM538 790l-104 114l-104 -114h-57l128 157h65l129 -157h-57z" />
    <glyph glyph-name="gcircumflex" unicode="&#x11d;" horiz-adv-x="678" 
d="M593 542v-493q0 -72 -34 -125.5t-96 -82.5t-144 -29q-131 0 -221 53l26 50q83 -50 195 -50q99 0 157.5 49.5t58.5 137.5v81q-34 -54 -92 -84t-127 -30q-74 0 -135.5 35.5t-96.5 97t-35 135.5t35 135t96.5 97t135.5 36q70 0 128.5 -31t92.5 -87v105h56zM429.5 98.5
q50.5 26.5 80.5 75t30 113.5q0 64 -30 113t-80.5 75.5t-110.5 26.5q-58 0 -106.5 -28.5t-76.5 -78t-28 -108.5q0 -60 28 -109t76.5 -77.5t106.5 -28.5q60 0 110.5 26.5zM439 612l-104 114l-104 -114h-57l128 157h65l129 -157h-57z" />
    <glyph glyph-name="Gbreve" unicode="&#x11e;" horiz-adv-x="820" 
d="M745 76q-50 -46 -124 -67.5t-154 -21.5q-121 0 -214 48t-143.5 132.5t-50.5 191.5t50.5 192.5t140.5 133.5t204 48q84 0 153 -25.5t110 -64.5l-38 -44q-36 33 -96 56t-132 23q-94 0 -169.5 -41t-118 -113.5t-42.5 -164.5t43 -164t121.5 -112.5t183.5 -40.5q61 0 117.5 15
t99.5 46v233h-245v53h304v-313zM322 832.5q-44 44.5 -44 114.5h46q1 -49 32 -80t78 -31t78 31t32 80h46q0 -70 -44 -114.5t-112 -44.5t-112 44.5z" />
    <glyph glyph-name="gbreve" unicode="&#x11f;" horiz-adv-x="678" 
d="M593 542v-493q0 -72 -34 -125.5t-96 -82.5t-144 -29q-131 0 -221 53l26 50q83 -50 195 -50q99 0 157.5 49.5t58.5 137.5v81q-34 -54 -92 -84t-127 -30q-74 0 -135.5 35.5t-96.5 97t-35 135.5t35 135t96.5 97t135.5 36q70 0 128.5 -31t92.5 -87v105h56zM429.5 98.5
q50.5 26.5 80.5 75t30 113.5q0 64 -30 113t-80.5 75.5t-110.5 26.5q-58 0 -106.5 -28.5t-76.5 -78t-28 -108.5q0 -60 28 -109t76.5 -77.5t106.5 -28.5q60 0 110.5 26.5zM223 654.5q-44 44.5 -44 114.5h46q1 -49 32 -80t78 -31t78 31t32 80h46q0 -70 -44 -114.5t-112 -44.5
t-112 44.5z" />
    <glyph glyph-name="Gdotaccent" unicode="&#x120;" horiz-adv-x="820" 
d="M745 76q-50 -46 -124 -67.5t-154 -21.5q-121 0 -214 48t-143.5 132.5t-50.5 191.5t50.5 192.5t140.5 133.5t204 48q84 0 153 -25.5t110 -64.5l-38 -44q-36 33 -96 56t-132 23q-94 0 -169.5 -41t-118 -113.5t-42.5 -164.5t43 -164t121.5 -112.5t183.5 -40.5q61 0 117.5 15
t99.5 46v233h-245v53h304v-313zM465 894q12 -12 12 -31t-12 -31t-31 -12t-31 12t-12 31t12 31t31 12t31 -12z" />
    <glyph glyph-name="gdotaccent" unicode="&#x121;" horiz-adv-x="678" 
d="M593 542v-493q0 -72 -34 -125.5t-96 -82.5t-144 -29q-131 0 -221 53l26 50q83 -50 195 -50q99 0 157.5 49.5t58.5 137.5v81q-34 -54 -92 -84t-127 -30q-74 0 -135.5 35.5t-96.5 97t-35 135.5t35 135t96.5 97t135.5 36q70 0 128.5 -31t92.5 -87v105h56zM429.5 98.5
q50.5 26.5 80.5 75t30 113.5q0 64 -30 113t-80.5 75.5t-110.5 26.5q-58 0 -106.5 -28.5t-76.5 -78t-28 -108.5q0 -60 28 -109t76.5 -77.5t106.5 -28.5q60 0 110.5 26.5zM366 716q12 -12 12 -31t-12 -31t-31 -12t-31 12t-12 31t12 31t31 12t31 -12z" />
    <glyph glyph-name="Gcommaaccent" unicode="&#x122;" horiz-adv-x="820" 
d="M745 76q-50 -46 -124 -67.5t-154 -21.5q-121 0 -214 48t-143.5 132.5t-50.5 191.5t50.5 192.5t140.5 133.5t204 48q84 0 153 -25.5t110 -64.5l-38 -44q-36 33 -96 56t-132 23q-94 0 -169.5 -41t-118 -113.5t-42.5 -164.5t43 -164t121.5 -112.5t183.5 -40.5q61 0 117.5 15
t99.5 46v233h-245v53h304v-313zM411 -65h68l-62 -146h-41z" />
    <glyph glyph-name="gcommaaccent" unicode="&#x123;" horiz-adv-x="678" 
d="M593 542v-493q0 -72 -34 -125.5t-96 -82.5t-144 -29q-131 0 -221 53l26 50q83 -50 195 -50q99 0 157.5 49.5t58.5 137.5v81q-34 -54 -92 -84t-127 -30q-74 0 -135.5 35.5t-96.5 97t-35 135.5t35 135t96.5 97t135.5 36q70 0 128.5 -31t92.5 -87v105h56zM429.5 98.5
q50.5 26.5 80.5 75t30 113.5q0 64 -30 113t-80.5 75.5t-110.5 26.5q-58 0 -106.5 -28.5t-76.5 -78t-28 -108.5q0 -60 28 -109t76.5 -77.5t106.5 -28.5q60 0 110.5 26.5zM353 611h-68l60 158h40z" />
    <glyph glyph-name="Hcircumflex" unicode="&#x124;" horiz-adv-x="836" 
d="M732 720v-720h-60v356h-508v-356h-60v720h60v-310h508v310h60zM522 790l-104 114l-104 -114h-57l128 157h65l129 -157h-57z" />
    <glyph glyph-name="hcircumflex" unicode="&#x125;" horiz-adv-x="663" 
d="M519.5 500q58.5 -55 58.5 -149v-351h-58v342q0 74 -43.5 116.5t-124.5 42.5q-59 0 -104 -23t-70 -61.5t-25 -84.5v-332h-58v752h58v-298q36 52 90.5 76.5t118.5 24.5q99 0 157.5 -55zM228 773l-104 114l-104 -114h-57l128 157h65l129 -157h-57z" />
    <glyph glyph-name="Hbar" unicode="&#x126;" horiz-adv-x="864" 
d="M843 532h-95v-532h-60v352h-511v-352h-60v532h-96v52h96v136h60v-136h511v136h60v-136h95v-52zM688 532h-511v-126h511v126z" />
    <glyph glyph-name="hbar" unicode="&#x127;" horiz-adv-x="666" 
d="M522.5 498q58.5 -55 58.5 -148v-350h-58v341q0 73 -43.5 115t-123.5 42q-59 0 -104.5 -22.5t-70 -60.5t-24.5 -85v-330h-58v623h-89v47h89v82h58v-82h215v-47h-215v-171q35 52 90 76.5t116 24.5q101 0 159.5 -55z" />
    <glyph glyph-name="Itilde" unicode="&#x128;" horiz-adv-x="280" 
d="M154.5 812.5q-16.5 13.5 -32.5 39.5q-13 19 -23 28t-25 9q-24 0 -39.5 -23.5t-17.5 -63.5h-45q1 61 28.5 98t75.5 37q31 0 47.5 -13.5t33.5 -40.5q13 -19 22.5 -28t24.5 -9q24 0 39.5 23.5t16.5 63.5h46q-1 -61 -28.5 -97.5t-75.5 -36.5q-31 0 -47.5 13.5zM170 720v-720
h-60v720h60z" />
    <glyph glyph-name="itilde" unicode="&#x129;" horiz-adv-x="256" 
d="M142.5 634.5q-16.5 13.5 -32.5 39.5q-13 19 -23 28t-25 9q-24 0 -39.5 -23.5t-17.5 -63.5h-45q1 61 28.5 98t75.5 37q31 0 47.5 -13.5t33.5 -40.5q13 -19 22.5 -28t24.5 -9q24 0 39.5 23.5t16.5 63.5h46q-1 -61 -28.5 -97.5t-75.5 -36.5q-31 0 -47.5 13.5zM99 542h58
v-542h-58v542z" />
    <glyph glyph-name="Imacron" unicode="&#x12a;" horiz-adv-x="280" 
d="M170 720v-720h-60v720h60zM-12 872h304v-48h-304v48z" />
    <glyph glyph-name="imacron" unicode="&#x12b;" horiz-adv-x="263" 
d="M19 698h218v-48h-218v48zM102 542h58v-542h-58v542z" />
    <glyph glyph-name="Ibreve" unicode="&#x12c;" horiz-adv-x="280" 
d="M170 720v-720h-60v720h60zM28 832.5q-44 44.5 -44 114.5h46q1 -49 32 -80t78 -31t78 31t32 80h46q0 -70 -44 -114.5t-112 -44.5t-112 44.5z" />
    <glyph glyph-name="ibreve" unicode="&#x12d;" horiz-adv-x="256" 
d="M99 542h58v-542h-58v542zM16 654.5q-44 44.5 -44 114.5h46q1 -49 32 -80t78 -31t78 31t32 80h46q0 -70 -44 -114.5t-112 -44.5t-112 44.5z" />
    <glyph glyph-name="Iogonek" unicode="&#x12e;" horiz-adv-x="279" 
d="M223 -159q-38 -35 -97 -35q-42 0 -69.5 23t-27.5 62q0 35 21 66t60 55v708h60v-720q-48 -26 -67.5 -50.5t-19.5 -51.5q0 -20 14 -32.5t36 -12.5q34 0 65 25z" />
    <glyph glyph-name="iogonek" unicode="&#x12f;" horiz-adv-x="260" 
d="M111 654q-12 12 -12 31t12 31t31 12t31 -12t12 -31t-12 -31t-31 -12t-31 12zM224 -159q-38 -35 -97 -35q-42 0 -69 23t-27 62q0 35 21.5 66.5t60.5 55.5v529h58v-542q-48 -26 -67.5 -51t-19.5 -51q0 -20 14.5 -32.5t36.5 -12.5q33 0 64 25z" />
    <glyph glyph-name="Idotaccent" unicode="&#x130;" horiz-adv-x="280" 
d="M170 720v-720h-60v720h60zM171 894q12 -12 12 -31t-12 -31t-31 -12t-31 12t-12 31t12 31t31 12t31 -12z" />
    <glyph glyph-name="dotlessi" unicode="&#x131;" horiz-adv-x="256" 
d="M99 542h58v-542h-58v542z" />
    <glyph glyph-name="Jcircumflex" unicode="&#x134;" horiz-adv-x="570" 
d="M480 720v-510q0 -104 -62 -163.5t-163 -59.5q-99 0 -161 57.5t-64 158.5h59q3 -79 48.5 -120t117.5 -41q76 0 120.5 45t44.5 125v508h60zM554 790l-104 114l-104 -114h-57l128 157h65l129 -157h-57z" />
    <glyph glyph-name="jcircumflex" unicode="&#x135;" horiz-adv-x="255" 
d="M-29 -177v51q10 -4 25 -6.5t26 -2.5q37 0 58.5 20.5t21.5 56.5v600h58v-603q0 -58 -35.5 -92t-95.5 -34q-34 0 -58 10zM235 612l-104 114l-104 -114h-57l128 157h65l129 -157h-57z" />
    <glyph glyph-name="Kcommaaccent" unicode="&#x136;" horiz-adv-x="776" 
d="M374 399l-210 -193v-206h-60v720h60v-442l480 442h78l-306 -281l327 -439h-73zM354 -65h68l-62 -146h-41z" />
    <glyph glyph-name="kcommaaccent" unicode="&#x137;" horiz-adv-x="630" 
d="M303 287l-150 -131v-156h-58v752h58v-529l365 319h77l-250 -219l268 -323h-73zM272 -65h68l-62 -146h-41z" />
    <glyph glyph-name="kgreenlandic" unicode="&#x138;" horiz-adv-x="630" 
d="M303 287l-150 -131v-156h-58v542h58v-319l365 319h77l-250 -219l268 -323h-73z" />
    <glyph glyph-name="Lacute" unicode="&#x139;" horiz-adv-x="665" 
d="M623 54v-54h-519v720h60v-666h459zM136 789h-59l125 158h68v-7z" />
    <glyph glyph-name="lacute" unicode="&#x13a;" horiz-adv-x="282" 
d="M157 752v-650q0 -28 16 -42.5t43 -14.5q23 0 41 7v-51q-21 -8 -45 -8q-54 0 -83.5 27t-29.5 77v655h58zM137 821h-59l125 158h68v-7z" />
    <glyph glyph-name="Lcommaaccent" unicode="&#x13b;" horiz-adv-x="665" 
d="M623 54v-54h-519v720h60v-666h459zM339 -65h68l-62 -146h-41z" />
    <glyph glyph-name="lcommaaccent" unicode="&#x13c;" horiz-adv-x="282" 
d="M157 752v-650q0 -28 16 -42.5t43 -14.5q23 0 41 7v-51q-21 -8 -45 -8q-54 0 -83.5 27t-29.5 77v655h58zM147 -65h68l-62 -146h-41z" />
    <glyph glyph-name="Lcaron" unicode="&#x13d;" horiz-adv-x="665" 
d="M623 54v-54h-519v720h60v-666h459zM396 752l-49 -220h-44l37 220h56z" />
    <glyph glyph-name="lcaron" unicode="&#x13e;" horiz-adv-x="282" 
d="M157 752v-650q0 -28 16 -42.5t43 -14.5q23 0 41 7v-51q-21 -8 -45 -8q-54 0 -83.5 27t-29.5 77v655h58zM316 752l-49 -220h-44l37 220h56z" />
    <glyph glyph-name="Ldot" unicode="&#x13f;" horiz-adv-x="665" 
d="M623 54v-54h-519v720h60v-666h459zM447.5 374q-12.5 13 -12.5 33t12.5 33t32.5 13t32.5 -13t12.5 -33t-12.5 -33t-32.5 -13t-32.5 13z" />
    <glyph glyph-name="ldot" unicode="&#x140;" horiz-adv-x="312" 
d="M157 752v-650q0 -28 16 -42.5t43 -14.5q23 0 41 7v-51q-21 -8 -45 -8q-54 0 -83.5 27t-29.5 77v655h58zM245.5 353.5q-12.5 12.5 -12.5 32.5t12.5 33t32.5 13t32.5 -13t12.5 -33t-12.5 -32.5t-32.5 -12.5t-32.5 12.5z" />
    <glyph glyph-name="Lslash" unicode="&#x141;" horiz-adv-x="678" 
d="M636 54v-54h-519v275l-102 -51v57l102 51v388h60v-358l258 128v-57l-258 -128v-251h459z" />
    <glyph glyph-name="lslash" unicode="&#x142;" horiz-adv-x="320" 
d="M178 371v-269q0 -28 16 -42.5t43 -14.5q23 0 41 7v-51q-21 -8 -45 -8q-54 0 -83.5 27t-29.5 77v236l-97 -63h-7v54l104 67v361h58v-323l117 75h7v-53z" />
    <glyph glyph-name="Nacute" unicode="&#x143;" horiz-adv-x="820" 
d="M716 720v-720h-66l-488 639v-639h-58v720h67l487 -638v638h58zM414 789h-59l125 158h68v-7z" />
    <glyph glyph-name="nacute" unicode="&#x144;" horiz-adv-x="661" 
d="M517.5 500q58.5 -55 58.5 -149v-351h-58v342q0 74 -43.5 116.5t-123.5 42.5q-58 0 -103.5 -23t-70 -61.5t-24.5 -84.5v-332h-58v542h56v-91q35 54 90.5 79t119.5 25q98 0 156.5 -55zM340 611h-59l125 158h68v-7z" />
    <glyph glyph-name="Ncommaaccent" unicode="&#x145;" horiz-adv-x="820" 
d="M716 720v-720h-66l-488 639v-639h-58v720h67l487 -638v638h58zM389 -65h68l-62 -146h-41z" />
    <glyph glyph-name="ncommaaccent" unicode="&#x146;" horiz-adv-x="661" 
d="M517.5 500q58.5 -55 58.5 -149v-351h-58v342q0 74 -43.5 116.5t-123.5 42.5q-58 0 -103.5 -23t-70 -61.5t-24.5 -84.5v-332h-58v542h56v-91q35 54 90.5 79t119.5 25q98 0 156.5 -55zM315 -65h68l-62 -146h-41z" />
    <glyph glyph-name="Ncaron" unicode="&#x147;" horiz-adv-x="820" 
d="M716 720v-720h-66l-488 639v-639h-58v720h67l487 -638v638h58zM573 947l-129 -157h-65l-128 157h57l104 -114l104 114h57z" />
    <glyph glyph-name="ncaron" unicode="&#x148;" horiz-adv-x="661" 
d="M517.5 500q58.5 -55 58.5 -149v-351h-58v342q0 74 -43.5 116.5t-123.5 42.5q-58 0 -103.5 -23t-70 -61.5t-24.5 -84.5v-332h-58v542h56v-91q35 54 90.5 79t119.5 25q98 0 156.5 -55zM499 769l-129 -157h-65l-128 157h57l104 -114l104 114h57z" />
    <glyph glyph-name="Eng" unicode="&#x14a;" horiz-adv-x="820" 
d="M716 720v-748q0 -74 -45 -116.5t-120 -42.5q-45 0 -75 13v54q33 -14 73 -14q49 0 78.5 29t29.5 79v26l-495 640v-640h-58v720h67l486 -629v629h59z" />
    <glyph glyph-name="eng" unicode="&#x14b;" horiz-adv-x="661" 
d="M517.5 500q58.5 -55 58.5 -149v-412q0 -58 -34.5 -92t-92.5 -34q-36 0 -57 9v52q19 -9 50 -9q36 0 56 20.5t20 56.5v400q0 74 -43.5 116.5t-123.5 42.5q-58 0 -103.5 -23t-70 -61.5t-24.5 -84.5v-332h-58v542h56v-91q35 54 90.5 79t119.5 25q98 0 156.5 -55z" />
    <glyph glyph-name="Omacron" unicode="&#x14c;" horiz-adv-x="862" 
d="M239.5 35q-84.5 48 -132.5 133t-48 192t48 192t132.5 133t191.5 48t191.5 -48t132.5 -133t48 -192t-48 -192t-132.5 -133t-191.5 -48t-191.5 48zM590.5 83q70.5 41 110.5 113.5t40 163.5t-40 163.5t-110.5 113.5t-159.5 41t-159.5 -41t-110.5 -113.5t-40 -163.5
t40 -163.5t110.5 -113.5t159.5 -41t159.5 41zM279 872h304v-48h-304v48z" />
    <glyph glyph-name="omacron" unicode="&#x14d;" horiz-adv-x="674" 
d="M483 24.5q65 37.5 102 102.5t37 144t-37 144t-102 102.5t-146 37.5t-146 -37.5t-102 -102.5t-37 -144t37 -144t102 -102.5t146 -37.5t146 37.5zM451.5 471q51.5 -30 81.5 -83t30 -117t-30 -117t-81.5 -83t-114.5 -30t-114.5 30t-81.5 83t-30 117t30 117t81.5 83t114.5 30
t114.5 -30zM185 694h304v-48h-304v48z" />
    <glyph glyph-name="Obreve" unicode="&#x14e;" horiz-adv-x="862" 
d="M239.5 35q-84.5 48 -132.5 133t-48 192t48 192t132.5 133t191.5 48t191.5 -48t132.5 -133t48 -192t-48 -192t-132.5 -133t-191.5 -48t-191.5 48zM590.5 83q70.5 41 110.5 113.5t40 163.5t-40 163.5t-110.5 113.5t-159.5 41t-159.5 -41t-110.5 -113.5t-40 -163.5
t40 -163.5t110.5 -113.5t159.5 -41t159.5 41zM319 832.5q-44 44.5 -44 114.5h46q1 -49 32 -80t78 -31t78 31t32 80h46q0 -70 -44 -114.5t-112 -44.5t-112 44.5z" />
    <glyph glyph-name="obreve" unicode="&#x14f;" horiz-adv-x="674" 
d="M483 24.5q65 37.5 102 102.5t37 144t-37 144t-102 102.5t-146 37.5t-146 -37.5t-102 -102.5t-37 -144t37 -144t102 -102.5t146 -37.5t146 37.5zM451.5 471q51.5 -30 81.5 -83t30 -117t-30 -117t-81.5 -83t-114.5 -30t-114.5 30t-81.5 83t-30 117t30 117t81.5 83t114.5 30
t114.5 -30zM225 654.5q-44 44.5 -44 114.5h46q1 -49 32 -80t78 -31t78 31t32 80h46q0 -70 -44 -114.5t-112 -44.5t-112 44.5z" />
    <glyph glyph-name="Ohungarumlaut" unicode="&#x150;" horiz-adv-x="862" 
d="M239.5 35q-84.5 48 -132.5 133t-48 192t48 192t132.5 133t191.5 48t191.5 -48t132.5 -133t48 -192t-48 -192t-132.5 -133t-191.5 -48t-191.5 48zM590.5 83q70.5 41 110.5 113.5t40 163.5t-40 163.5t-110.5 113.5t-159.5 41t-159.5 -41t-110.5 -113.5t-40 -163.5
t40 -163.5t110.5 -113.5t159.5 -41t159.5 41zM370 789h-52l78 158h61v-7zM514 789h-52l95 158h60v-7z" />
    <glyph glyph-name="ohungarumlaut" unicode="&#x151;" horiz-adv-x="674" 
d="M483 24.5q65 37.5 102 102.5t37 144t-37 144t-102 102.5t-146 37.5t-146 -37.5t-102 -102.5t-37 -144t37 -144t102 -102.5t146 -37.5t146 37.5zM451.5 471q51.5 -30 81.5 -83t30 -117t-30 -117t-81.5 -83t-114.5 -30t-114.5 30t-81.5 83t-30 117t30 117t81.5 83t114.5 30
t114.5 -30zM276 611h-52l78 158h61v-7zM420 611h-52l95 158h60v-7z" />
    <glyph glyph-name="OE" unicode="&#x152;" horiz-adv-x="1288" 
d="M1248 0h-523v168q-43 -85 -122.5 -133t-182.5 -48t-185 48t-129 133t-47 192t47 192t129 133t185 48t182.5 -48t122.5 -133v168h513l-15 -54h-440v-259h302v-55h-302v-298h450zM578 83q69 41 109 113.5t40 163.5t-40 163.5t-109 113.5t-155 41t-155 -41t-108.5 -113.5
t-39.5 -163.5t39.5 -163.5t108.5 -113.5t155 -41t155 41z" />
    <glyph glyph-name="oe" unicode="&#x153;" horiz-adv-x="1114" 
d="M1073 252h-473q4 -63 33.5 -111t79.5 -74.5t115 -26.5q57 0 103 20t75 52l37 -40q-32 -38 -87.5 -61.5t-126.5 -23.5q-97 0 -164 45t-95 124q-29 -77 -93.5 -123t-150.5 -46q-77 0 -139.5 37.5t-98.5 102.5t-36 144t36 144t98.5 102.5t139.5 37.5q86 0 150.5 -46
t93.5 -124q27 78 90 123.5t149 45.5q79 0 139.5 -37.5t93.5 -101.5t33 -142q0 -11 -2 -21zM436.5 71q49.5 30 78 83t28.5 117t-28.5 117t-78 83t-109.5 30q-59 0 -108.5 -30t-78 -83t-28.5 -117t28.5 -117t78 -83t108.5 -30q60 0 109.5 30zM708 476q-45 -25 -73.5 -70.5
t-34.5 -105.5h415q-4 55 -30.5 101t-72.5 73t-103 27q-56 0 -101 -25z" />
    <glyph glyph-name="Racute" unicode="&#x154;" horiz-adv-x="767" 
d="M424 326h-261v-326h-59v720h359q67 0 116.5 -25.5t76.5 -70.5t27 -101q0 -79 -52.5 -133.5t-140.5 -62.5l230 -327h-71zM163 379h294q77 0 121 39.5t44 103.5t-44 104t-121 40h-294v-287zM377 789h-59l125 158h68v-7z" />
    <glyph glyph-name="racute" unicode="&#x155;" horiz-adv-x="420" 
d="M397 543v-55q-27 7 -55 7q-53 0 -96 -22.5t-68 -63t-25 -91.5v-318h-58v542h56v-101q30 55 82.5 82t107.5 27q31 0 56 -7zM242 611h-59l125 158h68v-7z" />
    <glyph glyph-name="Rcommaaccent" unicode="&#x156;" horiz-adv-x="767" 
d="M424 326h-261v-326h-59v720h359q67 0 116.5 -25.5t76.5 -70.5t27 -101q0 -79 -52.5 -133.5t-140.5 -62.5l230 -327h-71zM163 379h294q77 0 121 39.5t44 103.5t-44 104t-121 40h-294v-287zM352 -65h68l-62 -146h-41z" />
    <glyph glyph-name="rcommaaccent" unicode="&#x157;" horiz-adv-x="420" 
d="M397 543v-55q-27 7 -55 7q-53 0 -96 -22.5t-68 -63t-25 -91.5v-318h-58v542h56v-101q30 55 82.5 82t107.5 27q31 0 56 -7zM101 -65h68l-62 -146h-41z" />
    <glyph glyph-name="Rcaron" unicode="&#x158;" horiz-adv-x="767" 
d="M424 326h-261v-326h-59v720h359q67 0 116.5 -25.5t76.5 -70.5t27 -101q0 -79 -52.5 -133.5t-140.5 -62.5l230 -327h-71zM163 379h294q77 0 121 39.5t44 103.5t-44 104t-121 40h-294v-287zM536 947l-129 -157h-65l-128 157h57l104 -114l104 114h57z" />
    <glyph glyph-name="rcaron" unicode="&#x159;" horiz-adv-x="420" 
d="M397 543v-55q-27 7 -55 7q-53 0 -96 -22.5t-68 -63t-25 -91.5v-318h-58v542h56v-101q30 55 82.5 82t107.5 27q31 0 56 -7zM401 769l-129 -157h-65l-128 157h57l104 -114l104 114h57z" />
    <glyph glyph-name="Sacute" unicode="&#x15a;" horiz-adv-x="692" 
d="M191 17q-80 27 -137 76l40 47q54 -47 122.5 -71t143.5 -24q58 0 106 18.5t76.5 52.5t28.5 79q0 108 -160 139l-149 29q-189 37 -189 172q0 59 36.5 103.5t99.5 69t141 24.5q165 0 262 -91l-37 -44q-50 44 -109 62.5t-117 18.5q-60 0 -109.5 -18t-78 -49.5t-28.5 -72.5
q0 -45 37.5 -74.5t117.5 -45.5l145 -29q98 -19 148 -68.5t50 -122.5q0 -61 -34 -108t-95.5 -73.5t-139.5 -26.5q-91 0 -171 27zM347 789h-59l125 158h68v-7z" />
    <glyph glyph-name="sacute" unicode="&#x15b;" horiz-adv-x="571" 
d="M176.5 63.5q58.5 -21.5 122.5 -21.5q72 0 117.5 29t45.5 77q0 36 -28 58t-85 33l-133 25q-79 15 -115.5 50t-36.5 84q0 44 26.5 79t77 55.5t120.5 20.5q61 0 117.5 -17t101.5 -54l-33 -44q-36 30 -87 46.5t-104 16.5q-71 0 -116 -28.5t-45 -72.5q0 -32 28.5 -51.5
t91.5 -31.5l128 -25q81 -16 115.5 -53.5t34.5 -87.5q0 -47 -28 -83.5t-78.5 -57t-116.5 -20.5q-69 0 -137 21.5t-112 59.5l34 45q36 -31 94.5 -52.5zM294 611h-59l125 158h68v-7z" />
    <glyph glyph-name="Scircumflex" unicode="&#x15c;" horiz-adv-x="692" 
d="M191 17q-80 27 -137 76l40 47q54 -47 122.5 -71t143.5 -24q58 0 106 18.5t76.5 52.5t28.5 79q0 108 -160 139l-149 29q-189 37 -189 172q0 59 36.5 103.5t99.5 69t141 24.5q165 0 262 -91l-37 -44q-50 44 -109 62.5t-117 18.5q-60 0 -109.5 -18t-78 -49.5t-28.5 -72.5
q0 -45 37.5 -74.5t117.5 -45.5l145 -29q98 -19 148 -68.5t50 -122.5q0 -61 -34 -108t-95.5 -73.5t-139.5 -26.5q-91 0 -171 27zM449 790l-104 114l-104 -114h-57l128 157h65l129 -157h-57z" />
    <glyph glyph-name="scircumflex" unicode="&#x15d;" horiz-adv-x="571" 
d="M176.5 63.5q58.5 -21.5 122.5 -21.5q72 0 117.5 29t45.5 77q0 36 -28 58t-85 33l-133 25q-79 15 -115.5 50t-36.5 84q0 44 26.5 79t77 55.5t120.5 20.5q61 0 117.5 -17t101.5 -54l-33 -44q-36 30 -87 46.5t-104 16.5q-71 0 -116 -28.5t-45 -72.5q0 -32 28.5 -51.5
t91.5 -31.5l128 -25q81 -16 115.5 -53.5t34.5 -87.5q0 -47 -28 -83.5t-78.5 -57t-116.5 -20.5q-69 0 -137 21.5t-112 59.5l34 45q36 -31 94.5 -52.5zM396 612l-104 114l-104 -114h-57l128 157h65l129 -157h-57z" />
    <glyph glyph-name="Scedilla" unicode="&#x15e;" horiz-adv-x="692" 
d="M191 17q-80 27 -137 76l40 47q54 -47 122.5 -71t143.5 -24q58 0 106 18.5t76.5 52.5t28.5 79q0 108 -160 139l-149 29q-189 37 -189 172q0 59 36.5 103.5t99.5 69t141 24.5q165 0 262 -91l-37 -44q-50 44 -109 62.5t-117 18.5q-60 0 -109.5 -18t-78 -49.5t-28.5 -72.5
q0 -45 37.5 -74.5t117.5 -45.5l145 -29q98 -19 148 -68.5t50 -122.5q0 -61 -34 -108t-95.5 -73.5t-139.5 -26.5q-91 0 -171 27zM443 -68q31 -22 31 -58q0 -40 -36.5 -63.5t-98.5 -23.5q-43 0 -80.5 11t-61.5 27l23 35q27 -17 58.5 -25t60.5 -8q39 0 60.5 12t21.5 33
q0 20 -20 32.5t-54 12.5q-36 0 -66 -14l-20 15l74 100h54l-62 -69q17 5 36 5q49 0 80 -22z" />
    <glyph glyph-name="scedilla" unicode="&#x15f;" horiz-adv-x="571" 
d="M176.5 63.5q58.5 -21.5 122.5 -21.5q72 0 117.5 29t45.5 77q0 36 -28 58t-85 33l-133 25q-79 15 -115.5 50t-36.5 84q0 44 26.5 79t77 55.5t120.5 20.5q61 0 117.5 -17t101.5 -54l-33 -44q-36 30 -87 46.5t-104 16.5q-71 0 -116 -28.5t-45 -72.5q0 -32 28.5 -51.5
t91.5 -31.5l128 -25q81 -16 115.5 -53.5t34.5 -87.5q0 -47 -28 -83.5t-78.5 -57t-116.5 -20.5q-69 0 -137 21.5t-112 59.5l34 45q36 -31 94.5 -52.5zM390 -68q31 -22 31 -58q0 -40 -36.5 -63.5t-98.5 -23.5q-43 0 -80.5 11t-61.5 27l23 35q27 -17 58.5 -25t60.5 -8
q39 0 60.5 12t21.5 33q0 20 -20 32.5t-54 12.5q-36 0 -66 -14l-20 15l74 100h54l-62 -69q17 5 36 5q49 0 80 -22z" />
    <glyph glyph-name="Scaron" unicode="&#x160;" horiz-adv-x="692" 
d="M191 17q-80 27 -137 76l40 47q54 -47 122.5 -71t143.5 -24q58 0 106 18.5t76.5 52.5t28.5 79q0 108 -160 139l-149 29q-189 37 -189 172q0 59 36.5 103.5t99.5 69t141 24.5q165 0 262 -91l-37 -44q-50 44 -109 62.5t-117 18.5q-60 0 -109.5 -18t-78 -49.5t-28.5 -72.5
q0 -45 37.5 -74.5t117.5 -45.5l145 -29q98 -19 148 -68.5t50 -122.5q0 -61 -34 -108t-95.5 -73.5t-139.5 -26.5q-91 0 -171 27zM506 947l-129 -157h-65l-128 157h57l104 -114l104 114h57z" />
    <glyph glyph-name="scaron" unicode="&#x161;" horiz-adv-x="571" 
d="M176.5 63.5q58.5 -21.5 122.5 -21.5q72 0 117.5 29t45.5 77q0 36 -28 58t-85 33l-133 25q-79 15 -115.5 50t-36.5 84q0 44 26.5 79t77 55.5t120.5 20.5q61 0 117.5 -17t101.5 -54l-33 -44q-36 30 -87 46.5t-104 16.5q-71 0 -116 -28.5t-45 -72.5q0 -32 28.5 -51.5
t91.5 -31.5l128 -25q81 -16 115.5 -53.5t34.5 -87.5q0 -47 -28 -83.5t-78.5 -57t-116.5 -20.5q-69 0 -137 21.5t-112 59.5l34 45q36 -31 94.5 -52.5zM453 769l-129 -157h-65l-128 157h57l104 -114l104 114h57z" />
    <glyph glyph-name="uni0162" unicode="&#x162;" horiz-adv-x="650" 
d="M327 -50q22 4 36 4q50 0 82 -22t32 -58q0 -40 -37.5 -63.5t-101.5 -23.5q-44 0 -82.5 11t-63.5 27l23 35q28 -17 60.5 -25t62.5 -8q41 0 63.5 12t22.5 33q0 20 -20.5 32.5t-56.5 12.5q-38 0 -68 -14l-21 15l68 82h-7v666h-264v54h588v-54h-264v-666z" />
    <glyph glyph-name="uni0163" unicode="&#x163;" horiz-adv-x="415" 
d="M382 63v-54q-16 -9 -40.5 -14t-50.5 -5q-82 0 -128.5 46t-46.5 126v330h-92v50h92v140l58 27v-167h204v-50h-204v-324q0 -59 32.5 -91.5t88.5 -32.5q46 0 87 19zM321 -68q31 -22 31 -58q0 -40 -36.5 -63.5t-98.5 -23.5q-43 0 -80.5 11t-61.5 27l23 35q27 -17 58.5 -25
t60.5 -8q39 0 60.5 12t21.5 33q0 20 -20 32.5t-54 12.5q-36 0 -66 -14l-20 15l74 100h54l-62 -69q17 5 36 5q49 0 80 -22z" />
    <glyph glyph-name="Tcaron" unicode="&#x164;" horiz-adv-x="670" 
d="M629 666h-264v-666h-60v666h-264v54h588v-54zM496 947l-129 -157h-65l-128 157h57l104 -114l104 114h57z" />
    <glyph glyph-name="tcaron" unicode="&#x165;" horiz-adv-x="409" 
d="M300 619h-44l35 209h56zM382 63v-54q-16 -9 -40.5 -14t-50.5 -5q-82 0 -128.5 46t-46.5 126v330h-92v50h92v140l58 27v-167h204v-50h-204v-324q0 -59 32.5 -91.5t88.5 -32.5q46 0 87 19z" />
    <glyph glyph-name="Tbar" unicode="&#x166;" horiz-adv-x="690" 
d="M375 666v-231h184v-52h-184v-383h-60v383h-184v52h184v231h-264v54h588v-54h-264z" />
    <glyph glyph-name="tbar" unicode="&#x167;" horiz-adv-x="429" 
d="M396 63v-54q-16 -9 -40.5 -14t-50.5 -5q-82 0 -128.5 46t-46.5 126v166h-106v47h106v117h-92v50h92v140l58 27v-167h204v-50h-204v-117h190v-47h-190v-160q0 -59 32.5 -91.5t88.5 -32.5q46 0 87 19z" />
    <glyph glyph-name="Utilde" unicode="&#x168;" horiz-adv-x="774" 
d="M232.5 20q-67.5 33 -105 94t-37.5 142v464h60v-459q0 -67 30 -116.5t83.5 -76t123.5 -26.5t123.5 26.5t83.5 76t30 116.5v459h60v-464q0 -81 -37.5 -142t-105 -94t-154.5 -33t-154.5 33zM416 812.5q-22 13.5 -48 38.5q-20 19 -34 28.5t-31 9.5q-26 0 -41.5 -23.5
t-17.5 -63.5h-48q2 61 30.5 98t77.5 37q30 0 51 -13t49 -39q20 -20 34 -29.5t31 -9.5q26 0 41.5 23.5t17.5 63.5h48q-2 -61 -30.5 -97.5t-77.5 -36.5q-30 0 -52 13.5z" />
    <glyph glyph-name="utilde" unicode="&#x169;" horiz-adv-x="657" 
d="M562 542v-542h-56v91q-35 -54 -90 -79t-118 -25q-97 0 -155 55.5t-58 148.5v351h58v-342q0 -74 43 -116.5t122 -42.5q57 0 102 23t69.5 61.5t24.5 84.5v332h58zM353 634.5q-22 13.5 -48 38.5q-20 19 -34 28.5t-31 9.5q-26 0 -41.5 -23.5t-17.5 -63.5h-48q2 61 30.5 98
t77.5 37q30 0 51 -13t49 -39q20 -20 34 -29.5t31 -9.5q26 0 41.5 23.5t17.5 63.5h48q-2 -61 -30.5 -97.5t-77.5 -36.5q-30 0 -52 13.5z" />
    <glyph glyph-name="Umacron" unicode="&#x16a;" horiz-adv-x="774" 
d="M232.5 20q-67.5 33 -105 94t-37.5 142v464h60v-459q0 -67 30 -116.5t83.5 -76t123.5 -26.5t123.5 26.5t83.5 76t30 116.5v459h60v-464q0 -81 -37.5 -142t-105 -94t-154.5 -33t-154.5 33zM235 872h304v-48h-304v48z" />
    <glyph glyph-name="umacron" unicode="&#x16b;" horiz-adv-x="657" 
d="M562 542v-542h-56v91q-35 -54 -90 -79t-118 -25q-97 0 -155 55.5t-58 148.5v351h58v-342q0 -74 43 -116.5t122 -42.5q57 0 102 23t69.5 61.5t24.5 84.5v332h58zM172 694h304v-48h-304v48z" />
    <glyph glyph-name="Ubreve" unicode="&#x16c;" horiz-adv-x="774" 
d="M232.5 20q-67.5 33 -105 94t-37.5 142v464h60v-459q0 -67 30 -116.5t83.5 -76t123.5 -26.5t123.5 26.5t83.5 76t30 116.5v459h60v-464q0 -81 -37.5 -142t-105 -94t-154.5 -33t-154.5 33zM275 832.5q-44 44.5 -44 114.5h46q1 -49 32 -80t78 -31t78 31t32 80h46
q0 -70 -44 -114.5t-112 -44.5t-112 44.5z" />
    <glyph glyph-name="ubreve" unicode="&#x16d;" horiz-adv-x="657" 
d="M562 542v-542h-56v91q-35 -54 -90 -79t-118 -25q-97 0 -155 55.5t-58 148.5v351h58v-342q0 -74 43 -116.5t122 -42.5q57 0 102 23t69.5 61.5t24.5 84.5v332h58zM212 654.5q-44 44.5 -44 114.5h46q1 -49 32 -80t78 -31t78 31t32 80h46q0 -70 -44 -114.5t-112 -44.5
t-112 44.5z" />
    <glyph glyph-name="Uring" unicode="&#x16e;" horiz-adv-x="774" 
d="M232.5 20q-67.5 33 -105 94t-37.5 142v464h60v-459q0 -67 30 -116.5t83.5 -76t123.5 -26.5t123.5 26.5t83.5 76t30 116.5v459h60v-464q0 -81 -37.5 -142t-105 -94t-154.5 -33t-154.5 33zM290.5 824.5q-37.5 35.5 -37.5 88.5q0 54 37.5 89.5t94.5 35.5q58 0 95 -35.5
t37 -89.5q0 -53 -37 -88.5t-95 -35.5q-57 0 -94.5 35.5zM446.5 853.5q24.5 23.5 24.5 59.5q0 37 -24.5 60.5t-61.5 23.5q-36 0 -60.5 -24t-24.5 -60t24.5 -59.5t60.5 -23.5q37 0 61.5 23.5z" />
    <glyph glyph-name="uring" unicode="&#x16f;" horiz-adv-x="657" 
d="M562 542v-542h-56v91q-35 -54 -90 -79t-118 -25q-97 0 -155 55.5t-58 148.5v351h58v-342q0 -74 43 -116.5t122 -42.5q57 0 102 23t69.5 61.5t24.5 84.5v332h58zM227.5 646.5q-37.5 35.5 -37.5 88.5q0 54 37.5 89.5t94.5 35.5q58 0 95 -35.5t37 -89.5q0 -53 -37 -88.5
t-95 -35.5q-57 0 -94.5 35.5zM383.5 675.5q24.5 23.5 24.5 59.5q0 37 -24.5 60.5t-61.5 23.5q-36 0 -60.5 -24t-24.5 -60t24.5 -59.5t60.5 -23.5q37 0 61.5 23.5z" />
    <glyph glyph-name="Uhungarumlaut" unicode="&#x170;" horiz-adv-x="774" 
d="M232.5 20q-67.5 33 -105 94t-37.5 142v464h60v-459q0 -67 30 -116.5t83.5 -76t123.5 -26.5t123.5 26.5t83.5 76t30 116.5v459h60v-464q0 -81 -37.5 -142t-105 -94t-154.5 -33t-154.5 33zM326 789h-52l78 158h61v-7zM470 789h-52l95 158h60v-7z" />
    <glyph glyph-name="uhungarumlaut" unicode="&#x171;" horiz-adv-x="657" 
d="M562 542v-542h-56v91q-35 -54 -90 -79t-118 -25q-97 0 -155 55.5t-58 148.5v351h58v-342q0 -74 43 -116.5t122 -42.5q57 0 102 23t69.5 61.5t24.5 84.5v332h58zM263 611h-52l78 158h61v-7zM407 611h-52l95 158h60v-7z" />
    <glyph glyph-name="Uogonek" unicode="&#x172;" horiz-adv-x="775" 
d="M662.5 141.5q-22.5 -49.5 -52.5 -83t-74 -72.5q-37 -33 -52.5 -51.5t-15.5 -38.5q0 -21 16 -32t43 -11q45 0 79 28l25 -36q-42 -39 -112 -39q-46 0 -75.5 21.5t-29.5 60.5q0 28 22 56.5t59 57.5q-49 -15 -107 -15q-88 0 -155.5 33t-105 94t-37.5 142v464h60v-459
q0 -67 30 -116.5t84 -76t124 -26.5q111 0 174 57.5t63 161.5v459h60v-464v-1v-1q0 -63 -22.5 -112.5z" />
    <glyph glyph-name="uogonek" unicode="&#x173;" horiz-adv-x="661" 
d="M578 -155q-40 -39 -107 -39q-42 0 -69 21t-27 59q0 76 135 130v79q-35 -56 -90 -82t-118 -26q-101 0 -159 55t-58 148v352h58v-343q0 -74 43.5 -115.5t123.5 -41.5q59 0 104 22.5t69.5 60.5t24.5 85v332h58v-541q-81 -31 -109 -56.5t-28 -48.5q0 -20 13.5 -31.5
t35.5 -11.5q41 0 75 28z" />
    <glyph glyph-name="Wcircumflex" unicode="&#x174;" horiz-adv-x="1153" 
d="M1104 720l-252 -720h-74l-203 640l-195 -640h-75l-256 720h64l230 -657l200 654h66l207 -653l226 656h62zM679 790l-104 114l-104 -114h-57l128 157h65l129 -157h-57z" />
    <glyph glyph-name="wcircumflex" unicode="&#x175;" horiz-adv-x="945" 
d="M916 542l-209 -542h-69l-164 463l-164 -463h-70l-210 542h64l181 -484l170 478h59l170 -481l180 487h62zM578 612l-104 114l-104 -114h-57l128 157h65l129 -157h-57z" />
    <glyph glyph-name="Ycircumflex" unicode="&#x176;" horiz-adv-x="720" 
d="M391 248v-248h-60v247l-304 473h70l264 -419l264 419h68zM464 790l-104 114l-104 -114h-57l128 157h65l129 -157h-57z" />
    <glyph glyph-name="ycircumflex" unicode="&#x177;" horiz-adv-x="599" 
d="M579 542l-285 -619q-52 -113 -160 -113q-53 0 -103 22l20 51q42 -21 81 -21t67 20.5t48 64.5l26 56l-250 539h65l215 -478l213 478h63zM405 612l-104 114l-104 -114h-57l128 157h65l129 -157h-57z" />
    <glyph glyph-name="Ydieresis" unicode="&#x178;" horiz-adv-x="720" 
d="M391 248v-248h-60v247l-304 473h70l264 -419l264 419h68zM223 832q-12 12 -12 31t12 31t31 12t31 -12t12 -31t-12 -31t-31 -12t-31 12zM435 832q-12 12 -12 31t12 31t31 12t31 -12t12 -31t-12 -31t-31 -12t-31 12z" />
    <glyph glyph-name="Zacute" unicode="&#x179;" horiz-adv-x="688" 
d="M630 53v-53h-572v46l480 621h-457v53h532v-47l-479 -620h496zM353 789h-59l125 158h68v-7z" />
    <glyph glyph-name="zacute" unicode="&#x17a;" horiz-adv-x="561" 
d="M508 49v-49h-453v40l366 453h-349v49h423v-40l-366 -453h379zM287 611h-59l125 158h68v-7z" />
    <glyph glyph-name="Zdotaccent" unicode="&#x17b;" horiz-adv-x="688" 
d="M630 53v-53h-572v46l480 621h-457v53h532v-47l-479 -620h496zM382 894q12 -12 12 -31t-12 -31t-31 -12t-31 12t-12 31t12 31t31 12t31 -12z" />
    <glyph glyph-name="zdotaccent" unicode="&#x17c;" horiz-adv-x="561" 
d="M508 49v-49h-453v40l366 453h-349v49h423v-40l-366 -453h379zM316 716q12 -12 12 -31t-12 -31t-31 -12t-31 12t-12 31t12 31t31 12t31 -12z" />
    <glyph glyph-name="Zcaron" unicode="&#x17d;" horiz-adv-x="688" 
d="M630 53v-53h-572v46l480 621h-457v53h532v-47l-479 -620h496zM512 947l-129 -157h-65l-128 157h57l104 -114l104 114h57z" />
    <glyph glyph-name="zcaron" unicode="&#x17e;" horiz-adv-x="561" 
d="M508 49v-49h-453v40l366 453h-349v49h423v-40l-366 -453h379zM446 769l-129 -157h-65l-128 157h57l104 -114l104 114h57z" />
    <glyph glyph-name="uni018F" unicode="&#x18f;" horiz-adv-x="834" 
d="M598.5 685.5q84.5 -47.5 130.5 -132t46 -192.5t-47 -193t-128.5 -133t-183.5 -48q-105 0 -186 49t-126 133.5t-45 186.5q0 12 2 20h653q-3 89 -42.5 157.5t-109 106.5t-161.5 38q-81 0 -151 -28t-107 -70l-40 40q45 51 123.5 82t176.5 31q111 0 195.5 -47.5zM559.5 77
q64.5 35 105 99t47.5 148h-591q4 -77 42 -141.5t104 -102.5t149 -38q79 0 143.5 35z" />
    <glyph glyph-name="florin" unicode="&#x192;" horiz-adv-x="417" 
d="M259 682.5q-29 -28.5 -29 -79.5v-141h152v-52h-152v-447q0 -71 -45 -113.5t-118 -42.5q-44 0 -80 13v54q40 -13 76 -13q50 0 79 27t29 77v445h-113v52h113v142q0 72 45 116.5t120 44.5q43 0 81 -13v-54q-42 13 -78 13q-51 0 -80 -28.5z" />
    <glyph glyph-name="Ohorn" unicode="&#x1a0;" horiz-adv-x="866" 
d="M753 554q50 -84 50 -194q0 -107 -48 -192t-133 -133t-191 -48t-191 48t-133 133t-48 192t48 192t133 133t191 48q47 0 152 -7q74 -6 104 -6q44 0 65 18t21 54q0 17 -5 33t-17 39h59q9 -14 13.5 -34.5t4.5 -40.5q0 -54 -35 -83.5t-99 -29.5q-18 0 -78 4q87 -42 137 -126z
M590.5 83q70.5 41 110.5 113.5t40 163.5t-40 163.5t-110.5 113.5t-159.5 41t-159.5 -41t-110.5 -113.5t-40 -163.5t40 -163.5t110.5 -113.5t159.5 -41t159.5 41z" />
    <glyph glyph-name="ohorn" unicode="&#x1a1;" horiz-adv-x="671" 
d="M627.5 528.5q-33.5 -29.5 -91.5 -29.5q-17 0 -49 2q63 -37 97 -96.5t34 -133.5q0 -79 -37 -144t-101.5 -102.5t-144.5 -37.5t-144.5 37.5t-101.5 102.5t-37 144t37 144t101.5 102.5t144.5 37.5q47 0 99 -7q58 -6 97 -6q76 0 76 72q0 29 -20 72h56q9 -14 13.5 -35t4.5 -40
q0 -53 -33.5 -82.5zM528.5 388q-29.5 53 -80.5 83t-113 30t-113 -30t-80.5 -83t-29.5 -117t29.5 -117t80.5 -83t113 -30t113 30t80.5 83t29.5 117t-29.5 117z" />
    <glyph glyph-name="Uhorn" unicode="&#x1af;" horiz-adv-x="790" 
d="M843 789q0 -53 -33.5 -83t-90.5 -30h-34v-420q0 -81 -37.5 -142t-105 -94t-155.5 -33q-87 0 -154.5 33t-105 94t-37.5 142v464h60v-459q0 -67 30 -116.5t83.5 -76t123.5 -26.5t124 26.5t84 76t30 116.5v459h85q77 0 77 72q0 18 -4.5 34t-16.5 38h59q18 -28 18 -75z" />
    <glyph glyph-name="uhorn" unicode="&#x1b0;" horiz-adv-x="667" 
d="M562 542v-542h-56v91q-35 -54 -90 -79t-118 -25q-97 0 -155 55.5t-58 148.5v351h58v-342q0 -74 43 -116.5t122 -42.5q57 0 102 23t69.5 61.5t24.5 84.5v332h58zM513 499v43h61q77 0 77 72q0 30 -21 72h57q9 -14 13.5 -35t4.5 -40q0 -53 -33.5 -82.5t-90.5 -29.5h-68z" />
    <glyph glyph-name="uni01C4" unicode="&#x1c4;" horiz-adv-x="1455" 
d="M571.5 675q84.5 -45 130.5 -127t46 -188t-46 -188t-130.5 -127t-196.5 -45h-271v720h271q112 0 196.5 -45zM538.5 92q70.5 38 109 107.5t38.5 160.5t-38.5 160.5t-109 107.5t-165.5 38h-209v-612h209q95 0 165.5 38zM1397 53v-53h-572v46l480 621h-457v53h532v-47
l-479 -620h496zM1279 947l-129 -157h-65l-128 157h57l104 -114l104 114h57z" />
    <glyph glyph-name="uni01C5" unicode="&#x1c5;" horiz-adv-x="1343" 
d="M571.5 675q84.5 -45 130.5 -127t46 -188t-46 -188t-130.5 -127t-196.5 -45h-271v720h271q112 0 196.5 -45zM538.5 92q70.5 38 109 107.5t38.5 160.5t-38.5 160.5t-109 107.5t-165.5 38h-209v-612h209q95 0 165.5 38zM1290 49v-49h-453v40l366 453h-349v49h423v-40
l-366 -453h379zM1228 769l-129 -157h-65l-128 157h57l104 -114l104 114h57z" />
    <glyph glyph-name="uni01C6" unicode="&#x1c6;" horiz-adv-x="1269" 
d="M613 752v-752h-56v116q-34 -61 -94 -95t-135 -34q-78 0 -140 37t-97.5 102t-35.5 145t35.5 145t97.5 102t140 37q73 0 133 -33.5t94 -92.5v323h58zM445.5 68.5q51.5 28.5 82 81.5t30.5 121t-30.5 120.5t-82 81.5t-111.5 29q-64 0 -114 -30t-78 -83t-28 -118t28 -118
t78 -83t114 -30q60 0 111.5 28.5zM1216 49v-49h-453v40l366 453h-349v49h423v-40l-366 -453h379zM1154 769l-129 -157h-65l-128 157h57l104 -114l104 114h57z" />
    <glyph glyph-name="uni01C7" unicode="&#x1c7;" horiz-adv-x="1195" 
d="M164 55h429v-55h-489v720h60v-665zM1105 720v-510q0 -104 -62 -163.5t-163 -59.5q-99 0 -161 57.5t-64 158.5h59q3 -79 48.5 -120t117.5 -41q76 0 120.5 45t44.5 125v508h60z" />
    <glyph glyph-name="uni01C8" unicode="&#x1c8;" horiz-adv-x="920" 
d="M623 54v-54h-519v720h60v-666h459zM636 -177v51q10 -4 25 -6.5t26 -2.5q37 0 58.5 20.5t21.5 56.5v600h58v-603q0 -58 -35.5 -92t-95.5 -34q-34 0 -58 10zM827 716q12 -12 12 -31t-12 -31t-31 -12t-31 12t-12 31t12 31t31 12t31 -12z" />
    <glyph glyph-name="uni01C9" unicode="&#x1c9;" horiz-adv-x="488" 
d="M153 752v-752h-58v752h58zM395 716q12 -12 12 -31t-12 -31t-31 -12t-31 12t-12 31t12 31t31 12t31 -12zM204 -177v51q10 -4 25 -6.5t26 -2.5q37 0 58.5 20.5t21.5 56.5v600h58v-603q0 -58 -35.5 -92t-95.5 -34q-34 0 -58 10z" />
    <glyph glyph-name="uni01CA" unicode="&#x1ca;" horiz-adv-x="1386" 
d="M716 720v-720h-66l-488 639v-639h-58v720h67l487 -638v638h58zM1296 720v-510q0 -104 -62 -163.5t-163 -59.5q-99 0 -161 57.5t-64 158.5h59q3 -79 48.5 -120t117.5 -41q76 0 120.5 45t44.5 125v508h60z" />
    <glyph glyph-name="uni01CB" unicode="&#x1cb;" horiz-adv-x="1074" 
d="M716 720v-720h-66l-488 639v-639h-58v720h67l487 -638v638h58zM790 -177v51q10 -4 25 -6.5t26 -2.5q37 0 58.5 20.5t21.5 56.5v600h58v-603q0 -58 -35.5 -92t-95.5 -34q-34 0 -58 10zM981 716q12 -12 12 -31t-12 -31t-31 -12t-31 12t-12 31t12 31t31 12t31 -12z" />
    <glyph glyph-name="uni01CC" unicode="&#x1cc;" horiz-adv-x="916" 
d="M517.5 500q58.5 -55 58.5 -149v-351h-58v342q0 74 -43.5 116.5t-123.5 42.5q-58 0 -103.5 -23t-70 -61.5t-24.5 -84.5v-332h-58v542h56v-91q35 54 90.5 79t119.5 25q98 0 156.5 -55zM632 -177v51q10 -4 25 -6.5t26 -2.5q37 0 58.5 20.5t21.5 56.5v600h58v-603
q0 -58 -35.5 -92t-95.5 -34q-34 0 -58 10zM823 716q12 -12 12 -31t-12 -31t-31 -12t-31 12t-12 31t12 31t31 12t31 -12z" />
    <glyph glyph-name="Gcaron" unicode="&#x1e6;" horiz-adv-x="820" 
d="M745 76q-50 -46 -124 -67.5t-154 -21.5q-121 0 -214 48t-143.5 132.5t-50.5 191.5t50.5 192.5t140.5 133.5t204 48q84 0 153 -25.5t110 -64.5l-38 -44q-36 33 -96 56t-132 23q-94 0 -169.5 -41t-118 -113.5t-42.5 -164.5t43 -164t121.5 -112.5t183.5 -40.5q61 0 117.5 15
t99.5 46v233h-245v53h304v-313zM595 947l-129 -157h-65l-128 157h57l104 -114l104 114h57z" />
    <glyph glyph-name="gcaron" unicode="&#x1e7;" horiz-adv-x="678" 
d="M593 542v-493q0 -72 -34 -125.5t-96 -82.5t-144 -29q-131 0 -221 53l26 50q83 -50 195 -50q99 0 157.5 49.5t58.5 137.5v81q-34 -54 -92 -84t-127 -30q-74 0 -135.5 35.5t-96.5 97t-35 135.5t35 135t96.5 97t135.5 36q70 0 128.5 -31t92.5 -87v105h56zM429.5 98.5
q50.5 26.5 80.5 75t30 113.5q0 64 -30 113t-80.5 75.5t-110.5 26.5q-58 0 -106.5 -28.5t-76.5 -78t-28 -108.5q0 -60 28 -109t76.5 -77.5t106.5 -28.5q60 0 110.5 26.5zM496 769l-129 -157h-65l-128 157h57l104 -114l104 114h57z" />
    <glyph glyph-name="uni01EA" unicode="&#x1ea;" horiz-adv-x="862" 
d="M622 685q85 -48 133 -133t48 -192q0 -97 -40.5 -175.5t-110.5 -125.5q-22 -17 -51.5 -31.5t-70.5 -30.5q-67 -28 -98 -48.5t-31 -52.5q0 -21 16 -32t44 -11q43 0 79 28l25 -36q-42 -39 -113 -39q-46 0 -75.5 21.5t-29.5 60.5q0 26 19 52t60 47q-105 1 -188.5 49.5
t-131 133t-47.5 190.5q0 107 48 192t132.5 133t191.5 48q106 0 191 -48zM590 83q71 41 111 113.5t40 163.5t-40 163.5t-111 113.5t-159 41q-89 0 -159.5 -41t-110.5 -113.5t-40 -163.5t40 -163.5t110.5 -113.5t159.5 -41q88 0 159 41z" />
    <glyph glyph-name="uni01EB" unicode="&#x1eb;" horiz-adv-x="669" 
d="M479.5 517.5q64.5 -37.5 101 -102.5t36.5 -144q0 -61 -22.5 -114.5t-63.5 -90.5q-19 -19 -45 -33.5t-69 -35.5q-42 -21 -63.5 -33.5t-37 -29.5t-15.5 -38q0 -20 15 -31.5t38 -11.5q38 0 74 28l24 -36q-40 -39 -105 -39q-43 0 -71.5 22t-28.5 60q0 59 77 99q-78 4 -140 42
t-97 101.5t-35 140.5q0 79 37 144t101.5 102.5t144.5 37.5t144.5 -37.5zM448 71q51 30 80.5 83t29.5 117t-29.5 117t-80.5 83t-113 30t-113 -30t-80.5 -83t-29.5 -117t29.5 -117t80.5 -83t113 -30t113 30z" />
    <glyph glyph-name="Aringacute" unicode="&#x1fa;" horiz-adv-x="780" 
d="M584 213h-389l-91 -213h-63l313 720h73l312 -720h-65zM561 266l-170 402l-173 -402h343zM293.5 824.5q-37.5 35.5 -37.5 88.5q0 54 37.5 89.5t94.5 35.5q58 0 95 -35.5t37 -89.5q0 -53 -37 -88.5t-95 -35.5q-57 0 -94.5 35.5zM449.5 853.5q24.5 23.5 24.5 59.5
q0 37 -24.5 60.5t-61.5 23.5q-36 0 -60.5 -24t-24.5 -60t24.5 -59.5t60.5 -23.5q37 0 61.5 23.5zM391 1085h-59l125 158h68v-7z" />
    <glyph glyph-name="aringacute" unicode="&#x1fb;" horiz-adv-x="635" 
d="M315 905h-54l105 148h62v-8zM216.5 646.5q-37.5 35.5 -37.5 88.5q0 54 37.5 89.5t94.5 35.5q58 0 95 -35.5t37 -89.5q0 -53 -37 -88.5t-95 -35.5q-57 0 -94.5 35.5zM250.5 795q-24.5 -24 -24.5 -60t24.5 -59.5t60.5 -23.5q37 0 61.5 23.5t24.5 59.5q0 37 -24.5 60.5
t-61.5 23.5q-36 0 -60.5 -24zM619 50v-48q-12 -6 -34 -6q-45 0 -72 28t-27 78v18q-32 -68 -94.5 -100t-137.5 -32q-88 0 -147.5 42.5t-59.5 118.5q0 81 71 126t204 45h163v24q0 72 -49.5 114.5t-130.5 42.5q-51 0 -100 -17t-79 -47l-36 42q39 36 97 55.5t120 19.5
q107 0 170.5 -55.5t63.5 -150.5v-243q0 -29 13.5 -44t37.5 -15q16 0 27 4zM365 61.5q51 22.5 85 74.5t35 135h-163q-109 0 -163.5 -32t-54.5 -88q0 -52 44 -82t111 -30q55 0 106 22.5z" />
    <glyph glyph-name="AEacute" unicode="&#x1fc;" horiz-adv-x="1095" 
d="M1055 0h-526v208h-321l-144 -208h-67l500 720h548l-16 -54h-441v-259h302v-54h-302v-299h451zM529 261v413l-285 -413h285zM593 789h-59l125 158h68v-7z" />
    <glyph glyph-name="aeacute" unicode="&#x1fd;" horiz-adv-x="1049" 
d="M1008 261h-469q2 -65 31.5 -115t80.5 -78t117 -28q56 0 100 19.5t71 51.5l39 -39q-34 -39 -88.5 -62t-122.5 -23q-96 0 -162.5 45t-95.5 124q-27 -85 -100 -127t-156 -42q-56 0 -103 19.5t-75 55.5t-28 85q0 81 70.5 124t200.5 43h164v29q0 73 -47 115.5t-129 42.5
q-52 0 -100.5 -17.5t-80.5 -47.5l-34 42q38 37 96 56t121 19q85 0 140.5 -35t75.5 -99q32 64 92 99.5t141 35.5q74 0 131.5 -37.5t89.5 -99t32 -132.5q0 -10 -2 -24zM611 448.5q-59 -52.5 -70 -138.5h410q-5 52 -30 95.5t-67.5 69.5t-95.5 26q-88 0 -147 -52.5zM361 60
q50 22 84 73t37 131l-164 1q-104 1 -158 -30t-54 -87q0 -49 43.5 -79.5t108.5 -30.5q53 0 103 22zM530 611h-59l125 158h68v-7z" />
    <glyph glyph-name="Oslashacute" unicode="&#x1fe;" horiz-adv-x="861" 
d="M769.5 520.5q32.5 -73.5 32.5 -160.5q0 -107 -48 -192t-132.5 -133.5t-191.5 -48.5q-116 0 -204 57l-66 -88h-66l89 119q-59 51 -91.5 125t-32.5 161q0 107 48 192t132.5 133t190.5 48q116 0 205 -56l66 87h66l-89 -119q59 -51 91.5 -124.5zM145.5 226
q25.5 -62 72.5 -105l383 510q-75 47 -171 47q-89 0 -159.5 -41t-110.5 -113.5t-40 -163.5q0 -72 25.5 -134zM590 83q71 41 111 113.5t40 163.5q0 72 -25.5 133t-72.5 105l-383 -509q75 -47 170 -47q89 0 160 41zM432 789h-59l125 158h68v-7z" />
    <glyph glyph-name="oslashacute" unicode="&#x1ff;" horiz-adv-x="674" 
d="M597 391q25 -56 25 -120q0 -79 -37 -144t-102 -102.5t-146 -37.5q-84 0 -149 40l-54 -73h-62l75 102q-45 39 -70 95t-25 120q0 79 37 144t102 102.5t146 37.5q84 0 150 -40l53 73h62l-75 -101q45 -40 70 -96zM129.5 177q18.5 -44 51.5 -75l273 368q-53 31 -117 31
q-63 0 -114.5 -30t-81.5 -83t-30 -117q0 -50 18.5 -94zM452.5 71q51.5 30 81.5 82.5t30 117.5q0 51 -18.5 95t-52.5 75l-272 -369q53 -31 116 -31q64 0 115.5 30zM337 611h-59l125 158h68v-7z" />
    <glyph glyph-name="uni0200" unicode="&#x200;" horiz-adv-x="780" 
d="M584 213h-389l-91 -213h-63l313 720h73l312 -720h-65zM561 266l-170 402l-173 -402h343zM198 947h60l95 -158h-52l-103 151v7zM358 947h61l78 -158h-52l-87 151v7z" />
    <glyph glyph-name="uni0201" unicode="&#x201;" horiz-adv-x="635" 
d="M619 50v-48q-12 -6 -34 -6q-45 0 -72 28t-27 78v18q-32 -68 -94.5 -100t-137.5 -32q-88 0 -147.5 42.5t-59.5 118.5q0 81 71 126t204 45h163v24q0 72 -49.5 114.5t-130.5 42.5q-51 0 -100 -17t-79 -47l-36 42q39 36 97 55.5t120 19.5q107 0 170.5 -55.5t63.5 -150.5v-243
q0 -29 13.5 -44t37.5 -15q16 0 27 4zM365 61.5q51 22.5 85 74.5t35 135h-163q-109 0 -163.5 -32t-54.5 -88q0 -52 44 -82t111 -30q55 0 106 22.5zM121 769h60l95 -158h-52l-103 151v7zM281 769h61l78 -158h-52l-87 151v7z" />
    <glyph glyph-name="uni0202" unicode="&#x202;" horiz-adv-x="780" 
d="M584 213h-389l-91 -213h-63l313 720h73l312 -720h-65zM561 266l-170 402l-173 -402h343zM502 903.5q44 -44.5 44 -114.5h-46q-1 49 -32 80t-78 31t-78 -31t-32 -80h-46q0 70 44 114.5t112 44.5t112 -44.5z" />
    <glyph glyph-name="uni0203" unicode="&#x203;" horiz-adv-x="635" 
d="M619 50v-48q-12 -6 -34 -6q-45 0 -72 28t-27 78v18q-32 -68 -94.5 -100t-137.5 -32q-88 0 -147.5 42.5t-59.5 118.5q0 81 71 126t204 45h163v24q0 72 -49.5 114.5t-130.5 42.5q-51 0 -100 -17t-79 -47l-36 42q39 36 97 55.5t120 19.5q107 0 170.5 -55.5t63.5 -150.5v-243
q0 -29 13.5 -44t37.5 -15q16 0 27 4zM365 61.5q51 22.5 85 74.5t35 135h-163q-109 0 -163.5 -32t-54.5 -88q0 -52 44 -82t111 -30q55 0 106 22.5zM425 725.5q44 -44.5 44 -114.5h-46q-1 49 -32 80t-78 31t-78 -31t-32 -80h-46q0 70 44 114.5t112 44.5t112 -44.5z" />
    <glyph glyph-name="uni0204" unicode="&#x204;" horiz-adv-x="694" 
d="M654 0h-550v720h540l-16 -54h-464v-259h318v-54h-318v-299h474zM178 947h60l95 -158h-52l-103 151v7zM338 947h61l78 -158h-52l-87 151v7z" />
    <glyph glyph-name="uni0205" unicode="&#x205;" horiz-adv-x="647" 
d="M606 254h-491q4 -63 34.5 -111.5t82.5 -75.5t119 -27q60 0 107.5 20t77.5 53l38 -40q-33 -39 -91 -62.5t-134 -23.5q-87 0 -153.5 36.5t-103 101t-36.5 145.5t35.5 146t99 102t142.5 37q81 0 143.5 -37.5t97 -102t34.5 -142.5q0 -3 -2 -19zM229.5 477.5
q-46.5 -24.5 -76.5 -70t-36 -105.5h431q-4 55 -32 101t-75.5 72.5t-107.5 26.5q-57 0 -103.5 -24.5zM141 769h60l95 -158h-52l-103 151v7zM301 769h61l78 -158h-52l-87 151v7z" />
    <glyph glyph-name="uni0206" unicode="&#x206;" horiz-adv-x="694" 
d="M654 0h-550v720h540l-16 -54h-464v-259h318v-54h-318v-299h474zM482 903.5q44 -44.5 44 -114.5h-46q-1 49 -32 80t-78 31t-78 -31t-32 -80h-46q0 70 44 114.5t112 44.5t112 -44.5z" />
    <glyph glyph-name="uni0207" unicode="&#x207;" horiz-adv-x="647" 
d="M606 254h-491q4 -63 34.5 -111.5t82.5 -75.5t119 -27q60 0 107.5 20t77.5 53l38 -40q-33 -39 -91 -62.5t-134 -23.5q-87 0 -153.5 36.5t-103 101t-36.5 145.5t35.5 146t99 102t142.5 37q81 0 143.5 -37.5t97 -102t34.5 -142.5q0 -3 -2 -19zM229.5 477.5
q-46.5 -24.5 -76.5 -70t-36 -105.5h431q-4 55 -32 101t-75.5 72.5t-107.5 26.5q-57 0 -103.5 -24.5zM445 725.5q44 -44.5 44 -114.5h-46q-1 49 -32 80t-78 31t-78 -31t-32 -80h-46q0 70 44 114.5t112 44.5t112 -44.5z" />
    <glyph glyph-name="uni0208" unicode="&#x208;" horiz-adv-x="280" 
d="M170 720v-720h-60v720h60zM-52 947h60l95 -158h-52l-103 151v7zM108 947h61l78 -158h-52l-87 151v7z" />
    <glyph glyph-name="uni0209" unicode="&#x209;" horiz-adv-x="256" 
d="M99 542h58v-542h-58v542zM-64 769h60l95 -158h-52l-103 151v7zM96 769h61l78 -158h-52l-87 151v7z" />
    <glyph glyph-name="uni020A" unicode="&#x20a;" horiz-adv-x="280" 
d="M170 720v-720h-60v720h60zM252 903.5q44 -44.5 44 -114.5h-46q-1 49 -32 80t-78 31t-78 -31t-32 -80h-46q0 70 44 114.5t112 44.5t112 -44.5z" />
    <glyph glyph-name="uni020B" unicode="&#x20b;" horiz-adv-x="256" 
d="M99 542h58v-542h-58v542zM240 725.5q44 -44.5 44 -114.5h-46q-1 49 -32 80t-78 31t-78 -31t-32 -80h-46q0 70 44 114.5t112 44.5t112 -44.5z" />
    <glyph glyph-name="uni020C" unicode="&#x20c;" horiz-adv-x="862" 
d="M239.5 35q-84.5 48 -132.5 133t-48 192t48 192t132.5 133t191.5 48t191.5 -48t132.5 -133t48 -192t-48 -192t-132.5 -133t-191.5 -48t-191.5 48zM590.5 83q70.5 41 110.5 113.5t40 163.5t-40 163.5t-110.5 113.5t-159.5 41t-159.5 -41t-110.5 -113.5t-40 -163.5
t40 -163.5t110.5 -113.5t159.5 -41t159.5 41zM239 947h60l95 -158h-52l-103 151v7zM399 947h61l78 -158h-52l-87 151v7z" />
    <glyph glyph-name="uni020D" unicode="&#x20d;" horiz-adv-x="674" 
d="M483 24.5q65 37.5 102 102.5t37 144t-37 144t-102 102.5t-146 37.5t-146 -37.5t-102 -102.5t-37 -144t37 -144t102 -102.5t146 -37.5t146 37.5zM451.5 471q51.5 -30 81.5 -83t30 -117t-30 -117t-81.5 -83t-114.5 -30t-114.5 30t-81.5 83t-30 117t30 117t81.5 83t114.5 30
t114.5 -30zM145 769h60l95 -158h-52l-103 151v7zM305 769h61l78 -158h-52l-87 151v7z" />
    <glyph glyph-name="uni020E" unicode="&#x20e;" horiz-adv-x="862" 
d="M239.5 35q-84.5 48 -132.5 133t-48 192t48 192t132.5 133t191.5 48t191.5 -48t132.5 -133t48 -192t-48 -192t-132.5 -133t-191.5 -48t-191.5 48zM590.5 83q70.5 41 110.5 113.5t40 163.5t-40 163.5t-110.5 113.5t-159.5 41t-159.5 -41t-110.5 -113.5t-40 -163.5
t40 -163.5t110.5 -113.5t159.5 -41t159.5 41zM543 903.5q44 -44.5 44 -114.5h-46q-1 49 -32 80t-78 31t-78 -31t-32 -80h-46q0 70 44 114.5t112 44.5t112 -44.5z" />
    <glyph glyph-name="uni020F" unicode="&#x20f;" horiz-adv-x="674" 
d="M483 24.5q65 37.5 102 102.5t37 144t-37 144t-102 102.5t-146 37.5t-146 -37.5t-102 -102.5t-37 -144t37 -144t102 -102.5t146 -37.5t146 37.5zM451.5 471q51.5 -30 81.5 -83t30 -117t-30 -117t-81.5 -83t-114.5 -30t-114.5 30t-81.5 83t-30 117t30 117t81.5 83t114.5 30
t114.5 -30zM449 725.5q44 -44.5 44 -114.5h-46q-1 49 -32 80t-78 31t-78 -31t-32 -80h-46q0 70 44 114.5t112 44.5t112 -44.5z" />
    <glyph glyph-name="uni0210" unicode="&#x210;" horiz-adv-x="767" 
d="M424 326h-261v-326h-59v720h359q67 0 116.5 -25.5t76.5 -70.5t27 -101q0 -79 -52.5 -133.5t-140.5 -62.5l230 -327h-71zM163 379h294q77 0 121 39.5t44 103.5t-44 104t-121 40h-294v-287zM183 947h60l95 -158h-52l-103 151v7zM343 947h61l78 -158h-52l-87 151v7z" />
    <glyph glyph-name="uni0211" unicode="&#x211;" horiz-adv-x="420" 
d="M397 543v-55q-27 7 -55 7q-53 0 -96 -22.5t-68 -63t-25 -91.5v-318h-58v542h56v-101q30 55 82.5 82t107.5 27q31 0 56 -7zM48 769h60l95 -158h-52l-103 151v7zM208 769h61l78 -158h-52l-87 151v7z" />
    <glyph glyph-name="uni0212" unicode="&#x212;" horiz-adv-x="767" 
d="M424 326h-261v-326h-59v720h359q67 0 116.5 -25.5t76.5 -70.5t27 -101q0 -79 -52.5 -133.5t-140.5 -62.5l230 -327h-71zM163 379h294q77 0 121 39.5t44 103.5t-44 104t-121 40h-294v-287zM487 903.5q44 -44.5 44 -114.5h-46q-1 49 -32 80t-78 31t-78 -31t-32 -80h-46
q0 70 44 114.5t112 44.5t112 -44.5z" />
    <glyph glyph-name="uni0213" unicode="&#x213;" horiz-adv-x="420" 
d="M397 543v-55q-27 7 -55 7q-53 0 -96 -22.5t-68 -63t-25 -91.5v-318h-58v542h56v-101q30 55 82.5 82t107.5 27q31 0 56 -7zM352 725.5q44 -44.5 44 -114.5h-46q-1 49 -32 80t-78 31t-78 -31t-32 -80h-46q0 70 44 114.5t112 44.5t112 -44.5z" />
    <glyph glyph-name="uni0214" unicode="&#x214;" horiz-adv-x="774" 
d="M232.5 20q-67.5 33 -105 94t-37.5 142v464h60v-459q0 -67 30 -116.5t83.5 -76t123.5 -26.5t123.5 26.5t83.5 76t30 116.5v459h60v-464q0 -81 -37.5 -142t-105 -94t-154.5 -33t-154.5 33zM195 947h60l95 -158h-52l-103 151v7zM355 947h61l78 -158h-52l-87 151v7z" />
    <glyph glyph-name="uni0215" unicode="&#x215;" horiz-adv-x="657" 
d="M562 542v-542h-56v91q-35 -54 -90 -79t-118 -25q-97 0 -155 55.5t-58 148.5v351h58v-342q0 -74 43 -116.5t122 -42.5q57 0 102 23t69.5 61.5t24.5 84.5v332h58zM132 769h60l95 -158h-52l-103 151v7zM292 769h61l78 -158h-52l-87 151v7z" />
    <glyph glyph-name="uni0216" unicode="&#x216;" horiz-adv-x="774" 
d="M232.5 20q-67.5 33 -105 94t-37.5 142v464h60v-459q0 -67 30 -116.5t83.5 -76t123.5 -26.5t123.5 26.5t83.5 76t30 116.5v459h60v-464q0 -81 -37.5 -142t-105 -94t-154.5 -33t-154.5 33zM499 903.5q44 -44.5 44 -114.5h-46q-1 49 -32 80t-78 31t-78 -31t-32 -80h-46
q0 70 44 114.5t112 44.5t112 -44.5z" />
    <glyph glyph-name="uni0217" unicode="&#x217;" horiz-adv-x="657" 
d="M562 542v-542h-56v91q-35 -54 -90 -79t-118 -25q-97 0 -155 55.5t-58 148.5v351h58v-342q0 -74 43 -116.5t122 -42.5q57 0 102 23t69.5 61.5t24.5 84.5v332h58zM436 725.5q44 -44.5 44 -114.5h-46q-1 49 -32 80t-78 31t-78 -31t-32 -80h-46q0 70 44 114.5t112 44.5
t112 -44.5z" />
    <glyph glyph-name="Scommaaccent" unicode="&#x218;" horiz-adv-x="692" 
d="M191 17q-80 27 -137 76l40 47q54 -47 122.5 -71t143.5 -24q58 0 106 18.5t76.5 52.5t28.5 79q0 108 -160 139l-149 29q-189 37 -189 172q0 59 36.5 103.5t99.5 69t141 24.5q165 0 262 -91l-37 -44q-50 44 -109 62.5t-117 18.5q-60 0 -109.5 -18t-78 -49.5t-28.5 -72.5
q0 -45 37.5 -74.5t117.5 -45.5l145 -29q98 -19 148 -68.5t50 -122.5q0 -61 -34 -108t-95.5 -73.5t-139.5 -26.5q-91 0 -171 27zM322 -65h68l-62 -146h-41z" />
    <glyph glyph-name="scommaaccent" unicode="&#x219;" horiz-adv-x="571" 
d="M176.5 63.5q58.5 -21.5 122.5 -21.5q72 0 117.5 29t45.5 77q0 36 -28 58t-85 33l-133 25q-79 15 -115.5 50t-36.5 84q0 44 26.5 79t77 55.5t120.5 20.5q61 0 117.5 -17t101.5 -54l-33 -44q-36 30 -87 46.5t-104 16.5q-71 0 -116 -28.5t-45 -72.5q0 -32 28.5 -51.5
t91.5 -31.5l128 -25q81 -16 115.5 -53.5t34.5 -87.5q0 -47 -28 -83.5t-78.5 -57t-116.5 -20.5q-69 0 -137 21.5t-112 59.5l34 45q36 -31 94.5 -52.5zM269 -65h68l-62 -146h-41z" />
    <glyph glyph-name="uni021A" unicode="&#x21a;" horiz-adv-x="670" 
d="M629 666h-264v-666h-60v666h-264v54h588v-54zM312 -65h68l-62 -146h-41z" />
    <glyph glyph-name="uni021B" unicode="&#x21b;" horiz-adv-x="415" 
d="M382 63v-54q-16 -9 -40.5 -14t-50.5 -5q-82 0 -128.5 46t-46.5 126v330h-92v50h92v140l58 27v-167h204v-50h-204v-324q0 -59 32.5 -91.5t88.5 -32.5q46 0 87 19zM200 -65h68l-62 -146h-41z" />
    <glyph glyph-name="uni022A" unicode="&#x22a;" horiz-adv-x="862" 
d="M239.5 35q-84.5 48 -132.5 133t-48 192t48 192t132.5 133t191.5 48t191.5 -48t132.5 -133t48 -192t-48 -192t-132.5 -133t-191.5 -48t-191.5 48zM590.5 83q70.5 41 110.5 113.5t40 163.5t-40 163.5t-110.5 113.5t-159.5 41t-159.5 -41t-110.5 -113.5t-40 -163.5
t40 -163.5t110.5 -113.5t159.5 -41t159.5 41zM294 832q-12 12 -12 31t12 31t31 12t31 -12t12 -31t-12 -31t-31 -12t-31 12zM506 832q-12 12 -12 31t12 31t31 12t31 -12t12 -31t-12 -31t-31 -12t-31 12zM279 1035h304v-48h-304v48z" />
    <glyph glyph-name="uni022B" unicode="&#x22b;" horiz-adv-x="674" 
d="M483 24.5q65 37.5 102 102.5t37 144t-37 144t-102 102.5t-146 37.5t-146 -37.5t-102 -102.5t-37 -144t37 -144t102 -102.5t146 -37.5t146 37.5zM451.5 471q51.5 -30 81.5 -83t30 -117t-30 -117t-81.5 -83t-114.5 -30t-114.5 30t-81.5 83t-30 117t30 117t81.5 83t114.5 30
t114.5 -30zM200 654q-12 12 -12 31t12 31t31 12t31 -12t12 -31t-12 -31t-31 -12t-31 12zM412 654q-12 12 -12 31t12 31t31 12t31 -12t12 -31t-12 -31t-31 -12t-31 12zM185 857h304v-48h-304v48z" />
    <glyph glyph-name="uni022C" unicode="&#x22c;" horiz-adv-x="862" 
d="M239.5 35q-84.5 48 -132.5 133t-48 192t48 192t132.5 133t191.5 48t191.5 -48t132.5 -133t48 -192t-48 -192t-132.5 -133t-191.5 -48t-191.5 48zM590.5 83q70.5 41 110.5 113.5t40 163.5t-40 163.5t-110.5 113.5t-159.5 41t-159.5 -41t-110.5 -113.5t-40 -163.5
t40 -163.5t110.5 -113.5t159.5 -41t159.5 41zM460 812.5q-22 13.5 -48 38.5q-20 19 -34 28.5t-31 9.5q-26 0 -41.5 -23.5t-17.5 -63.5h-48q2 61 30.5 98t77.5 37q30 0 51 -13t49 -39q20 -20 34 -29.5t31 -9.5q26 0 41.5 23.5t17.5 63.5h48q-2 -61 -30.5 -97.5t-77.5 -36.5
q-30 0 -52 13.5zM279 1073h304v-48h-304v48z" />
    <glyph glyph-name="uni022D" unicode="&#x22d;" horiz-adv-x="674" 
d="M483 24.5q65 37.5 102 102.5t37 144t-37 144t-102 102.5t-146 37.5t-146 -37.5t-102 -102.5t-37 -144t37 -144t102 -102.5t146 -37.5t146 37.5zM451.5 471q51.5 -30 81.5 -83t30 -117t-30 -117t-81.5 -83t-114.5 -30t-114.5 30t-81.5 83t-30 117t30 117t81.5 83t114.5 30
t114.5 -30zM366 634.5q-22 13.5 -48 38.5q-20 19 -34 28.5t-31 9.5q-26 0 -41.5 -23.5t-17.5 -63.5h-48q2 61 30.5 98t77.5 37q30 0 51 -13t49 -39q20 -20 34 -29.5t31 -9.5q26 0 41.5 23.5t17.5 63.5h48q-2 -61 -30.5 -97.5t-77.5 -36.5q-30 0 -52 13.5zM185 880h304v-48
h-304v48z" />
    <glyph glyph-name="uni0230" unicode="&#x230;" horiz-adv-x="862" 
d="M239.5 35q-84.5 48 -132.5 133t-48 192t48 192t132.5 133t191.5 48t191.5 -48t132.5 -133t48 -192t-48 -192t-132.5 -133t-191.5 -48t-191.5 48zM590.5 83q70.5 41 110.5 113.5t40 163.5t-40 163.5t-110.5 113.5t-159.5 41t-159.5 -41t-110.5 -113.5t-40 -163.5
t40 -163.5t110.5 -113.5t159.5 -41t159.5 41zM462 894q12 -12 12 -31t-12 -31t-31 -12t-31 12t-12 31t12 31t31 12t31 -12zM279 1035h304v-48h-304v48z" />
    <glyph glyph-name="uni0231" unicode="&#x231;" horiz-adv-x="674" 
d="M483 24.5q65 37.5 102 102.5t37 144t-37 144t-102 102.5t-146 37.5t-146 -37.5t-102 -102.5t-37 -144t37 -144t102 -102.5t146 -37.5t146 37.5zM451.5 471q51.5 -30 81.5 -83t30 -117t-30 -117t-81.5 -83t-114.5 -30t-114.5 30t-81.5 83t-30 117t30 117t81.5 83t114.5 30
t114.5 -30zM368 716q12 -12 12 -31t-12 -31t-31 -12t-31 12t-12 31t12 31t31 12t31 -12zM185 857h304v-48h-304v48z" />
    <glyph glyph-name="uni0232" unicode="&#x232;" horiz-adv-x="720" 
d="M391 248v-248h-60v247l-304 473h70l264 -419l264 419h68zM208 872h304v-48h-304v48z" />
    <glyph glyph-name="uni0233" unicode="&#x233;" horiz-adv-x="599" 
d="M579 542l-285 -619q-52 -113 -160 -113q-53 0 -103 22l20 51q42 -21 81 -21t67 20.5t48 64.5l26 56l-250 539h65l215 -478l213 478h63zM149 694h304v-48h-304v48z" />
    <glyph glyph-name="uni0237" unicode="&#x237;" horiz-adv-x="255" 
d="M-29 -177v51q10 -4 25 -6.5t26 -2.5q37 0 58.5 20.5t21.5 56.5v600h58v-603q0 -58 -35.5 -92t-95.5 -34q-34 0 -58 10z" />
    <glyph glyph-name="uni0259" unicode="&#x259;" horiz-adv-x="647" 
d="M41 288h491q-4 63 -34.5 111.5t-82.5 75.5t-119 27q-60 0 -107.5 -20t-77.5 -53l-38 40q33 39 91 62.5t134 23.5q87 0 153.5 -36.5t103 -101t36.5 -145.5t-35.5 -146t-99 -102t-142.5 -37q-81 0 -143.5 37.5t-97 102t-34.5 142.5q0 3 2 19zM417.5 64.5q46.5 24.5 76.5 70
t36 105.5h-431q4 -55 32 -101t75.5 -72.5t107.5 -26.5q57 0 103.5 24.5z" />
    <glyph glyph-name="uni02B9" unicode="&#x2b9;" horiz-adv-x="273" 
d="M137 720h68l-90 -250h-42z" />
    <glyph glyph-name="uni02BA" unicode="&#x2ba;" horiz-adv-x="430" 
d="M137 720h68l-90 -250h-42zM294 722h68l-90 -250h-42z" />
    <glyph glyph-name="uni02BB" unicode="&#x2bb;" 
d="M-316 611h-68l60 158h40z" />
    <glyph glyph-name="uni02BC" unicode="&#x2bc;" horiz-adv-x="126" 
d="M62 752h57l-73 -248h-43z" />
    <glyph glyph-name="uni02BE" unicode="&#x2be;" 
d="M-240 824q37 -36 37 -89t-37 -88.5t-95 -35.5v39q37 0 61.5 24.5t24.5 60.5q0 37 -24.5 61t-61.5 24v40q58 0 95 -36z" />
    <glyph glyph-name="uni02BF" unicode="&#x2bf;" 
d="M-429.5 646.5q-36.5 35.5 -36.5 88.5t36.5 89t94.5 36v-40q-37 0 -61.5 -24t-24.5 -61q0 -36 24.5 -60.5t61.5 -24.5v-39q-58 0 -94.5 35.5z" />
    <glyph glyph-name="circumflex" unicode="&#x2c6;" horiz-adv-x="586" 
d="M425 612l-104 114l-104 -114h-57l128 157h65l129 -157h-57z" />
    <glyph glyph-name="caron" unicode="&#x2c7;" horiz-adv-x="586" 
d="M482 769l-129 -157h-65l-128 157h57l104 -114l104 114h57z" />
    <glyph glyph-name="uni02C8" unicode="&#x2c8;" horiz-adv-x="197" 
d="M72 821h53v-221h-53v221z" />
    <glyph glyph-name="uni02C9" unicode="&#x2c9;" horiz-adv-x="586" 
d="M179 694h304v-48h-304v48z" />
    <glyph glyph-name="uni02CA" unicode="&#x2ca;" 
d="M-332 611h-59l125 158h68v-7z" />
    <glyph glyph-name="uni02CB" unicode="&#x2cb;" 
d="M-400 768l116 -156h-58l-125 148v8h67z" />
    <glyph glyph-name="uni02CC" unicode="&#x2cc;" horiz-adv-x="197" 
d="M72 -49h53v-221h-53v221z" />
    <glyph glyph-name="breve" unicode="&#x2d8;" horiz-adv-x="586" 
d="M186 654.5q-44 44.5 -44 114.5h46q1 -49 32 -80t78 -31t78 31t32 80h46q0 -70 -44 -114.5t-112 -44.5t-112 44.5z" />
    <glyph glyph-name="dotaccent" unicode="&#x2d9;" horiz-adv-x="586" 
d="M195 716q12 -12 12 -31t-12 -31t-31 -12t-31 12t-12 31t12 31t31 12t31 -12z" />
    <glyph glyph-name="ring" unicode="&#x2da;" horiz-adv-x="587" 
d="M203.5 646.5q-37.5 35.5 -37.5 88.5q0 54 37.5 89.5t94.5 35.5q58 0 95 -35.5t37 -89.5q0 -53 -37 -88.5t-95 -35.5q-57 0 -94.5 35.5zM359.5 675.5q24.5 23.5 24.5 59.5q0 37 -24.5 60.5t-61.5 23.5q-36 0 -60.5 -24t-24.5 -60t24.5 -59.5t60.5 -23.5q37 0 61.5 23.5z
" />
    <glyph glyph-name="ogonek" unicode="&#x2db;" horiz-adv-x="586" 
d="M342 0q-127 -56 -127 -103q0 -21 15.5 -32.5t40.5 -11.5q40 0 76 28l25 -36q-42 -39 -109 -39q-44 0 -73 22t-29 61q0 33 32.5 67t100.5 64z" />
    <glyph glyph-name="tilde" unicode="&#x2dc;" horiz-adv-x="586" 
d="M282 634.5q-22 13.5 -48 38.5q-20 19 -34 28.5t-31 9.5q-26 0 -41.5 -23.5t-17.5 -63.5h-48q2 61 30.5 98t77.5 37q30 0 51 -13t49 -39q20 -20 34 -29.5t31 -9.5q26 0 41.5 23.5t17.5 63.5h48q-2 -61 -30.5 -97.5t-77.5 -36.5q-30 0 -52 13.5z" />
    <glyph glyph-name="hungarumlaut" unicode="&#x2dd;" horiz-adv-x="586" 
d="M292 611h-52l78 158h61v-7zM436 611h-52l95 158h60v-7z" />
    <glyph glyph-name="gravecomb" unicode="&#x300;" 
d="M-400 768l116 -156h-58l-125 148v8h67z" />
    <glyph glyph-name="acutecomb" unicode="&#x301;" 
d="M-332 611h-59l125 158h68v-7z" />
    <glyph glyph-name="uni0302" unicode="&#x302;" 
d="M-230 612l-104 114l-104 -114h-57l128 157h65l129 -157h-57z" />
    <glyph glyph-name="tildecomb" unicode="&#x303;" 
d="M-305 634.5q-22 13.5 -48 38.5q-20 19 -34 28.5t-31 9.5q-26 0 -41.5 -23.5t-17.5 -63.5h-48q2 61 30.5 98t77.5 37q30 0 51 -13t49 -39q20 -20 34 -29.5t31 -9.5q26 0 41.5 23.5t17.5 63.5h48q-2 -61 -30.5 -97.5t-77.5 -36.5q-30 0 -52 13.5z" />
    <glyph glyph-name="uni0304" unicode="&#x304;" 
d="M-486 694h304v-48h-304v48z" />
    <glyph glyph-name="uni0306" unicode="&#x306;" 
d="M-446 654.5q-44 44.5 -44 114.5h46q1 -49 32 -80t78 -31t78 31t32 80h46q0 -70 -44 -114.5t-112 -44.5t-112 44.5z" />
    <glyph glyph-name="uni0307" unicode="&#x307;" 
d="M-303 716q12 -12 12 -31t-12 -31t-31 -12t-31 12t-12 31t12 31t31 12t31 -12z" />
    <glyph glyph-name="uni0308" unicode="&#x308;" 
d="M-468 654q-12 12 -12 31t12 31t31 12t31 -12t12 -31t-12 -31t-31 -12t-31 12zM-256 654q-12 12 -12 31t12 31t31 12t31 -12t12 -31t-12 -31t-31 -12t-31 12z" />
    <glyph glyph-name="hookabovecomb" unicode="&#x309;" 
d="M-354 625q0 23 12.5 41.5t41.5 41.5q25 19 35.5 31t10.5 28q0 22 -19.5 35.5t-49.5 13.5q-34 0 -55.5 -17.5t-22.5 -42.5h-50q2 45 37.5 74.5t93.5 29.5q51 0 84 -25.5t33 -65.5q0 -25 -13 -43.5t-42 -42.5q-30 -24 -39.5 -36.5t-9.5 -25.5v-12h-47v16z" />
    <glyph glyph-name="uni030A" unicode="&#x30a;" 
d="M-430.5 646.5q-37.5 35.5 -37.5 88.5q0 54 37.5 89.5t94.5 35.5q58 0 95 -35.5t37 -89.5q0 -53 -37 -88.5t-95 -35.5q-57 0 -94.5 35.5zM-274.5 675.5q24.5 23.5 24.5 59.5q0 37 -24.5 60.5t-61.5 23.5q-36 0 -60.5 -24t-24.5 -60t24.5 -59.5t60.5 -23.5q37 0 61.5 23.5z
" />
    <glyph glyph-name="uni030B" unicode="&#x30b;" 
d="M-395 611h-52l78 158h61v-7zM-251 611h-52l95 158h60v-7z" />
    <glyph glyph-name="uni030C" unicode="&#x30c;" 
d="M-173 769l-129 -157h-65l-128 157h57l104 -114l104 114h57z" />
    <glyph glyph-name="uni030F" unicode="&#x30f;" 
d="M-526 769h60l95 -158h-52l-103 151v7zM-366 769h61l78 -158h-52l-87 151v7z" />
    <glyph glyph-name="uni0311" unicode="&#x311;" 
d="M-222 725.5q44 -44.5 44 -114.5h-46q-1 49 -32 80t-78 31t-78 -31t-32 -80h-46q0 70 44 114.5t112 44.5t112 -44.5z" />
    <glyph glyph-name="uni0312" unicode="&#x312;" 
d="M-316 611h-68l60 158h40z" />
    <glyph glyph-name="uni031B" unicode="&#x31b;" 
d="M-226 499v43h61q77 0 77 72q0 30 -21 72h57q9 -14 13.5 -35t4.5 -40q0 -53 -33.5 -82.5t-90.5 -29.5h-68z" />
    <glyph glyph-name="dotbelowcomb" unicode="&#x323;" 
d="M-304 -107q12 -12 12 -31t-12 -31t-31 -12t-31 12t-12 31t12 31t31 12t31 -12z" />
    <glyph glyph-name="uni0324" unicode="&#x324;" 
d="M-469 -169q-12 12 -12 31t12 31t31 12t31 -12t12 -31t-12 -31t-31 -12t-31 12zM-257 -169q-12 12 -12 31t12 31t31 12t31 -12t12 -31t-12 -31t-31 -12t-31 12z" />
    <glyph glyph-name="uni0326" unicode="&#x326;" 
d="M-357 -65h68l-62 -146h-41z" />
    <glyph glyph-name="uni0327" unicode="&#x327;" 
d="M-233 -68q31 -22 31 -58q0 -40 -36.5 -63.5t-98.5 -23.5q-43 0 -80.5 11t-61.5 27l23 35q27 -17 58.5 -25t60.5 -8q39 0 60.5 12t21.5 33q0 20 -20 32.5t-54 12.5q-36 0 -66 -14l-20 15l74 100h54l-62 -69q17 5 36 5q49 0 80 -22z" />
    <glyph glyph-name="uni0328" unicode="&#x328;" 
d="M-106 0q-127 -56 -127 -103q0 -21 15.5 -32.5t40.5 -11.5q40 0 76 28l25 -36q-42 -39 -109 -39q-44 0 -73 22t-29 61q0 33 32.5 67t100.5 64z" />
    <glyph glyph-name="uni032E" unicode="&#x32e;" 
d="M-446 -168.5q-44 44.5 -44 114.5h46q1 -49 32 -80t78 -31t78 31t32 80h46q0 -70 -44 -114.5t-112 -44.5t-112 44.5z" />
    <glyph glyph-name="uni0331" unicode="&#x331;" 
d="M-486 -118h304v-48h-304v48z" />
    <glyph glyph-name="Xi" unicode="&#x39e;" horiz-adv-x="718" 
d="M104 720h510v-54h-510v54zM183 407h352v-54h-352v54zM104 54h510v-54h-510v54z" />
    <glyph glyph-name="pi" unicode="&#x3c0;" horiz-adv-x="710" 
d="M532 492v-389q0 -29 15.5 -43.5t42.5 -14.5q21 0 42 8v-52q-22 -9 -49 -9q-50 0 -79.5 27t-29.5 77v396h-243v-492h-58v492h-149v50h653v-50h-145z" />
    <glyph glyph-name="uni058F" unicode="&#x58f;" horiz-adv-x="765" 
d="M587 335v-104h118v-48h-118v-183h-59v183h-250v48h250v104h-250v48h250v119q0 51 -26 91.5t-73 63.5t-106 23q-58 0 -105 -23t-73.5 -63.5t-26.5 -91.5v-118h-58v118q0 67 34 119.5t94 82t135 29.5q77 0 137 -29.5t93.5 -82t33.5 -119.5v-119h118v-48h-118z" />
    <glyph glyph-name="uni0E3F" unicode="&#xe3f;" horiz-adv-x="759" 
d="M663.5 313q40.5 -49 40.5 -116q0 -55 -27.5 -100t-80 -71t-126.5 -26h-67v-126h-54v126h-245v720h245v98h54v-98h33q66 0 113.5 -24t72 -65.5t24.5 -92.5t-25.5 -94t-77.5 -66q80 -16 120.5 -65zM163 667v-272h186v272h-186zM403 667v-272h31q81 0 117 40.5t36 96.5
q0 61 -40.5 98t-117.5 37h-26zM349 53v290h-186v-290h186zM596 92.5q48 39.5 48 107.5q0 66 -46 104.5t-127 38.5h-68v-290h62q83 0 131 39.5z" />
    <glyph glyph-name="uni1E08" unicode="&#x1e08;" horiz-adv-x="754" 
d="M251 35.5q-90 48.5 -141 133.5t-51 190q0 106 51 191.5t140 134t196 48.5q77 0 146 -24.5t113 -68.5l-40 -43q-40 38 -99 59.5t-122 21.5q-87 0 -161 -41.5t-118 -114.5t-44 -163t43.5 -162.5t119 -113.5t166.5 -41q63 0 122.5 20t97.5 59l42 -42q-46 -47 -115 -69.5
t-145 -22.5q-111 0 -201 48.5zM524 -68q31 -22 31 -58q0 -40 -36.5 -63.5t-98.5 -23.5q-43 0 -80.5 11t-61.5 27l23 35q27 -17 58.5 -25t60.5 -8q39 0 60.5 12t21.5 33q0 20 -20 32.5t-54 12.5q-36 0 -66 -14l-20 15l74 100h54l-62 -69q17 5 36 5q49 0 80 -22zM428 789h-59
l125 158h68v-7z" />
    <glyph glyph-name="uni1E09" unicode="&#x1e09;" horiz-adv-x="584" 
d="M196 23.5q-68 36.5 -106 101t-38 146.5q0 81 38.5 146t107 101.5t153.5 36.5q118 0 193 -72l-37 -43q-32 30 -72.5 45.5t-86.5 15.5q-65 0 -119.5 -29.5t-86 -82t-31.5 -118.5q0 -67 31.5 -119t86 -81.5t120.5 -29.5q49 0 93 16t69 45l39 -40q-31 -36 -84 -55.5
t-116 -19.5q-86 0 -154 36.5zM426 -68q31 -22 31 -58q0 -40 -36.5 -63.5t-98.5 -23.5q-43 0 -80.5 11t-61.5 27l23 35q27 -17 58.5 -25t60.5 -8q39 0 60.5 12t21.5 33q0 20 -20 32.5t-54 12.5q-36 0 -66 -14l-20 15l74 100h54l-62 -69q17 5 36 5q49 0 80 -22zM329 611h-59
l125 158h68v-7z" />
    <glyph glyph-name="uni1E0C" unicode="&#x1e0c;" horiz-adv-x="807" 
d="M571.5 675q84.5 -45 130.5 -127t46 -188t-46 -188t-130.5 -127t-196.5 -45h-271v720h271q112 0 196.5 -45zM538.5 92q70.5 38 109 107.5t38.5 160.5t-38.5 160.5t-109 107.5t-165.5 38h-209v-612h209q95 0 165.5 38zM435 -107q12 -12 12 -31t-12 -31t-31 -12t-31 12
t-12 31t12 31t31 12t31 -12z" />
    <glyph glyph-name="uni1E0D" unicode="&#x1e0d;" horiz-adv-x="708" 
d="M613 752v-752h-56v116q-34 -61 -94 -95t-135 -34q-78 0 -140 37t-97.5 102t-35.5 145t35.5 145t97.5 102t140 37q73 0 133 -33.5t94 -92.5v323h58zM445.5 68.5q51.5 28.5 82 81.5t30.5 121t-30.5 120.5t-82 81.5t-111.5 29q-64 0 -114 -30t-78 -83t-28 -118t28 -118
t78 -83t114 -30q60 0 111.5 28.5zM383 -107q12 -12 12 -31t-12 -31t-31 -12t-31 12t-12 31t12 31t31 12t31 -12z" />
    <glyph glyph-name="uni1E0E" unicode="&#x1e0e;" horiz-adv-x="807" 
d="M571.5 675q84.5 -45 130.5 -127t46 -188t-46 -188t-130.5 -127t-196.5 -45h-271v720h271q112 0 196.5 -45zM538.5 92q70.5 38 109 107.5t38.5 160.5t-38.5 160.5t-109 107.5t-165.5 38h-209v-612h209q95 0 165.5 38zM253 -118h304v-48h-304v48z" />
    <glyph glyph-name="uni1E0F" unicode="&#x1e0f;" horiz-adv-x="708" 
d="M613 752v-752h-56v116q-34 -61 -94 -95t-135 -34q-78 0 -140 37t-97.5 102t-35.5 145t35.5 145t97.5 102t140 37q73 0 133 -33.5t94 -92.5v323h58zM445.5 68.5q51.5 28.5 82 81.5t30.5 121t-30.5 120.5t-82 81.5t-111.5 29q-64 0 -114 -30t-78 -83t-28 -118t28 -118
t78 -83t114 -30q60 0 111.5 28.5zM201 -118h304v-48h-304v48z" />
    <glyph glyph-name="uni1E14" unicode="&#x1e14;" horiz-adv-x="694" 
d="M654 0h-550v720h540l-16 -54h-464v-259h318v-54h-318v-299h474zM218 872h304v-48h-304v48zM304 1098l116 -156h-58l-125 148v8h67z" />
    <glyph glyph-name="uni1E15" unicode="&#x1e15;" horiz-adv-x="647" 
d="M606 254h-491q4 -63 34.5 -111.5t82.5 -75.5t119 -27q60 0 107.5 20t77.5 53l38 -40q-33 -39 -91 -62.5t-134 -23.5q-87 0 -153.5 36.5t-103 101t-36.5 145.5t35.5 146t99 102t142.5 37q81 0 143.5 -37.5t97 -102t34.5 -142.5q0 -3 -2 -19zM229.5 477.5
q-46.5 -24.5 -76.5 -70t-36 -105.5h431q-4 55 -32 101t-75.5 72.5t-107.5 26.5q-57 0 -103.5 -24.5zM181 694h304v-48h-304v48zM267 920l116 -156h-58l-125 148v8h67z" />
    <glyph glyph-name="uni1E16" unicode="&#x1e16;" horiz-adv-x="694" 
d="M654 0h-550v720h540l-16 -54h-464v-259h318v-54h-318v-299h474zM218 872h304v-48h-304v48zM372 941h-59l125 158h68v-7z" />
    <glyph glyph-name="uni1E17" unicode="&#x1e17;" horiz-adv-x="647" 
d="M606 254h-491q4 -63 34.5 -111.5t82.5 -75.5t119 -27q60 0 107.5 20t77.5 53l38 -40q-33 -39 -91 -62.5t-134 -23.5q-87 0 -153.5 36.5t-103 101t-36.5 145.5t35.5 146t99 102t142.5 37q81 0 143.5 -37.5t97 -102t34.5 -142.5q0 -3 -2 -19zM229.5 477.5
q-46.5 -24.5 -76.5 -70t-36 -105.5h431q-4 55 -32 101t-75.5 72.5t-107.5 26.5q-57 0 -103.5 -24.5zM181 694h304v-48h-304v48zM335 763h-59l125 158h68v-7z" />
    <glyph glyph-name="uni1E1C" unicode="&#x1e1c;" horiz-adv-x="694" 
d="M654 0h-550v720h540l-16 -54h-464v-259h318v-54h-318v-299h474zM468 -68q31 -22 31 -58q0 -40 -36.5 -63.5t-98.5 -23.5q-43 0 -80.5 11t-61.5 27l23 35q27 -17 58.5 -25t60.5 -8q39 0 60.5 12t21.5 33q0 20 -20 32.5t-54 12.5q-36 0 -66 -14l-20 15l74 100h54l-62 -69
q17 5 36 5q49 0 80 -22zM258 832.5q-44 44.5 -44 114.5h46q1 -49 32 -80t78 -31t78 31t32 80h46q0 -70 -44 -114.5t-112 -44.5t-112 44.5z" />
    <glyph glyph-name="uni1E1D" unicode="&#x1e1d;" horiz-adv-x="647" 
d="M606 254h-491q4 -63 34.5 -111.5t82.5 -75.5t119 -27q60 0 107.5 20t77.5 53l38 -40q-33 -39 -91 -62.5t-134 -23.5q-87 0 -153.5 36.5t-103 101t-36.5 145.5t35.5 146t99 102t142.5 37q81 0 143.5 -37.5t97 -102t34.5 -142.5q0 -3 -2 -19zM229.5 477.5
q-46.5 -24.5 -76.5 -70t-36 -105.5h431q-4 55 -32 101t-75.5 72.5t-107.5 26.5q-57 0 -103.5 -24.5zM431 -68q31 -22 31 -58q0 -40 -36.5 -63.5t-98.5 -23.5q-43 0 -80.5 11t-61.5 27l23 35q27 -17 58.5 -25t60.5 -8q39 0 60.5 12t21.5 33q0 20 -20 32.5t-54 12.5
q-36 0 -66 -14l-20 15l74 100h54l-62 -69q17 5 36 5q49 0 80 -22zM221 654.5q-44 44.5 -44 114.5h46q1 -49 32 -80t78 -31t78 31t32 80h46q0 -70 -44 -114.5t-112 -44.5t-112 44.5z" />
    <glyph glyph-name="uni1E20" unicode="&#x1e20;" horiz-adv-x="820" 
d="M745 76q-50 -46 -124 -67.5t-154 -21.5q-121 0 -214 48t-143.5 132.5t-50.5 191.5t50.5 192.5t140.5 133.5t204 48q84 0 153 -25.5t110 -64.5l-38 -44q-36 33 -96 56t-132 23q-94 0 -169.5 -41t-118 -113.5t-42.5 -164.5t43 -164t121.5 -112.5t183.5 -40.5q61 0 117.5 15
t99.5 46v233h-245v53h304v-313zM282 872h304v-48h-304v48z" />
    <glyph glyph-name="uni1E21" unicode="&#x1e21;" horiz-adv-x="678" 
d="M593 542v-493q0 -72 -34 -125.5t-96 -82.5t-144 -29q-131 0 -221 53l26 50q83 -50 195 -50q99 0 157.5 49.5t58.5 137.5v81q-34 -54 -92 -84t-127 -30q-74 0 -135.5 35.5t-96.5 97t-35 135.5t35 135t96.5 97t135.5 36q70 0 128.5 -31t92.5 -87v105h56zM429.5 98.5
q50.5 26.5 80.5 75t30 113.5q0 64 -30 113t-80.5 75.5t-110.5 26.5q-58 0 -106.5 -28.5t-76.5 -78t-28 -108.5q0 -60 28 -109t76.5 -77.5t106.5 -28.5q60 0 110.5 26.5zM183 694h304v-48h-304v48z" />
    <glyph glyph-name="uni1E24" unicode="&#x1e24;" horiz-adv-x="836" 
d="M732 720v-720h-60v356h-508v-356h-60v720h60v-310h508v310h60zM448 -107q12 -12 12 -31t-12 -31t-31 -12t-31 12t-12 31t12 31t31 12t31 -12z" />
    <glyph glyph-name="uni1E25" unicode="&#x1e25;" horiz-adv-x="663" 
d="M519.5 500q58.5 -55 58.5 -149v-351h-58v342q0 74 -43.5 116.5t-124.5 42.5q-59 0 -104 -23t-70 -61.5t-25 -84.5v-332h-58v752h58v-298q36 52 90.5 76.5t118.5 24.5q99 0 157.5 -55zM364 -107q12 -12 12 -31t-12 -31t-31 -12t-31 12t-12 31t12 31t31 12t31 -12z" />
    <glyph glyph-name="uni1E2A" unicode="&#x1e2a;" horiz-adv-x="836" 
d="M732 720v-720h-60v356h-508v-356h-60v720h60v-310h508v310h60zM306 -168.5q-44 44.5 -44 114.5h46q1 -49 32 -80t78 -31t78 31t32 80h46q0 -70 -44 -114.5t-112 -44.5t-112 44.5z" />
    <glyph glyph-name="uni1E2B" unicode="&#x1e2b;" horiz-adv-x="663" 
d="M519.5 500q58.5 -55 58.5 -149v-351h-58v342q0 74 -43.5 116.5t-124.5 42.5q-59 0 -104 -23t-70 -61.5t-25 -84.5v-332h-58v752h58v-298q36 52 90.5 76.5t118.5 24.5q99 0 157.5 -55zM222 -168.5q-44 44.5 -44 114.5h46q1 -49 32 -80t78 -31t78 31t32 80h46
q0 -70 -44 -114.5t-112 -44.5t-112 44.5z" />
    <glyph glyph-name="uni1E2E" unicode="&#x1e2e;" horiz-adv-x="280" 
d="M142 969h-59l125 158h68v-7zM21 832q-12 12 -12 31t12 31t31 12t31 -12t12 -31t-12 -31t-31 -12t-31 12zM197 832q-12 12 -12 31t12 31t31 12t31 -12t12 -31t-12 -31t-31 -12t-31 12zM170 720v-720h-60v720h60z" />
    <glyph glyph-name="uni1E2F" unicode="&#x1e2f;" horiz-adv-x="256" 
d="M130 791h-59l125 158h68v-7zM9 654q-12 12 -12 31t12 31t31 12t31 -12t12 -31t-12 -31t-31 -12t-31 12zM185 654q-12 12 -12 31t12 31t31 12t31 -12t12 -31t-12 -31t-31 -12t-31 12zM99 542h58v-542h-58v542z" />
    <glyph glyph-name="uni1E36" unicode="&#x1e36;" horiz-adv-x="665" 
d="M623 54v-54h-519v720h60v-666h459zM392 -107q12 -12 12 -31t-12 -31t-31 -12t-31 12t-12 31t12 31t31 12t31 -12z" />
    <glyph glyph-name="uni1E37" unicode="&#x1e37;" horiz-adv-x="282" 
d="M157 752v-650q0 -28 16 -42.5t43 -14.5q23 0 41 7v-51q-21 -8 -45 -8q-54 0 -83.5 27t-29.5 77v655h58zM200 -107q12 -12 12 -31t-12 -31t-31 -12t-31 12t-12 31t12 31t31 12t31 -12z" />
    <glyph glyph-name="uni1E3A" unicode="&#x1e3a;" horiz-adv-x="665" 
d="M623 54v-54h-519v720h60v-666h459zM210 -118h304v-48h-304v48z" />
    <glyph glyph-name="uni1E3B" unicode="&#x1e3b;" horiz-adv-x="282" 
d="M157 752v-650q0 -28 16 -42.5t43 -14.5q23 0 41 7v-51q-21 -8 -45 -8q-54 0 -83.5 27t-29.5 77v655h58zM33.6182 -118h273.589v-48h-273.589v48z" />
    <glyph glyph-name="uni1E42" unicode="&#x1e42;" horiz-adv-x="984" 
d="M880 0h-58v649l-310 -631h-44l-306 624v-642h-58v720h81l306 -625l307 625h82v-720zM522 -107q12 -12 12 -31t-12 -31t-31 -12t-31 12t-12 31t12 31t31 12t31 -12z" />
    <glyph glyph-name="uni1E43" unicode="&#x1e43;" horiz-adv-x="1034" 
d="M850.5 530q46.5 -25 72.5 -71t26 -108v-351h-58v342q0 73 -41.5 116t-112.5 43q-53 0 -95.5 -23t-66.5 -61.5t-24 -84.5v-332h-58v342q0 73 -41.5 116t-112.5 43q-53 0 -95.5 -23t-66.5 -61.5t-24 -84.5v-332h-58v542h56v-91q34 53 87.5 78.5t108.5 25.5q67 0 116 -31
t72 -86q35 59 92 88t116 29q61 0 107.5 -25zM552 -107q12 -12 12 -31t-12 -31t-31 -12t-31 12t-12 31t12 31t31 12t31 -12z" />
    <glyph glyph-name="uni1E44" unicode="&#x1e44;" horiz-adv-x="820" 
d="M716 720v-720h-66l-488 639v-639h-58v720h67l487 -638v638h58zM443 894q12 -12 12 -31t-12 -31t-31 -12t-31 12t-12 31t12 31t31 12t31 -12z" />
    <glyph glyph-name="uni1E45" unicode="&#x1e45;" horiz-adv-x="661" 
d="M517.5 500q58.5 -55 58.5 -149v-351h-58v342q0 74 -43.5 116.5t-123.5 42.5q-58 0 -103.5 -23t-70 -61.5t-24.5 -84.5v-332h-58v542h56v-91q35 54 90.5 79t119.5 25q98 0 156.5 -55zM369 716q12 -12 12 -31t-12 -31t-31 -12t-31 12t-12 31t12 31t31 12t31 -12z" />
    <glyph glyph-name="uni1E46" unicode="&#x1e46;" horiz-adv-x="820" 
d="M716 720v-720h-66l-488 639v-639h-58v720h67l487 -638v638h58zM442 -107q12 -12 12 -31t-12 -31t-31 -12t-31 12t-12 31t12 31t31 12t31 -12z" />
    <glyph glyph-name="uni1E47" unicode="&#x1e47;" horiz-adv-x="661" 
d="M517.5 500q58.5 -55 58.5 -149v-351h-58v342q0 74 -43.5 116.5t-123.5 42.5q-58 0 -103.5 -23t-70 -61.5t-24.5 -84.5v-332h-58v542h56v-91q35 54 90.5 79t119.5 25q98 0 156.5 -55zM368 -107q12 -12 12 -31t-12 -31t-31 -12t-31 12t-12 31t12 31t31 12t31 -12z" />
    <glyph glyph-name="uni1E48" unicode="&#x1e48;" horiz-adv-x="820" 
d="M716 720v-720h-66l-488 639v-639h-58v720h67l487 -638v638h58zM260 -118h304v-48h-304v48z" />
    <glyph glyph-name="uni1E49" unicode="&#x1e49;" horiz-adv-x="661" 
d="M517.5 500q58.5 -55 58.5 -149v-351h-58v342q0 74 -43.5 116.5t-123.5 42.5q-58 0 -103.5 -23t-70 -61.5t-24.5 -84.5v-332h-58v542h56v-91q35 54 90.5 79t119.5 25q98 0 156.5 -55zM186 -118h304v-48h-304v48z" />
    <glyph glyph-name="uni1E4C" unicode="&#x1e4c;" horiz-adv-x="862" 
d="M239.5 35q-84.5 48 -132.5 133t-48 192t48 192t132.5 133t191.5 48t191.5 -48t132.5 -133t48 -192t-48 -192t-132.5 -133t-191.5 -48t-191.5 48zM590.5 83q70.5 41 110.5 113.5t40 163.5t-40 163.5t-110.5 113.5t-159.5 41t-159.5 -41t-110.5 -113.5t-40 -163.5
t40 -163.5t110.5 -113.5t159.5 -41t159.5 41zM460 812.5q-22 13.5 -48 38.5q-20 19 -34 28.5t-31 9.5q-26 0 -41.5 -23.5t-17.5 -63.5h-48q2 61 30.5 98t77.5 37q30 0 51 -13t49 -39q20 -20 34 -29.5t31 -9.5q26 0 41.5 23.5t17.5 63.5h48q-2 -61 -30.5 -97.5t-77.5 -36.5
q-30 0 -52 13.5zM433 990h-59l125 158h68v-7z" />
    <glyph glyph-name="uni1E4D" unicode="&#x1e4d;" horiz-adv-x="674" 
d="M483 24.5q65 37.5 102 102.5t37 144t-37 144t-102 102.5t-146 37.5t-146 -37.5t-102 -102.5t-37 -144t37 -144t102 -102.5t146 -37.5t146 37.5zM451.5 471q51.5 -30 81.5 -83t30 -117t-30 -117t-81.5 -83t-114.5 -30t-114.5 30t-81.5 83t-30 117t30 117t81.5 83t114.5 30
t114.5 -30zM366 634.5q-22 13.5 -48 38.5q-20 19 -34 28.5t-31 9.5q-26 0 -41.5 -23.5t-17.5 -63.5h-48q2 61 30.5 98t77.5 37q30 0 51 -13t49 -39q20 -20 34 -29.5t31 -9.5q26 0 41.5 23.5t17.5 63.5h48q-2 -61 -30.5 -97.5t-77.5 -36.5q-30 0 -52 13.5zM339 812h-59
l125 158h68v-7z" />
    <glyph glyph-name="uni1E4E" unicode="&#x1e4e;" horiz-adv-x="862" 
d="M239.5 35q-84.5 48 -132.5 133t-48 192t48 192t132.5 133t191.5 48t191.5 -48t132.5 -133t48 -192t-48 -192t-132.5 -133t-191.5 -48t-191.5 48zM590.5 83q70.5 41 110.5 113.5t40 163.5t-40 163.5t-110.5 113.5t-159.5 41t-159.5 -41t-110.5 -113.5t-40 -163.5
t40 -163.5t110.5 -113.5t159.5 -41t159.5 41zM460 812.5q-22 13.5 -48 38.5q-20 19 -34 28.5t-31 9.5q-26 0 -41.5 -23.5t-17.5 -63.5h-48q2 61 30.5 98t77.5 37q30 0 51 -13t49 -39q20 -20 34 -29.5t31 -9.5q26 0 41.5 23.5t17.5 63.5h48q-2 -61 -30.5 -97.5t-77.5 -36.5
q-30 0 -52 13.5zM294 1033q-12 12 -12 31t12 31t31 12t31 -12t12 -31t-12 -31t-31 -12t-31 12zM506 1033q-12 12 -12 31t12 31t31 12t31 -12t12 -31t-12 -31t-31 -12t-31 12z" />
    <glyph glyph-name="uni1E4F" unicode="&#x1e4f;" horiz-adv-x="674" 
d="M483 24.5q65 37.5 102 102.5t37 144t-37 144t-102 102.5t-146 37.5t-146 -37.5t-102 -102.5t-37 -144t37 -144t102 -102.5t146 -37.5t146 37.5zM451.5 471q51.5 -30 81.5 -83t30 -117t-30 -117t-81.5 -83t-114.5 -30t-114.5 30t-81.5 83t-30 117t30 117t81.5 83t114.5 30
t114.5 -30zM366 634.5q-22 13.5 -48 38.5q-20 19 -34 28.5t-31 9.5q-26 0 -41.5 -23.5t-17.5 -63.5h-48q2 61 30.5 98t77.5 37q30 0 51 -13t49 -39q20 -20 34 -29.5t31 -9.5q26 0 41.5 23.5t17.5 63.5h48q-2 -61 -30.5 -97.5t-77.5 -36.5q-30 0 -52 13.5zM200 855
q-12 12 -12 31t12 31t31 12t31 -12t12 -31t-12 -31t-31 -12t-31 12zM412 855q-12 12 -12 31t12 31t31 12t31 -12t12 -31t-12 -31t-31 -12t-31 12z" />
    <glyph glyph-name="uni1E50" unicode="&#x1e50;" horiz-adv-x="862" 
d="M239.5 35q-84.5 48 -132.5 133t-48 192t48 192t132.5 133t191.5 48t191.5 -48t132.5 -133t48 -192t-48 -192t-132.5 -133t-191.5 -48t-191.5 48zM590.5 83q70.5 41 110.5 113.5t40 163.5t-40 163.5t-110.5 113.5t-159.5 41t-159.5 -41t-110.5 -113.5t-40 -163.5
t40 -163.5t110.5 -113.5t159.5 -41t159.5 41zM279 872h304v-48h-304v48zM365 1098l116 -156h-58l-125 148v8h67z" />
    <glyph glyph-name="uni1E51" unicode="&#x1e51;" horiz-adv-x="674" 
d="M483 24.5q65 37.5 102 102.5t37 144t-37 144t-102 102.5t-146 37.5t-146 -37.5t-102 -102.5t-37 -144t37 -144t102 -102.5t146 -37.5t146 37.5zM451.5 471q51.5 -30 81.5 -83t30 -117t-30 -117t-81.5 -83t-114.5 -30t-114.5 30t-81.5 83t-30 117t30 117t81.5 83t114.5 30
t114.5 -30zM185 694h304v-48h-304v48zM271 920l116 -156h-58l-125 148v8h67z" />
    <glyph glyph-name="uni1E52" unicode="&#x1e52;" horiz-adv-x="862" 
d="M239.5 35q-84.5 48 -132.5 133t-48 192t48 192t132.5 133t191.5 48t191.5 -48t132.5 -133t48 -192t-48 -192t-132.5 -133t-191.5 -48t-191.5 48zM590.5 83q70.5 41 110.5 113.5t40 163.5t-40 163.5t-110.5 113.5t-159.5 41t-159.5 -41t-110.5 -113.5t-40 -163.5
t40 -163.5t110.5 -113.5t159.5 -41t159.5 41zM279 872h304v-48h-304v48zM433 941h-59l125 158h68v-7z" />
    <glyph glyph-name="uni1E53" unicode="&#x1e53;" horiz-adv-x="674" 
d="M483 24.5q65 37.5 102 102.5t37 144t-37 144t-102 102.5t-146 37.5t-146 -37.5t-102 -102.5t-37 -144t37 -144t102 -102.5t146 -37.5t146 37.5zM451.5 471q51.5 -30 81.5 -83t30 -117t-30 -117t-81.5 -83t-114.5 -30t-114.5 30t-81.5 83t-30 117t30 117t81.5 83t114.5 30
t114.5 -30zM185 694h304v-48h-304v48zM339 763h-59l125 158h68v-7z" />
    <glyph glyph-name="uni1E5A" unicode="&#x1e5a;" horiz-adv-x="767" 
d="M424 326h-261v-326h-59v720h359q67 0 116.5 -25.5t76.5 -70.5t27 -101q0 -79 -52.5 -133.5t-140.5 -62.5l230 -327h-71zM163 379h294q77 0 121 39.5t44 103.5t-44 104t-121 40h-294v-287zM405 -107q12 -12 12 -31t-12 -31t-31 -12t-31 12t-12 31t12 31t31 12t31 -12z" />
    <glyph glyph-name="uni1E5B" unicode="&#x1e5b;" horiz-adv-x="420" 
d="M397 543v-55q-27 7 -55 7q-53 0 -96 -22.5t-68 -63t-25 -91.5v-318h-58v542h56v-101q30 55 82.5 82t107.5 27q31 0 56 -7zM154 -107q12 -12 12 -31t-12 -31t-31 -12t-31 12t-12 31t12 31t31 12t31 -12z" />
    <glyph glyph-name="uni1E5E" unicode="&#x1e5e;" horiz-adv-x="767" 
d="M424 326h-261v-326h-59v720h359q67 0 116.5 -25.5t76.5 -70.5t27 -101q0 -79 -52.5 -133.5t-140.5 -62.5l230 -327h-71zM163 379h294q77 0 121 39.5t44 103.5t-44 104t-121 40h-294v-287zM223 -118h304v-48h-304v48z" />
    <glyph glyph-name="uni1E5F" unicode="&#x1e5f;" horiz-adv-x="420" 
d="M397 543v-55q-27 7 -55 7q-53 0 -96 -22.5t-68 -63t-25 -91.5v-318h-58v542h56v-101q30 55 82.5 82t107.5 27q31 0 56 -7zM-12.3818 -118h273.589v-48h-273.589v48z" />
    <glyph glyph-name="uni1E60" unicode="&#x1e60;" horiz-adv-x="692" 
d="M191 17q-80 27 -137 76l40 47q54 -47 122.5 -71t143.5 -24q58 0 106 18.5t76.5 52.5t28.5 79q0 108 -160 139l-149 29q-189 37 -189 172q0 59 36.5 103.5t99.5 69t141 24.5q165 0 262 -91l-37 -44q-50 44 -109 62.5t-117 18.5q-60 0 -109.5 -18t-78 -49.5t-28.5 -72.5
q0 -45 37.5 -74.5t117.5 -45.5l145 -29q98 -19 148 -68.5t50 -122.5q0 -61 -34 -108t-95.5 -73.5t-139.5 -26.5q-91 0 -171 27zM376 894q12 -12 12 -31t-12 -31t-31 -12t-31 12t-12 31t12 31t31 12t31 -12z" />
    <glyph glyph-name="uni1E61" unicode="&#x1e61;" horiz-adv-x="571" 
d="M176.5 63.5q58.5 -21.5 122.5 -21.5q72 0 117.5 29t45.5 77q0 36 -28 58t-85 33l-133 25q-79 15 -115.5 50t-36.5 84q0 44 26.5 79t77 55.5t120.5 20.5q61 0 117.5 -17t101.5 -54l-33 -44q-36 30 -87 46.5t-104 16.5q-71 0 -116 -28.5t-45 -72.5q0 -32 28.5 -51.5
t91.5 -31.5l128 -25q81 -16 115.5 -53.5t34.5 -87.5q0 -47 -28 -83.5t-78.5 -57t-116.5 -20.5q-69 0 -137 21.5t-112 59.5l34 45q36 -31 94.5 -52.5zM323 716q12 -12 12 -31t-12 -31t-31 -12t-31 12t-12 31t12 31t31 12t31 -12z" />
    <glyph glyph-name="uni1E62" unicode="&#x1e62;" horiz-adv-x="692" 
d="M191 17q-80 27 -137 76l40 47q54 -47 122.5 -71t143.5 -24q58 0 106 18.5t76.5 52.5t28.5 79q0 108 -160 139l-149 29q-189 37 -189 172q0 59 36.5 103.5t99.5 69t141 24.5q165 0 262 -91l-37 -44q-50 44 -109 62.5t-117 18.5q-60 0 -109.5 -18t-78 -49.5t-28.5 -72.5
q0 -45 37.5 -74.5t117.5 -45.5l145 -29q98 -19 148 -68.5t50 -122.5q0 -61 -34 -108t-95.5 -73.5t-139.5 -26.5q-91 0 -171 27zM375 -107q12 -12 12 -31t-12 -31t-31 -12t-31 12t-12 31t12 31t31 12t31 -12z" />
    <glyph glyph-name="uni1E63" unicode="&#x1e63;" horiz-adv-x="571" 
d="M176.5 63.5q58.5 -21.5 122.5 -21.5q72 0 117.5 29t45.5 77q0 36 -28 58t-85 33l-133 25q-79 15 -115.5 50t-36.5 84q0 44 26.5 79t77 55.5t120.5 20.5q61 0 117.5 -17t101.5 -54l-33 -44q-36 30 -87 46.5t-104 16.5q-71 0 -116 -28.5t-45 -72.5q0 -32 28.5 -51.5
t91.5 -31.5l128 -25q81 -16 115.5 -53.5t34.5 -87.5q0 -47 -28 -83.5t-78.5 -57t-116.5 -20.5q-69 0 -137 21.5t-112 59.5l34 45q36 -31 94.5 -52.5zM322 -107q12 -12 12 -31t-12 -31t-31 -12t-31 12t-12 31t12 31t31 12t31 -12z" />
    <glyph glyph-name="uni1E64" unicode="&#x1e64;" horiz-adv-x="692" 
d="M191 17q-80 27 -137 76l40 47q54 -47 122.5 -71t143.5 -24q58 0 106 18.5t76.5 52.5t28.5 79q0 108 -160 139l-149 29q-189 37 -189 172q0 59 36.5 103.5t99.5 69t141 24.5q165 0 262 -91l-37 -44q-50 44 -109 62.5t-117 18.5q-60 0 -109.5 -18t-78 -49.5t-28.5 -72.5
q0 -45 37.5 -74.5t117.5 -45.5l145 -29q98 -19 148 -68.5t50 -122.5q0 -61 -34 -108t-95.5 -73.5t-139.5 -26.5q-91 0 -171 27zM372 789h-59l125 158h68v-7zM302 997q12 -12 12 -31t-12 -31t-31 -12t-31 12t-12 31t12 31t31 12t31 -12z" />
    <glyph glyph-name="uni1E65" unicode="&#x1e65;" horiz-adv-x="571" 
d="M176.5 63.5q58.5 -21.5 122.5 -21.5q72 0 117.5 29t45.5 77q0 36 -28 58t-85 33l-133 25q-79 15 -115.5 50t-36.5 84q0 44 26.5 79t77 55.5t120.5 20.5q61 0 117.5 -17t101.5 -54l-33 -44q-36 30 -87 46.5t-104 16.5q-71 0 -116 -28.5t-45 -72.5q0 -32 28.5 -51.5
t91.5 -31.5l128 -25q81 -16 115.5 -53.5t34.5 -87.5q0 -47 -28 -83.5t-78.5 -57t-116.5 -20.5q-69 0 -137 21.5t-112 59.5l34 45q36 -31 94.5 -52.5zM290 611h-59l125 158h68v-7zM220 818q12 -12 12 -31t-12 -31t-31 -12t-31 12t-12 31t12 31t31 12t31 -12z" />
    <glyph glyph-name="uni1E66" unicode="&#x1e66;" horiz-adv-x="692" 
d="M191 17q-80 27 -137 76l40 47q54 -47 122.5 -71t143.5 -24q58 0 106 18.5t76.5 52.5t28.5 79q0 108 -160 139l-149 29q-189 37 -189 172q0 59 36.5 103.5t99.5 69t141 24.5q165 0 262 -91l-37 -44q-50 44 -109 62.5t-117 18.5q-60 0 -109.5 -18t-78 -49.5t-28.5 -72.5
q0 -45 37.5 -74.5t117.5 -45.5l145 -29q98 -19 148 -68.5t50 -122.5q0 -61 -34 -108t-95.5 -73.5t-139.5 -26.5q-91 0 -171 27zM506 947l-129 -157h-65l-128 157h57l104 -114l104 114h57zM376 1070q12 -12 12 -31t-12 -31t-31 -12t-31 12t-12 31t12 31t31 12t31 -12z" />
    <glyph glyph-name="uni1E67" unicode="&#x1e67;" horiz-adv-x="571" 
d="M176.5 63.5q58.5 -21.5 122.5 -21.5q72 0 117.5 29t45.5 77q0 36 -28 58t-85 33l-133 25q-79 15 -115.5 50t-36.5 84q0 44 26.5 79t77 55.5t120.5 20.5q61 0 117.5 -17t101.5 -54l-33 -44q-36 30 -87 46.5t-104 16.5q-71 0 -116 -28.5t-45 -72.5q0 -32 28.5 -51.5
t91.5 -31.5l128 -25q81 -16 115.5 -53.5t34.5 -87.5q0 -47 -28 -83.5t-78.5 -57t-116.5 -20.5q-69 0 -137 21.5t-112 59.5l34 45q36 -31 94.5 -52.5zM453 769l-129 -157h-65l-128 157h57l104 -114l104 114h57zM323 892q12 -12 12 -31t-12 -31t-31 -12t-31 12t-12 31t12 31
t31 12t31 -12z" />
    <glyph glyph-name="uni1E68" unicode="&#x1e68;" horiz-adv-x="692" 
d="M191 17q-80 27 -137 76l40 47q54 -47 122.5 -71t143.5 -24q58 0 106 18.5t76.5 52.5t28.5 79q0 108 -160 139l-149 29q-189 37 -189 172q0 59 36.5 103.5t99.5 69t141 24.5q165 0 262 -91l-37 -44q-50 44 -109 62.5t-117 18.5q-60 0 -109.5 -18t-78 -49.5t-28.5 -72.5
q0 -45 37.5 -74.5t117.5 -45.5l145 -29q98 -19 148 -68.5t50 -122.5q0 -61 -34 -108t-95.5 -73.5t-139.5 -26.5q-91 0 -171 27zM375 -107q12 -12 12 -31t-12 -31t-31 -12t-31 12t-12 31t12 31t31 12t31 -12zM376 894q12 -12 12 -31t-12 -31t-31 -12t-31 12t-12 31t12 31
t31 12t31 -12z" />
    <glyph glyph-name="uni1E69" unicode="&#x1e69;" horiz-adv-x="571" 
d="M176.5 63.5q58.5 -21.5 122.5 -21.5q72 0 117.5 29t45.5 77q0 36 -28 58t-85 33l-133 25q-79 15 -115.5 50t-36.5 84q0 44 26.5 79t77 55.5t120.5 20.5q61 0 117.5 -17t101.5 -54l-33 -44q-36 30 -87 46.5t-104 16.5q-71 0 -116 -28.5t-45 -72.5q0 -32 28.5 -51.5
t91.5 -31.5l128 -25q81 -16 115.5 -53.5t34.5 -87.5q0 -47 -28 -83.5t-78.5 -57t-116.5 -20.5q-69 0 -137 21.5t-112 59.5l34 45q36 -31 94.5 -52.5zM322 -107q12 -12 12 -31t-12 -31t-31 -12t-31 12t-12 31t12 31t31 12t31 -12zM323 716q12 -12 12 -31t-12 -31t-31 -12
t-31 12t-12 31t12 31t31 12t31 -12z" />
    <glyph glyph-name="uni1E6C" unicode="&#x1e6c;" horiz-adv-x="670" 
d="M629 666h-264v-666h-60v666h-264v54h588v-54zM365 -107q12 -12 12 -31t-12 -31t-31 -12t-31 12t-12 31t12 31t31 12t31 -12z" />
    <glyph glyph-name="uni1E6D" unicode="&#x1e6d;" horiz-adv-x="415" 
d="M382 63v-54q-16 -9 -40.5 -14t-50.5 -5q-82 0 -128.5 46t-46.5 126v330h-92v50h92v140l58 27v-167h204v-50h-204v-324q0 -59 32.5 -91.5t88.5 -32.5q46 0 87 19zM253 -107q12 -12 12 -31t-12 -31t-31 -12t-31 12t-12 31t12 31t31 12t31 -12z" />
    <glyph glyph-name="uni1E6E" unicode="&#x1e6e;" horiz-adv-x="670" 
d="M629 666h-264v-666h-60v666h-264v54h588v-54zM183 -118h304v-48h-304v48z" />
    <glyph glyph-name="uni1E6F" unicode="&#x1e6f;" horiz-adv-x="415" 
d="M382 63v-54q-16 -9 -40.5 -14t-50.5 -5q-82 0 -128.5 46t-46.5 126v330h-92v50h92v140l58 27v-167h204v-50h-204v-324q0 -59 32.5 -91.5t88.5 -32.5q46 0 87 19zM71 -118h304v-48h-304v48z" />
    <glyph glyph-name="uni1E78" unicode="&#x1e78;" horiz-adv-x="774" 
d="M232.5 20q-67.5 33 -105 94t-37.5 142v464h60v-459q0 -67 30 -116.5t83.5 -76t123.5 -26.5t123.5 26.5t83.5 76t30 116.5v459h60v-464q0 -81 -37.5 -142t-105 -94t-154.5 -33t-154.5 33zM416 812.5q-22 13.5 -48 38.5q-20 19 -34 28.5t-31 9.5q-26 0 -41.5 -23.5
t-17.5 -63.5h-48q2 61 30.5 98t77.5 37q30 0 51 -13t49 -39q20 -20 34 -29.5t31 -9.5q26 0 41.5 23.5t17.5 63.5h48q-2 -61 -30.5 -97.5t-77.5 -36.5q-30 0 -52 13.5zM389 990h-59l125 158h68v-7z" />
    <glyph glyph-name="uni1E79" unicode="&#x1e79;" horiz-adv-x="657" 
d="M562 542v-542h-56v91q-35 -54 -90 -79t-118 -25q-97 0 -155 55.5t-58 148.5v351h58v-342q0 -74 43 -116.5t122 -42.5q57 0 102 23t69.5 61.5t24.5 84.5v332h58zM353 634.5q-22 13.5 -48 38.5q-20 19 -34 28.5t-31 9.5q-26 0 -41.5 -23.5t-17.5 -63.5h-48q2 61 30.5 98
t77.5 37q30 0 51 -13t49 -39q20 -20 34 -29.5t31 -9.5q26 0 41.5 23.5t17.5 63.5h48q-2 -61 -30.5 -97.5t-77.5 -36.5q-30 0 -52 13.5zM326 812h-59l125 158h68v-7z" />
    <glyph glyph-name="uni1E7A" unicode="&#x1e7a;" horiz-adv-x="774" 
d="M232.5 20q-67.5 33 -105 94t-37.5 142v464h60v-459q0 -67 30 -116.5t83.5 -76t123.5 -26.5t123.5 26.5t83.5 76t30 116.5v459h60v-464q0 -81 -37.5 -142t-105 -94t-154.5 -33t-154.5 33zM235 872h304v-48h-304v48zM250 984q-12 12 -12 31t12 31t31 12t31 -12t12 -31
t-12 -31t-31 -12t-31 12zM462 984q-12 12 -12 31t12 31t31 12t31 -12t12 -31t-12 -31t-31 -12t-31 12z" />
    <glyph glyph-name="uni1E7B" unicode="&#x1e7b;" horiz-adv-x="657" 
d="M562 542v-542h-56v91q-35 -54 -90 -79t-118 -25q-97 0 -155 55.5t-58 148.5v351h58v-342q0 -74 43 -116.5t122 -42.5q57 0 102 23t69.5 61.5t24.5 84.5v332h58zM172 694h304v-48h-304v48zM187 806q-12 12 -12 31t12 31t31 12t31 -12t12 -31t-12 -31t-31 -12t-31 12z
M399 806q-12 12 -12 31t12 31t31 12t31 -12t12 -31t-12 -31t-31 -12t-31 12z" />
    <glyph glyph-name="Wgrave" unicode="&#x1e80;" horiz-adv-x="1153" 
d="M1104 720l-252 -720h-74l-203 640l-195 -640h-75l-256 720h64l230 -657l200 654h66l207 -653l226 656h62zM509 946l116 -156h-58l-125 148v8h67z" />
    <glyph glyph-name="wgrave" unicode="&#x1e81;" horiz-adv-x="945" 
d="M916 542l-209 -542h-69l-164 463l-164 -463h-70l-210 542h64l181 -484l170 478h59l170 -481l180 487h62zM408 768l116 -156h-58l-125 148v8h67z" />
    <glyph glyph-name="Wacute" unicode="&#x1e82;" horiz-adv-x="1153" 
d="M1104 720l-252 -720h-74l-203 640l-195 -640h-75l-256 720h64l230 -657l200 654h66l207 -653l226 656h62zM577 789h-59l125 158h68v-7z" />
    <glyph glyph-name="wacute" unicode="&#x1e83;" horiz-adv-x="945" 
d="M916 542l-209 -542h-69l-164 463l-164 -463h-70l-210 542h64l181 -484l170 478h59l170 -481l180 487h62zM476 611h-59l125 158h68v-7z" />
    <glyph glyph-name="Wdieresis" unicode="&#x1e84;" horiz-adv-x="1153" 
d="M1104 720l-252 -720h-74l-203 640l-195 -640h-75l-256 720h64l230 -657l200 654h66l207 -653l226 656h62zM438 832q-12 12 -12 31t12 31t31 12t31 -12t12 -31t-12 -31t-31 -12t-31 12zM650 832q-12 12 -12 31t12 31t31 12t31 -12t12 -31t-12 -31t-31 -12t-31 12z" />
    <glyph glyph-name="wdieresis" unicode="&#x1e85;" horiz-adv-x="945" 
d="M916 542l-209 -542h-69l-164 463l-164 -463h-70l-210 542h64l181 -484l170 478h59l170 -481l180 487h62zM337 654q-12 12 -12 31t12 31t31 12t31 -12t12 -31t-12 -31t-31 -12t-31 12zM549 654q-12 12 -12 31t12 31t31 12t31 -12t12 -31t-12 -31t-31 -12t-31 12z" />
    <glyph glyph-name="uni1E8E" unicode="&#x1e8e;" horiz-adv-x="720" 
d="M391 248v-248h-60v247l-304 473h70l264 -419l264 419h68zM391 894q12 -12 12 -31t-12 -31t-31 -12t-31 12t-12 31t12 31t31 12t31 -12z" />
    <glyph glyph-name="uni1E8F" unicode="&#x1e8f;" horiz-adv-x="599" 
d="M579 542l-285 -619q-52 -113 -160 -113q-53 0 -103 22l20 51q42 -21 81 -21t67 20.5t48 64.5l26 56l-250 539h65l215 -478l213 478h63zM332 716q12 -12 12 -31t-12 -31t-31 -12t-31 12t-12 31t12 31t31 12t31 -12z" />
    <glyph glyph-name="uni1E92" unicode="&#x1e92;" horiz-adv-x="688" 
d="M630 53v-53h-572v46l480 621h-457v53h532v-47l-479 -620h496zM381 -107q12 -12 12 -31t-12 -31t-31 -12t-31 12t-12 31t12 31t31 12t31 -12z" />
    <glyph glyph-name="uni1E93" unicode="&#x1e93;" horiz-adv-x="561" 
d="M508 49v-49h-453v40l366 453h-349v49h423v-40l-366 -453h379zM315 -107q12 -12 12 -31t-12 -31t-31 -12t-31 12t-12 31t12 31t31 12t31 -12z" />
    <glyph glyph-name="uni1E97" unicode="&#x1e97;" horiz-adv-x="415" 
d="M382 63v-54q-16 -9 -40.5 -14t-50.5 -5q-82 0 -128.5 46t-46.5 126v330h-92v50h92v140l58 27v-167h204v-50h-204v-324q0 -59 32.5 -91.5t88.5 -32.5q46 0 87 19zM63 789q-12 12 -12 31t12 31t31 12t31 -12t12 -31t-12 -31t-31 -12t-31 12zM275 789q-12 12 -12 31t12 31
t31 12t31 -12t12 -31t-12 -31t-31 -12t-31 12z" />
    <glyph glyph-name="uni1E9E" unicode="&#x1e9e;" horiz-adv-x="782" 
d="M554.5 306q63.5 -29 92.5 -60t29 -72q0 -61 -54.5 -97t-144.5 -36q-48 0 -101 9.5t-100 29.5v-58q89 -35 204 -35q76 0 134.5 23.5t91 66t32.5 97.5q0 52 -28 91.5t-90.5 73t-170.5 69.5l248 237q-48 40 -124.5 64t-167.5 24q-94 0 -165.5 -36t-110.5 -100.5t-39 -148.5
v-448h60v447q0 68 31.5 120t89.5 81.5t134 29.5q114 0 205 -47l-231 -219v-41q112 -36 175.5 -65z" />
    <glyph glyph-name="uni1EA0" unicode="&#x1ea0;" horiz-adv-x="780" 
d="M584 213h-389l-91 -213h-63l313 720h73l312 -720h-65zM561 266l-170 402l-173 -402h343zM420 -107q12 -12 12 -31t-12 -31t-31 -12t-31 12t-12 31t12 31t31 12t31 -12z" />
    <glyph glyph-name="uni1EA1" unicode="&#x1ea1;" horiz-adv-x="635" 
d="M619 50v-48q-12 -6 -34 -6q-45 0 -72 28t-27 78v18q-32 -68 -94.5 -100t-137.5 -32q-88 0 -147.5 42.5t-59.5 118.5q0 81 71 126t204 45h163v24q0 72 -49.5 114.5t-130.5 42.5q-51 0 -100 -17t-79 -47l-36 42q39 36 97 55.5t120 19.5q107 0 170.5 -55.5t63.5 -150.5v-243
q0 -29 13.5 -44t37.5 -15q16 0 27 4zM365 61.5q51 22.5 85 74.5t35 135h-163q-109 0 -163.5 -32t-54.5 -88q0 -52 44 -82t111 -30q55 0 106 22.5zM345 -107q12 -12 12 -31t-12 -31t-31 -12t-31 12t-12 31t12 31t31 12t31 -12z" />
    <glyph glyph-name="uni1EA2" unicode="&#x1ea2;" horiz-adv-x="780" 
d="M584 213h-389l-91 -213h-63l313 720h73l312 -720h-65zM561 266l-170 402l-173 -402h343zM361 801q0 23 12.5 41.5t41.5 41.5q25 19 35.5 31t10.5 28q0 22 -19.5 35.5t-49.5 13.5q-34 0 -55.5 -17.5t-22.5 -42.5h-50q2 45 37.5 74.5t93.5 29.5q51 0 84 -25.5t33 -65.5
q0 -25 -13 -43.5t-42 -42.5q-30 -24 -39.5 -36.5t-9.5 -25.5v-12h-47v16z" />
    <glyph glyph-name="uni1EA3" unicode="&#x1ea3;" horiz-adv-x="635" 
d="M619 50v-48q-12 -6 -34 -6q-45 0 -72 28t-27 78v18q-32 -68 -94.5 -100t-137.5 -32q-88 0 -147.5 42.5t-59.5 118.5q0 81 71 126t204 45h163v24q0 72 -49.5 114.5t-130.5 42.5q-51 0 -100 -17t-79 -47l-36 42q39 36 97 55.5t120 19.5q107 0 170.5 -55.5t63.5 -150.5v-243
q0 -29 13.5 -44t37.5 -15q16 0 27 4zM365 61.5q51 22.5 85 74.5t35 135h-163q-109 0 -163.5 -32t-54.5 -88q0 -52 44 -82t111 -30q55 0 106 22.5zM284 623q0 23 12.5 41.5t41.5 41.5q25 19 35.5 31t10.5 28q0 22 -19.5 35.5t-49.5 13.5q-34 0 -55.5 -17.5t-22.5 -42.5h-50
q2 45 37.5 74.5t93.5 29.5q51 0 84 -25.5t33 -65.5q0 -25 -13 -43.5t-42 -42.5q-30 -24 -39.5 -36.5t-9.5 -25.5v-12h-47v16z" />
    <glyph glyph-name="uni1EA4" unicode="&#x1ea4;" horiz-adv-x="780" 
d="M553 896h-54l105 148h62v-8zM286 790h-58l130 145h65l129 -145h-58l-104 105zM584 213h-389l-91 -213h-63l313 720h73l312 -720h-65zM561 266l-170 402l-173 -402h343z" />
    <glyph glyph-name="uni1EA5" unicode="&#x1ea5;" horiz-adv-x="635" 
d="M476 718h-54l105 148h62v-8zM209 612h-58l130 145h65l129 -145h-58l-104 105zM619 50v-48q-12 -6 -34 -6q-45 0 -72 28t-27 78v18q-32 -68 -94.5 -100t-137.5 -32q-88 0 -147.5 42.5t-59.5 118.5q0 81 71 126t204 45h163v24q0 72 -49.5 114.5t-130.5 42.5q-51 0 -100 -17
t-79 -47l-36 42q39 36 97 55.5t120 19.5q107 0 170.5 -55.5t63.5 -150.5v-243q0 -29 13.5 -44t37.5 -15q16 0 27 4zM365 61.5q51 22.5 85 74.5t35 135h-163q-109 0 -163.5 -32t-54.5 -88q0 -52 44 -82t111 -30q55 0 106 22.5z" />
    <glyph glyph-name="uni1EA6" unicode="&#x1ea6;" horiz-adv-x="780" 
d="M568 896l-113 140v8h62l105 -148h-54zM286 790h-58l130 145h65l129 -145h-58l-104 105zM584 213h-389l-91 -213h-63l313 720h73l312 -720h-65zM561 266l-170 402l-173 -402h343z" />
    <glyph glyph-name="uni1EA7" unicode="&#x1ea7;" horiz-adv-x="635" 
d="M491 718l-113 140v8h62l105 -148h-54zM209 612h-58l130 145h65l129 -145h-58l-104 105zM619 50v-48q-12 -6 -34 -6q-45 0 -72 28t-27 78v18q-32 -68 -94.5 -100t-137.5 -32q-88 0 -147.5 42.5t-59.5 118.5q0 81 71 126t204 45h163v24q0 72 -49.5 114.5t-130.5 42.5
q-51 0 -100 -17t-79 -47l-36 42q39 36 97 55.5t120 19.5q107 0 170.5 -55.5t63.5 -150.5v-243q0 -29 13.5 -44t37.5 -15q16 0 27 4zM365 61.5q51 22.5 85 74.5t35 135h-163q-109 0 -163.5 -32t-54.5 -88q0 -52 44 -82t111 -30q55 0 106 22.5z" />
    <glyph glyph-name="uni1EA8" unicode="&#x1ea8;" horiz-adv-x="780" 
d="M506.5 1051.5q-17.5 -14.5 -18.5 -36.5h-46q1 40 32 66t82 26q46 0 75.5 -22.5t29.5 -58.5q0 -22 -11.5 -38t-37.5 -38q-26 -21 -35 -32t-9 -23v-11h-44v15q0 21 11.5 36.5t37.5 37.5q22 19 31 29t9 23q0 19 -16.5 30t-42.5 11q-30 0 -47.5 -14.5zM286 790h-58l130 145
h65l129 -145h-58l-104 105zM584 213h-389l-91 -213h-63l313 720h73l312 -720h-65zM561 266l-170 402l-173 -402h343z" />
    <glyph glyph-name="uni1EA9" unicode="&#x1ea9;" horiz-adv-x="635" 
d="M429.5 873.5q-17.5 -14.5 -18.5 -36.5h-46q1 40 32 66t82 26q46 0 75.5 -22.5t29.5 -58.5q0 -22 -11.5 -38t-37.5 -38q-26 -21 -35 -32t-9 -23v-11h-44v15q0 21 11.5 36.5t37.5 37.5q22 19 31 29t9 23q0 19 -16.5 30t-42.5 11q-30 0 -47.5 -14.5zM209 612h-58l130 145h65
l129 -145h-58l-104 105zM619 50v-48q-12 -6 -34 -6q-45 0 -72 28t-27 78v18q-32 -68 -94.5 -100t-137.5 -32q-88 0 -147.5 42.5t-59.5 118.5q0 81 71 126t204 45h163v24q0 72 -49.5 114.5t-130.5 42.5q-51 0 -100 -17t-79 -47l-36 42q39 36 97 55.5t120 19.5
q107 0 170.5 -55.5t63.5 -150.5v-243q0 -29 13.5 -44t37.5 -15q16 0 27 4zM365 61.5q51 22.5 85 74.5t35 135h-163q-109 0 -163.5 -32t-54.5 -88q0 -52 44 -82t111 -30q55 0 106 22.5z" />
    <glyph glyph-name="uni1EAA" unicode="&#x1eaa;" horiz-adv-x="780" 
d="M283.5 1038.5q-14.5 -22.5 -15.5 -59.5h-45q1 60 27 94t70 34q26 0 45 -13t42 -37q17 -18 28.5 -26.5t24.5 -8.5q21 0 35.5 22.5t15.5 59.5h46q-1 -60 -27.5 -94t-70.5 -34q-26 0 -44.5 12.5t-41.5 36.5q-18 19 -29.5 27.5t-24.5 8.5q-21 0 -35.5 -22.5zM423 935
l129 -145h-58l-104 105l-104 -105h-58l130 145h65zM584 213h-389l-91 -213h-63l313 720h73l312 -720h-65zM561 266l-170 402l-173 -402h343z" />
    <glyph glyph-name="uni1EAB" unicode="&#x1eab;" horiz-adv-x="635" 
d="M206.5 860.5q-14.5 -22.5 -15.5 -59.5h-45q1 60 27 94t70 34q26 0 45 -13t42 -37q17 -18 28.5 -26.5t24.5 -8.5q21 0 35.5 22.5t15.5 59.5h46q-1 -60 -27.5 -94t-70.5 -34q-26 0 -44.5 12.5t-41.5 36.5q-18 19 -29.5 27.5t-24.5 8.5q-21 0 -35.5 -22.5zM346 757l129 -145
h-58l-104 105l-104 -105h-58l130 145h65zM619 50v-48q-12 -6 -34 -6q-45 0 -72 28t-27 78v18q-32 -68 -94.5 -100t-137.5 -32q-88 0 -147.5 42.5t-59.5 118.5q0 81 71 126t204 45h163v24q0 72 -49.5 114.5t-130.5 42.5q-51 0 -100 -17t-79 -47l-36 42q39 36 97 55.5
t120 19.5q107 0 170.5 -55.5t63.5 -150.5v-243q0 -29 13.5 -44t37.5 -15q16 0 27 4zM365 61.5q51 22.5 85 74.5t35 135h-163q-109 0 -163.5 -32t-54.5 -88q0 -52 44 -82t111 -30q55 0 106 22.5z" />
    <glyph glyph-name="uni1EAC" unicode="&#x1eac;" horiz-adv-x="780" 
d="M584 213h-389l-91 -213h-63l313 720h73l312 -720h-65zM561 266l-170 402l-173 -402h343zM420 -107q12 -12 12 -31t-12 -31t-31 -12t-31 12t-12 31t12 31t31 12t31 -12zM494 790l-104 114l-104 -114h-57l128 157h65l129 -157h-57z" />
    <glyph glyph-name="uni1EAD" unicode="&#x1ead;" horiz-adv-x="635" 
d="M619 50v-48q-12 -6 -34 -6q-45 0 -72 28t-27 78v18q-32 -68 -94.5 -100t-137.5 -32q-88 0 -147.5 42.5t-59.5 118.5q0 81 71 126t204 45h163v24q0 72 -49.5 114.5t-130.5 42.5q-51 0 -100 -17t-79 -47l-36 42q39 36 97 55.5t120 19.5q107 0 170.5 -55.5t63.5 -150.5v-243
q0 -29 13.5 -44t37.5 -15q16 0 27 4zM365 61.5q51 22.5 85 74.5t35 135h-163q-109 0 -163.5 -32t-54.5 -88q0 -52 44 -82t111 -30q55 0 106 22.5zM345 -107q12 -12 12 -31t-12 -31t-31 -12t-31 12t-12 31t12 31t31 12t31 -12zM417 612l-104 114l-104 -114h-57l128 157h65
l129 -157h-57z" />
    <glyph glyph-name="uni1EAE" unicode="&#x1eae;" horiz-adv-x="780" 
d="M393 935h-54l105 148h62v-8zM310.5 807.5q-35.5 19.5 -56 53t-20.5 74.5h46q1 -41 32.5 -70.5t77.5 -29.5t77.5 29.5t32.5 70.5h46q0 -41 -20.5 -74.5t-56 -53t-79.5 -19.5t-79.5 19.5zM584 213h-389l-91 -213h-63l313 720h73l312 -720h-65zM561 266l-170 402l-173 -402
h343z" />
    <glyph glyph-name="uni1EAF" unicode="&#x1eaf;" horiz-adv-x="635" 
d="M316 757h-54l105 148h62v-8zM233.5 629.5q-35.5 19.5 -56 53t-20.5 74.5h46q1 -41 32.5 -70.5t77.5 -29.5t77.5 29.5t32.5 70.5h46q0 -41 -20.5 -74.5t-56 -53t-79.5 -19.5t-79.5 19.5zM619 50v-48q-12 -6 -34 -6q-45 0 -72 28t-27 78v18q-32 -68 -94.5 -100t-137.5 -32
q-88 0 -147.5 42.5t-59.5 118.5q0 81 71 126t204 45h163v24q0 72 -49.5 114.5t-130.5 42.5q-51 0 -100 -17t-79 -47l-36 42q39 36 97 55.5t120 19.5q107 0 170.5 -55.5t63.5 -150.5v-243q0 -29 13.5 -44t37.5 -15q16 0 27 4zM365 61.5q51 22.5 85 74.5t35 135h-163
q-109 0 -163.5 -32t-54.5 -88q0 -52 44 -82t111 -30q55 0 106 22.5z" />
    <glyph glyph-name="uni1EB0" unicode="&#x1eb0;" horiz-adv-x="780" 
d="M387 935l-113 140v8h62l105 -148h-54zM310.5 807.5q-35.5 19.5 -56 53t-20.5 74.5h46q1 -41 32.5 -70.5t77.5 -29.5t77.5 29.5t32.5 70.5h46q0 -41 -20.5 -74.5t-56 -53t-79.5 -19.5t-79.5 19.5zM584 213h-389l-91 -213h-63l313 720h73l312 -720h-65zM561 266l-170 402
l-173 -402h343z" />
    <glyph glyph-name="uni1EB1" unicode="&#x1eb1;" horiz-adv-x="635" 
d="M310 757l-113 140v8h62l105 -148h-54zM233.5 629.5q-35.5 19.5 -56 53t-20.5 74.5h46q1 -41 32.5 -70.5t77.5 -29.5t77.5 29.5t32.5 70.5h46q0 -41 -20.5 -74.5t-56 -53t-79.5 -19.5t-79.5 19.5zM619 50v-48q-12 -6 -34 -6q-45 0 -72 28t-27 78v18q-32 -68 -94.5 -100
t-137.5 -32q-88 0 -147.5 42.5t-59.5 118.5q0 81 71 126t204 45h163v24q0 72 -49.5 114.5t-130.5 42.5q-51 0 -100 -17t-79 -47l-36 42q39 36 97 55.5t120 19.5q107 0 170.5 -55.5t63.5 -150.5v-243q0 -29 13.5 -44t37.5 -15q16 0 27 4zM365 61.5q51 22.5 85 74.5t35 135
h-163q-109 0 -163.5 -32t-54.5 -88q0 -52 44 -82t111 -30q55 0 106 22.5z" />
    <glyph glyph-name="uni1EB2" unicode="&#x1eb2;" horiz-adv-x="780" 
d="M344.5 1085.5q-17.5 -14.5 -18.5 -36.5h-46q1 40 32 66t82 26q46 0 75.5 -22.5t29.5 -58.5q0 -22 -11.5 -38t-37.5 -38q-26 -21 -35 -32t-9 -23v-11h-44v15q0 21 11.5 36.5t37.5 37.5q22 19 31 29t9 23q0 19 -16.5 30t-42.5 11q-30 0 -47.5 -14.5zM310.5 807.5
q-35.5 19.5 -56 53t-20.5 74.5h46q1 -41 32.5 -70.5t77.5 -29.5t77.5 29.5t32.5 70.5h46q0 -41 -20.5 -74.5t-56 -53t-79.5 -19.5t-79.5 19.5zM584 213h-389l-91 -213h-63l313 720h73l312 -720h-65zM561 266l-170 402l-173 -402h343z" />
    <glyph glyph-name="uni1EB3" unicode="&#x1eb3;" horiz-adv-x="635" 
d="M267.5 907.5q-17.5 -14.5 -18.5 -36.5h-46q1 40 32 66t82 26q46 0 75.5 -22.5t29.5 -58.5q0 -22 -11.5 -38t-37.5 -38q-26 -21 -35 -32t-9 -23v-11h-44v15q0 21 11.5 36.5t37.5 37.5q22 19 31 29t9 23q0 19 -16.5 30t-42.5 11q-30 0 -47.5 -14.5zM233.5 629.5
q-35.5 19.5 -56 53t-20.5 74.5h46q1 -41 32.5 -70.5t77.5 -29.5t77.5 29.5t32.5 70.5h46q0 -41 -20.5 -74.5t-56 -53t-79.5 -19.5t-79.5 19.5zM619 50v-48q-12 -6 -34 -6q-45 0 -72 28t-27 78v18q-32 -68 -94.5 -100t-137.5 -32q-88 0 -147.5 42.5t-59.5 118.5q0 81 71 126
t204 45h163v24q0 72 -49.5 114.5t-130.5 42.5q-51 0 -100 -17t-79 -47l-36 42q39 36 97 55.5t120 19.5q107 0 170.5 -55.5t63.5 -150.5v-243q0 -29 13.5 -44t37.5 -15q16 0 27 4zM365 61.5q51 22.5 85 74.5t35 135h-163q-109 0 -163.5 -32t-54.5 -88q0 -52 44 -82t111 -30
q55 0 106 22.5z" />
    <glyph glyph-name="uni1EB4" unicode="&#x1eb4;" horiz-adv-x="780" 
d="M283.5 1038.5q-14.5 -22.5 -15.5 -59.5h-45q1 60 27 94t70 34q26 0 45 -13t42 -37q17 -18 28.5 -26.5t24.5 -8.5q21 0 35.5 22.5t15.5 59.5h46q-1 -60 -27.5 -94t-70.5 -34q-26 0 -44.5 12.5t-41.5 36.5q-18 19 -29.5 27.5t-24.5 8.5q-21 0 -35.5 -22.5zM467.5 864.5
q31.5 29.5 32.5 70.5h46q0 -41 -20.5 -74.5t-56 -53t-79.5 -19.5t-79.5 19.5t-56 53t-20.5 74.5h46q1 -41 32.5 -70.5t77.5 -29.5t77.5 29.5zM584 213h-389l-91 -213h-63l313 720h73l312 -720h-65zM561 266l-170 402l-173 -402h343z" />
    <glyph glyph-name="uni1EB5" unicode="&#x1eb5;" horiz-adv-x="635" 
d="M206.5 860.5q-14.5 -22.5 -15.5 -59.5h-45q1 60 27 94t70 34q26 0 45 -13t42 -37q17 -18 28.5 -26.5t24.5 -8.5q21 0 35.5 22.5t15.5 59.5h46q-1 -60 -27.5 -94t-70.5 -34q-26 0 -44.5 12.5t-41.5 36.5q-18 19 -29.5 27.5t-24.5 8.5q-21 0 -35.5 -22.5zM390.5 686.5
q31.5 29.5 32.5 70.5h46q0 -41 -20.5 -74.5t-56 -53t-79.5 -19.5t-79.5 19.5t-56 53t-20.5 74.5h46q1 -41 32.5 -70.5t77.5 -29.5t77.5 29.5zM619 50v-48q-12 -6 -34 -6q-45 0 -72 28t-27 78v18q-32 -68 -94.5 -100t-137.5 -32q-88 0 -147.5 42.5t-59.5 118.5q0 81 71 126
t204 45h163v24q0 72 -49.5 114.5t-130.5 42.5q-51 0 -100 -17t-79 -47l-36 42q39 36 97 55.5t120 19.5q107 0 170.5 -55.5t63.5 -150.5v-243q0 -29 13.5 -44t37.5 -15q16 0 27 4zM365 61.5q51 22.5 85 74.5t35 135h-163q-109 0 -163.5 -32t-54.5 -88q0 -52 44 -82t111 -30
q55 0 106 22.5z" />
    <glyph glyph-name="uni1EB6" unicode="&#x1eb6;" horiz-adv-x="780" 
d="M584 213h-389l-91 -213h-63l313 720h73l312 -720h-65zM561 266l-170 402l-173 -402h343zM420 -107q12 -12 12 -31t-12 -31t-31 -12t-31 12t-12 31t12 31t31 12t31 -12zM278 832.5q-44 44.5 -44 114.5h46q1 -49 32 -80t78 -31t78 31t32 80h46q0 -70 -44 -114.5t-112 -44.5
t-112 44.5z" />
    <glyph glyph-name="uni1EB7" unicode="&#x1eb7;" horiz-adv-x="635" 
d="M619 50v-48q-12 -6 -34 -6q-45 0 -72 28t-27 78v18q-32 -68 -94.5 -100t-137.5 -32q-88 0 -147.5 42.5t-59.5 118.5q0 81 71 126t204 45h163v24q0 72 -49.5 114.5t-130.5 42.5q-51 0 -100 -17t-79 -47l-36 42q39 36 97 55.5t120 19.5q107 0 170.5 -55.5t63.5 -150.5v-243
q0 -29 13.5 -44t37.5 -15q16 0 27 4zM365 61.5q51 22.5 85 74.5t35 135h-163q-109 0 -163.5 -32t-54.5 -88q0 -52 44 -82t111 -30q55 0 106 22.5zM345 -107q12 -12 12 -31t-12 -31t-31 -12t-31 12t-12 31t12 31t31 12t31 -12zM201 654.5q-44 44.5 -44 114.5h46q1 -49 32 -80
t78 -31t78 31t32 80h46q0 -70 -44 -114.5t-112 -44.5t-112 44.5z" />
    <glyph glyph-name="uni1EB8" unicode="&#x1eb8;" horiz-adv-x="694" 
d="M654 0h-550v720h540l-16 -54h-464v-259h318v-54h-318v-299h474zM400 -107q12 -12 12 -31t-12 -31t-31 -12t-31 12t-12 31t12 31t31 12t31 -12z" />
    <glyph glyph-name="uni1EB9" unicode="&#x1eb9;" horiz-adv-x="647" 
d="M606 254h-491q4 -63 34.5 -111.5t82.5 -75.5t119 -27q60 0 107.5 20t77.5 53l38 -40q-33 -39 -91 -62.5t-134 -23.5q-87 0 -153.5 36.5t-103 101t-36.5 145.5t35.5 146t99 102t142.5 37q81 0 143.5 -37.5t97 -102t34.5 -142.5q0 -3 -2 -19zM229.5 477.5
q-46.5 -24.5 -76.5 -70t-36 -105.5h431q-4 55 -32 101t-75.5 72.5t-107.5 26.5q-57 0 -103.5 -24.5zM363 -107q12 -12 12 -31t-12 -31t-31 -12t-31 12t-12 31t12 31t31 12t31 -12z" />
    <glyph glyph-name="uni1EBA" unicode="&#x1eba;" horiz-adv-x="694" 
d="M654 0h-550v720h540l-16 -54h-464v-259h318v-54h-318v-299h474zM341 801q0 23 12.5 41.5t41.5 41.5q25 19 35.5 31t10.5 28q0 22 -19.5 35.5t-49.5 13.5q-34 0 -55.5 -17.5t-22.5 -42.5h-50q2 45 37.5 74.5t93.5 29.5q51 0 84 -25.5t33 -65.5q0 -25 -13 -43.5t-42 -42.5
q-30 -24 -39.5 -36.5t-9.5 -25.5v-12h-47v16z" />
    <glyph glyph-name="uni1EBB" unicode="&#x1ebb;" horiz-adv-x="647" 
d="M606 254h-491q4 -63 34.5 -111.5t82.5 -75.5t119 -27q60 0 107.5 20t77.5 53l38 -40q-33 -39 -91 -62.5t-134 -23.5q-87 0 -153.5 36.5t-103 101t-36.5 145.5t35.5 146t99 102t142.5 37q81 0 143.5 -37.5t97 -102t34.5 -142.5q0 -3 -2 -19zM229.5 477.5
q-46.5 -24.5 -76.5 -70t-36 -105.5h431q-4 55 -32 101t-75.5 72.5t-107.5 26.5q-57 0 -103.5 -24.5zM304 623q0 23 12.5 41.5t41.5 41.5q25 19 35.5 31t10.5 28q0 22 -19.5 35.5t-49.5 13.5q-34 0 -55.5 -17.5t-22.5 -42.5h-50q2 45 37.5 74.5t93.5 29.5q51 0 84 -25.5
t33 -65.5q0 -25 -13 -43.5t-42 -42.5q-30 -24 -39.5 -36.5t-9.5 -25.5v-12h-47v16z" />
    <glyph glyph-name="uni1EBC" unicode="&#x1ebc;" horiz-adv-x="694" 
d="M654 0h-550v720h540l-16 -54h-464v-259h318v-54h-318v-299h474zM399 812.5q-22 13.5 -48 38.5q-20 19 -34 28.5t-31 9.5q-26 0 -41.5 -23.5t-17.5 -63.5h-48q2 61 30.5 98t77.5 37q30 0 51 -13t49 -39q20 -20 34 -29.5t31 -9.5q26 0 41.5 23.5t17.5 63.5h48
q-2 -61 -30.5 -97.5t-77.5 -36.5q-30 0 -52 13.5z" />
    <glyph glyph-name="uni1EBD" unicode="&#x1ebd;" horiz-adv-x="647" 
d="M606 254h-491q4 -63 34.5 -111.5t82.5 -75.5t119 -27q60 0 107.5 20t77.5 53l38 -40q-33 -39 -91 -62.5t-134 -23.5q-87 0 -153.5 36.5t-103 101t-36.5 145.5t35.5 146t99 102t142.5 37q81 0 143.5 -37.5t97 -102t34.5 -142.5q0 -3 -2 -19zM229.5 477.5
q-46.5 -24.5 -76.5 -70t-36 -105.5h431q-4 55 -32 101t-75.5 72.5t-107.5 26.5q-57 0 -103.5 -24.5zM362 634.5q-22 13.5 -48 38.5q-20 19 -34 28.5t-31 9.5q-26 0 -41.5 -23.5t-17.5 -63.5h-48q2 61 30.5 98t77.5 37q30 0 51 -13t49 -39q20 -20 34 -29.5t31 -9.5
q26 0 41.5 23.5t17.5 63.5h48q-2 -61 -30.5 -97.5t-77.5 -36.5q-30 0 -52 13.5z" />
    <glyph glyph-name="uni1EBE" unicode="&#x1ebe;" horiz-adv-x="694" 
d="M533 896h-54l105 148h62v-8zM266 790h-58l130 145h65l129 -145h-58l-104 105zM654 0h-550v720h540l-16 -54h-464v-259h318v-54h-318v-299h474z" />
    <glyph glyph-name="uni1EBF" unicode="&#x1ebf;" horiz-adv-x="647" 
d="M609 866v-8l-113 -140h-54l105 148h62zM229 612h-58l130 145h65l129 -145h-58l-104 105zM476.5 517.5q62.5 -37.5 97 -102t34.5 -142.5q0 -3 -2 -19h-491q4 -63 34.5 -111.5t82.5 -75.5t119 -27q60 0 107.5 20t77.5 53l38 -40q-33 -39 -91 -62.5t-134 -23.5
q-87 0 -153.5 36.5t-103 101t-36.5 145.5t35.5 146t99 102t142.5 37q81 0 143.5 -37.5zM229.5 477.5q-46.5 -24.5 -76.5 -70t-36 -105.5h431q-4 55 -32 101t-75.5 72.5t-107.5 26.5q-57 0 -103.5 -24.5z" />
    <glyph glyph-name="uni1EC0" unicode="&#x1ec0;" horiz-adv-x="694" 
d="M548 896l-113 140v8h62l105 -148h-54zM266 790h-58l130 145h65l129 -145h-58l-104 105zM654 0h-550v720h540l-16 -54h-464v-259h318v-54h-318v-299h474z" />
    <glyph glyph-name="uni1EC1" unicode="&#x1ec1;" horiz-adv-x="647" 
d="M511 718l-113 140v8h62l105 -148h-54zM229 612h-58l130 145h65l129 -145h-58l-104 105zM606 254h-491q4 -63 34.5 -111.5t82.5 -75.5t119 -27q60 0 107.5 20t77.5 53l38 -40q-33 -39 -91 -62.5t-134 -23.5q-87 0 -153.5 36.5t-103 101t-36.5 145.5t35.5 146t99 102
t142.5 37q81 0 143.5 -37.5t97 -102t34.5 -142.5q0 -3 -2 -19zM229.5 477.5q-46.5 -24.5 -76.5 -70t-36 -105.5h431q-4 55 -32 101t-75.5 72.5t-107.5 26.5q-57 0 -103.5 -24.5z" />
    <glyph glyph-name="uni1EC2" unicode="&#x1ec2;" horiz-adv-x="694" 
d="M486.5 1051.5q-17.5 -14.5 -18.5 -36.5h-46q1 40 32 66t82 26q46 0 75.5 -22.5t29.5 -58.5q0 -22 -11.5 -38t-37.5 -38q-26 -21 -35 -32t-9 -23v-11h-44v15q0 21 11.5 36.5t37.5 37.5q22 19 31 29t9 23q0 19 -16.5 30t-42.5 11q-30 0 -47.5 -14.5zM266 790h-58l130 145
h65l129 -145h-58l-104 105zM654 0h-550v720h540l-16 -54h-464v-259h318v-54h-318v-299h474z" />
    <glyph glyph-name="uni1EC3" unicode="&#x1ec3;" horiz-adv-x="647" 
d="M449.5 873.5q-17.5 -14.5 -18.5 -36.5h-46q1 40 32 66t82 26q46 0 75.5 -22.5t29.5 -58.5q0 -22 -11.5 -38t-37.5 -38q-26 -21 -35 -32t-9 -23v-11h-44v15q0 21 11.5 36.5t37.5 37.5q22 19 31 29t9 23q0 19 -16.5 30t-42.5 11q-30 0 -47.5 -14.5zM229 612h-58l130 145h65
l129 -145h-58l-104 105zM606 254h-491q4 -63 34.5 -111.5t82.5 -75.5t119 -27q60 0 107.5 20t77.5 53l38 -40q-33 -39 -91 -62.5t-134 -23.5q-87 0 -153.5 36.5t-103 101t-36.5 145.5t35.5 146t99 102t142.5 37q81 0 143.5 -37.5t97 -102t34.5 -142.5q0 -3 -2 -19z
M229.5 477.5q-46.5 -24.5 -76.5 -70t-36 -105.5h431q-4 55 -32 101t-75.5 72.5t-107.5 26.5q-57 0 -103.5 -24.5z" />
    <glyph glyph-name="uni1EC4" unicode="&#x1ec4;" horiz-adv-x="694" 
d="M263.5 1038.5q-14.5 -22.5 -15.5 -59.5h-45q1 60 27 94t70 34q26 0 45 -13t42 -37q17 -18 28.5 -26.5t24.5 -8.5q21 0 35.5 22.5t15.5 59.5h46q-1 -60 -27.5 -94t-70.5 -34q-26 0 -44.5 12.5t-41.5 36.5q-18 19 -29.5 27.5t-24.5 8.5q-21 0 -35.5 -22.5zM403 935
l129 -145h-58l-104 105l-104 -105h-58l130 145h65zM654 0h-550v720h540l-16 -54h-464v-259h318v-54h-318v-299h474z" />
    <glyph glyph-name="uni1EC5" unicode="&#x1ec5;" horiz-adv-x="647" 
d="M226.5 860.5q-14.5 -22.5 -15.5 -59.5h-45q1 60 27 94t70 34q26 0 45 -13t42 -37q17 -18 28.5 -26.5t24.5 -8.5q21 0 35.5 22.5t15.5 59.5h46q-1 -60 -27.5 -94t-70.5 -34q-26 0 -44.5 12.5t-41.5 36.5q-18 19 -29.5 27.5t-24.5 8.5q-21 0 -35.5 -22.5zM366 757l129 -145
h-58l-104 105l-104 -105h-58l130 145h65zM606 254h-491q4 -63 34.5 -111.5t82.5 -75.5t119 -27q60 0 107.5 20t77.5 53l38 -40q-33 -39 -91 -62.5t-134 -23.5q-87 0 -153.5 36.5t-103 101t-36.5 145.5t35.5 146t99 102t142.5 37q81 0 143.5 -37.5t97 -102t34.5 -142.5
q0 -3 -2 -19zM229.5 477.5q-46.5 -24.5 -76.5 -70t-36 -105.5h431q-4 55 -32 101t-75.5 72.5t-107.5 26.5q-57 0 -103.5 -24.5z" />
    <glyph glyph-name="uni1EC6" unicode="&#x1ec6;" horiz-adv-x="694" 
d="M654 0h-550v720h540l-16 -54h-464v-259h318v-54h-318v-299h474zM400 -107q12 -12 12 -31t-12 -31t-31 -12t-31 12t-12 31t12 31t31 12t31 -12zM474 790l-104 114l-104 -114h-57l128 157h65l129 -157h-57z" />
    <glyph glyph-name="uni1EC7" unicode="&#x1ec7;" horiz-adv-x="647" 
d="M606 254h-491q4 -63 34.5 -111.5t82.5 -75.5t119 -27q60 0 107.5 20t77.5 53l38 -40q-33 -39 -91 -62.5t-134 -23.5q-87 0 -153.5 36.5t-103 101t-36.5 145.5t35.5 146t99 102t142.5 37q81 0 143.5 -37.5t97 -102t34.5 -142.5q0 -3 -2 -19zM229.5 477.5
q-46.5 -24.5 -76.5 -70t-36 -105.5h431q-4 55 -32 101t-75.5 72.5t-107.5 26.5q-57 0 -103.5 -24.5zM363 -107q12 -12 12 -31t-12 -31t-31 -12t-31 12t-12 31t12 31t31 12t31 -12zM437 612l-104 114l-104 -114h-57l128 157h65l129 -157h-57z" />
    <glyph glyph-name="uni1EC8" unicode="&#x1ec8;" horiz-adv-x="280" 
d="M170 720v-720h-60v720h60zM111 801q0 23 12.5 41.5t41.5 41.5q25 19 35.5 31t10.5 28q0 22 -19.5 35.5t-49.5 13.5q-34 0 -55.5 -17.5t-22.5 -42.5h-50q2 45 37.5 74.5t93.5 29.5q51 0 84 -25.5t33 -65.5q0 -25 -13 -43.5t-42 -42.5q-30 -24 -39.5 -36.5t-9.5 -25.5v-12
h-47v16z" />
    <glyph glyph-name="uni1EC9" unicode="&#x1ec9;" horiz-adv-x="256" 
d="M99 542h58v-542h-58v542zM99 623q0 23 12.5 41.5t41.5 41.5q25 19 35.5 31t10.5 28q0 22 -19.5 35.5t-49.5 13.5q-34 0 -55.5 -17.5t-22.5 -42.5h-50q2 45 37.5 74.5t93.5 29.5q51 0 84 -25.5t33 -65.5q0 -25 -13 -43.5t-42 -42.5q-30 -24 -39.5 -36.5t-9.5 -25.5v-12
h-47v16z" />
    <glyph glyph-name="uni1ECA" unicode="&#x1eca;" horiz-adv-x="280" 
d="M170 720v-720h-60v720h60zM170 -107q12 -12 12 -31t-12 -31t-31 -12t-31 12t-12 31t12 31t31 12t31 -12z" />
    <glyph glyph-name="uni1ECB" unicode="&#x1ecb;" horiz-adv-x="256" 
d="M99 542h58v-542h-58v542zM159 716q12 -12 12 -31t-12 -31t-31 -12t-31 12t-12 31t12 31t31 12t31 -12zM153 -107q12 -12 12 -31t-12 -31t-31 -12t-31 12t-12 31t12 31t31 12t31 -12z" />
    <glyph glyph-name="uni1ECC" unicode="&#x1ecc;" horiz-adv-x="862" 
d="M239.5 35q-84.5 48 -132.5 133t-48 192t48 192t132.5 133t191.5 48t191.5 -48t132.5 -133t48 -192t-48 -192t-132.5 -133t-191.5 -48t-191.5 48zM590.5 83q70.5 41 110.5 113.5t40 163.5t-40 163.5t-110.5 113.5t-159.5 41t-159.5 -41t-110.5 -113.5t-40 -163.5
t40 -163.5t110.5 -113.5t159.5 -41t159.5 41zM461 -107q12 -12 12 -31t-12 -31t-31 -12t-31 12t-12 31t12 31t31 12t31 -12z" />
    <glyph glyph-name="uni1ECD" unicode="&#x1ecd;" horiz-adv-x="674" 
d="M483 24.5q65 37.5 102 102.5t37 144t-37 144t-102 102.5t-146 37.5t-146 -37.5t-102 -102.5t-37 -144t37 -144t102 -102.5t146 -37.5t146 37.5zM451.5 471q51.5 -30 81.5 -83t30 -117t-30 -117t-81.5 -83t-114.5 -30t-114.5 30t-81.5 83t-30 117t30 117t81.5 83t114.5 30
t114.5 -30zM367 -107q12 -12 12 -31t-12 -31t-31 -12t-31 12t-12 31t12 31t31 12t31 -12z" />
    <glyph glyph-name="uni1ECE" unicode="&#x1ece;" horiz-adv-x="862" 
d="M239.5 35q-84.5 48 -132.5 133t-48 192t48 192t132.5 133t191.5 48t191.5 -48t132.5 -133t48 -192t-48 -192t-132.5 -133t-191.5 -48t-191.5 48zM590.5 83q70.5 41 110.5 113.5t40 163.5t-40 163.5t-110.5 113.5t-159.5 41t-159.5 -41t-110.5 -113.5t-40 -163.5
t40 -163.5t110.5 -113.5t159.5 -41t159.5 41zM402 801q0 23 12.5 41.5t41.5 41.5q25 19 35.5 31t10.5 28q0 22 -19.5 35.5t-49.5 13.5q-34 0 -55.5 -17.5t-22.5 -42.5h-50q2 45 37.5 74.5t93.5 29.5q51 0 84 -25.5t33 -65.5q0 -25 -13 -43.5t-42 -42.5q-30 -24 -39.5 -36.5
t-9.5 -25.5v-12h-47v16z" />
    <glyph glyph-name="uni1ECF" unicode="&#x1ecf;" horiz-adv-x="674" 
d="M483 24.5q65 37.5 102 102.5t37 144t-37 144t-102 102.5t-146 37.5t-146 -37.5t-102 -102.5t-37 -144t37 -144t102 -102.5t146 -37.5t146 37.5zM451.5 471q51.5 -30 81.5 -83t30 -117t-30 -117t-81.5 -83t-114.5 -30t-114.5 30t-81.5 83t-30 117t30 117t81.5 83t114.5 30
t114.5 -30zM308 623q0 23 12.5 41.5t41.5 41.5q25 19 35.5 31t10.5 28q0 22 -19.5 35.5t-49.5 13.5q-34 0 -55.5 -17.5t-22.5 -42.5h-50q2 45 37.5 74.5t93.5 29.5q51 0 84 -25.5t33 -65.5q0 -25 -13 -43.5t-42 -42.5q-30 -24 -39.5 -36.5t-9.5 -25.5v-12h-47v16z" />
    <glyph glyph-name="uni1ED0" unicode="&#x1ed0;" horiz-adv-x="862" 
d="M594 896h-54l105 148h62v-8zM327 790h-58l130 145h65l129 -145h-58l-104 105zM622.5 685q84.5 -48 132.5 -133t48 -192t-48 -192t-132.5 -133t-191.5 -48t-191.5 48t-132.5 133t-48 192t48 192t132.5 133t191.5 48t191.5 -48zM590.5 83q70.5 41 110.5 113.5t40 163.5
t-40 163.5t-110.5 113.5t-159.5 41t-159.5 -41t-110.5 -113.5t-40 -163.5t40 -163.5t110.5 -113.5t159.5 -41t159.5 41z" />
    <glyph glyph-name="uni1ED1" unicode="&#x1ed1;" horiz-adv-x="674" 
d="M500 718h-54l105 148h62v-8zM233 612h-58l130 145h65l129 -145h-58l-104 105zM483 517.5q65 -37.5 102 -102.5t37 -144t-37 -144t-102 -102.5t-146 -37.5t-146 37.5t-102 102.5t-37 144t37 144t102 102.5t146 37.5t146 -37.5zM451.5 71q51.5 30 81.5 83t30 117t-30 117
t-81.5 83t-114.5 30t-114.5 -30t-81.5 -83t-30 -117t30 -117t81.5 -83t114.5 -30t114.5 30z" />
    <glyph glyph-name="uni1ED2" unicode="&#x1ed2;" horiz-adv-x="862" 
d="M609 896l-113 140v8h62l105 -148h-54zM327 790h-58l130 145h65l129 -145h-58l-104 105zM622.5 685q84.5 -48 132.5 -133t48 -192t-48 -192t-132.5 -133t-191.5 -48t-191.5 48t-132.5 133t-48 192t48 192t132.5 133t191.5 48t191.5 -48zM590.5 83q70.5 41 110.5 113.5
t40 163.5t-40 163.5t-110.5 113.5t-159.5 41t-159.5 -41t-110.5 -113.5t-40 -163.5t40 -163.5t110.5 -113.5t159.5 -41t159.5 41z" />
    <glyph glyph-name="uni1ED3" unicode="&#x1ed3;" horiz-adv-x="674" 
d="M515 718l-113 140v8h62l105 -148h-54zM233 612h-58l130 145h65l129 -145h-58l-104 105zM483 517.5q65 -37.5 102 -102.5t37 -144t-37 -144t-102 -102.5t-146 -37.5t-146 37.5t-102 102.5t-37 144t37 144t102 102.5t146 37.5t146 -37.5zM451.5 71q51.5 30 81.5 83t30 117
t-30 117t-81.5 83t-114.5 30t-114.5 -30t-81.5 -83t-30 -117t30 -117t81.5 -83t114.5 -30t114.5 30z" />
    <glyph glyph-name="uni1ED4" unicode="&#x1ed4;" horiz-adv-x="862" 
d="M547.5 1051.5q-17.5 -14.5 -18.5 -36.5h-46q1 40 32 66t82 26q46 0 75.5 -22.5t29.5 -58.5q0 -22 -11.5 -38t-37.5 -38q-26 -21 -35 -32t-9 -23v-11h-44v15q0 21 11.5 36.5t37.5 37.5q22 19 31 29t9 23q0 19 -16.5 30t-42.5 11q-30 0 -47.5 -14.5zM327 790h-58l130 145
h65l129 -145h-58l-104 105zM622.5 685q84.5 -48 132.5 -133t48 -192t-48 -192t-132.5 -133t-191.5 -48t-191.5 48t-132.5 133t-48 192t48 192t132.5 133t191.5 48t191.5 -48zM590.5 83q70.5 41 110.5 113.5t40 163.5t-40 163.5t-110.5 113.5t-159.5 41t-159.5 -41
t-110.5 -113.5t-40 -163.5t40 -163.5t110.5 -113.5t159.5 -41t159.5 41z" />
    <glyph glyph-name="uni1ED5" unicode="&#x1ed5;" horiz-adv-x="674" 
d="M453.5 873.5q-17.5 -14.5 -18.5 -36.5h-46q1 40 32 66t82 26q46 0 75.5 -22.5t29.5 -58.5q0 -22 -11.5 -38t-37.5 -38q-26 -21 -35 -32t-9 -23v-11h-44v15q0 21 11.5 36.5t37.5 37.5q22 19 31 29t9 23q0 19 -16.5 30t-42.5 11q-30 0 -47.5 -14.5zM233 612h-58l130 145h65
l129 -145h-58l-104 105zM483 517.5q65 -37.5 102 -102.5t37 -144t-37 -144t-102 -102.5t-146 -37.5t-146 37.5t-102 102.5t-37 144t37 144t102 102.5t146 37.5t146 -37.5zM451.5 71q51.5 30 81.5 83t30 117t-30 117t-81.5 83t-114.5 30t-114.5 -30t-81.5 -83t-30 -117
t30 -117t81.5 -83t114.5 -30t114.5 30z" />
    <glyph glyph-name="uni1ED6" unicode="&#x1ed6;" horiz-adv-x="862" 
d="M324.5 1038.5q-14.5 -22.5 -15.5 -59.5h-45q1 60 27 94t70 34q26 0 45 -13t42 -37q17 -18 28.5 -26.5t24.5 -8.5q21 0 35.5 22.5t15.5 59.5h46q-1 -60 -27.5 -94t-70.5 -34q-26 0 -44.5 12.5t-41.5 36.5q-18 19 -29.5 27.5t-24.5 8.5q-21 0 -35.5 -22.5zM464 935
l129 -145h-58l-104 105l-104 -105h-58l130 145h65zM622.5 685q84.5 -48 132.5 -133t48 -192t-48 -192t-132.5 -133t-191.5 -48t-191.5 48t-132.5 133t-48 192t48 192t132.5 133t191.5 48t191.5 -48zM590.5 83q70.5 41 110.5 113.5t40 163.5t-40 163.5t-110.5 113.5
t-159.5 41t-159.5 -41t-110.5 -113.5t-40 -163.5t40 -163.5t110.5 -113.5t159.5 -41t159.5 41z" />
    <glyph glyph-name="uni1ED7" unicode="&#x1ed7;" horiz-adv-x="674" 
d="M230.5 860.5q-14.5 -22.5 -15.5 -59.5h-45q1 60 27 94t70 34q26 0 45 -13t42 -37q17 -18 28.5 -26.5t24.5 -8.5q21 0 35.5 22.5t15.5 59.5h46q-1 -60 -27.5 -94t-70.5 -34q-26 0 -44.5 12.5t-41.5 36.5q-18 19 -29.5 27.5t-24.5 8.5q-21 0 -35.5 -22.5zM370 757l129 -145
h-58l-104 105l-104 -105h-58l130 145h65zM483 517.5q65 -37.5 102 -102.5t37 -144t-37 -144t-102 -102.5t-146 -37.5t-146 37.5t-102 102.5t-37 144t37 144t102 102.5t146 37.5t146 -37.5zM451.5 71q51.5 30 81.5 83t30 117t-30 117t-81.5 83t-114.5 30t-114.5 -30
t-81.5 -83t-30 -117t30 -117t81.5 -83t114.5 -30t114.5 30z" />
    <glyph glyph-name="uni1ED8" unicode="&#x1ed8;" horiz-adv-x="862" 
d="M239.5 35q-84.5 48 -132.5 133t-48 192t48 192t132.5 133t191.5 48t191.5 -48t132.5 -133t48 -192t-48 -192t-132.5 -133t-191.5 -48t-191.5 48zM590.5 83q70.5 41 110.5 113.5t40 163.5t-40 163.5t-110.5 113.5t-159.5 41t-159.5 -41t-110.5 -113.5t-40 -163.5
t40 -163.5t110.5 -113.5t159.5 -41t159.5 41zM461 -107q12 -12 12 -31t-12 -31t-31 -12t-31 12t-12 31t12 31t31 12t31 -12zM535 790l-104 114l-104 -114h-57l128 157h65l129 -157h-57z" />
    <glyph glyph-name="uni1ED9" unicode="&#x1ed9;" horiz-adv-x="674" 
d="M483 24.5q65 37.5 102 102.5t37 144t-37 144t-102 102.5t-146 37.5t-146 -37.5t-102 -102.5t-37 -144t37 -144t102 -102.5t146 -37.5t146 37.5zM451.5 471q51.5 -30 81.5 -83t30 -117t-30 -117t-81.5 -83t-114.5 -30t-114.5 30t-81.5 83t-30 117t30 117t81.5 83t114.5 30
t114.5 -30zM367 -107q12 -12 12 -31t-12 -31t-31 -12t-31 12t-12 31t12 31t31 12t31 -12zM441 612l-104 114l-104 -114h-57l128 157h65l129 -157h-57z" />
    <glyph glyph-name="uni1EDA" unicode="&#x1eda;" horiz-adv-x="866" 
d="M753 554q50 -84 50 -194q0 -107 -48 -192t-133 -133t-191 -48t-191 48t-133 133t-48 192t48 192t133 133t191 48q47 0 152 -7q74 -6 104 -6q44 0 65 18t21 54q0 17 -5 33t-17 39h59q9 -14 13.5 -34.5t4.5 -40.5q0 -54 -35 -83.5t-99 -29.5q-18 0 -78 4q87 -42 137 -126z
M590.5 83q70.5 41 110.5 113.5t40 163.5t-40 163.5t-110.5 113.5t-159.5 41t-159.5 -41t-110.5 -113.5t-40 -163.5t40 -163.5t110.5 -113.5t159.5 -41t159.5 41zM433 789h-59l125 158h68v-7z" />
    <glyph glyph-name="uni1EDB" unicode="&#x1edb;" horiz-adv-x="671" 
d="M627.5 528.5q-33.5 -29.5 -91.5 -29.5q-17 0 -49 2q63 -37 97 -96.5t34 -133.5q0 -79 -37 -144t-101.5 -102.5t-144.5 -37.5t-144.5 37.5t-101.5 102.5t-37 144t37 144t101.5 102.5t144.5 37.5q47 0 99 -7q58 -6 97 -6q76 0 76 72q0 29 -20 72h56q9 -14 13.5 -35t4.5 -40
q0 -53 -33.5 -82.5zM528.5 388q-29.5 53 -80.5 83t-113 30t-113 -30t-80.5 -83t-29.5 -117t29.5 -117t80.5 -83t113 -30t113 30t80.5 83t29.5 117t-29.5 117zM338 611h-59l125 158h68v-7z" />
    <glyph glyph-name="uni1EDC" unicode="&#x1edc;" horiz-adv-x="866" 
d="M753 554q50 -84 50 -194q0 -107 -48 -192t-133 -133t-191 -48t-191 48t-133 133t-48 192t48 192t133 133t191 48q47 0 152 -7q74 -6 104 -6q44 0 65 18t21 54q0 17 -5 33t-17 39h59q9 -14 13.5 -34.5t4.5 -40.5q0 -54 -35 -83.5t-99 -29.5q-18 0 -78 4q87 -42 137 -126z
M590.5 83q70.5 41 110.5 113.5t40 163.5t-40 163.5t-110.5 113.5t-159.5 41t-159.5 -41t-110.5 -113.5t-40 -163.5t40 -163.5t110.5 -113.5t159.5 -41t159.5 41zM365 946l116 -156h-58l-125 148v8h67z" />
    <glyph glyph-name="uni1EDD" unicode="&#x1edd;" horiz-adv-x="671" 
d="M627.5 528.5q-33.5 -29.5 -91.5 -29.5q-17 0 -49 2q63 -37 97 -96.5t34 -133.5q0 -79 -37 -144t-101.5 -102.5t-144.5 -37.5t-144.5 37.5t-101.5 102.5t-37 144t37 144t101.5 102.5t144.5 37.5q47 0 99 -7q58 -6 97 -6q76 0 76 72q0 29 -20 72h56q9 -14 13.5 -35t4.5 -40
q0 -53 -33.5 -82.5zM528.5 388q-29.5 53 -80.5 83t-113 30t-113 -30t-80.5 -83t-29.5 -117t29.5 -117t80.5 -83t113 -30t113 30t80.5 83t29.5 117t-29.5 117zM270 768l116 -156h-58l-125 148v8h67z" />
    <glyph glyph-name="uni1EDE" unicode="&#x1ede;" horiz-adv-x="866" 
d="M753 554q50 -84 50 -194q0 -107 -48 -192t-133 -133t-191 -48t-191 48t-133 133t-48 192t48 192t133 133t191 48q47 0 152 -7q74 -6 104 -6q44 0 65 18t21 54q0 17 -5 33t-17 39h59q9 -14 13.5 -34.5t4.5 -40.5q0 -54 -35 -83.5t-99 -29.5q-18 0 -78 4q87 -42 137 -126z
M590.5 83q70.5 41 110.5 113.5t40 163.5t-40 163.5t-110.5 113.5t-159.5 41t-159.5 -41t-110.5 -113.5t-40 -163.5t40 -163.5t110.5 -113.5t159.5 -41t159.5 41zM402 801q0 23 12.5 41.5t41.5 41.5q25 19 35.5 31t10.5 28q0 22 -19.5 35.5t-49.5 13.5q-34 0 -55.5 -17.5
t-22.5 -42.5h-50q2 45 37.5 74.5t93.5 29.5q51 0 84 -25.5t33 -65.5q0 -25 -13 -43.5t-42 -42.5q-30 -24 -39.5 -36.5t-9.5 -25.5v-12h-47v16z" />
    <glyph glyph-name="uni1EDF" unicode="&#x1edf;" horiz-adv-x="671" 
d="M627.5 528.5q-33.5 -29.5 -91.5 -29.5q-17 0 -49 2q63 -37 97 -96.5t34 -133.5q0 -79 -37 -144t-101.5 -102.5t-144.5 -37.5t-144.5 37.5t-101.5 102.5t-37 144t37 144t101.5 102.5t144.5 37.5q47 0 99 -7q58 -6 97 -6q76 0 76 72q0 29 -20 72h56q9 -14 13.5 -35t4.5 -40
q0 -53 -33.5 -82.5zM528.5 388q-29.5 53 -80.5 83t-113 30t-113 -30t-80.5 -83t-29.5 -117t29.5 -117t80.5 -83t113 -30t113 30t80.5 83t29.5 117t-29.5 117zM307 623q0 23 12.5 41.5t41.5 41.5q25 19 35.5 31t10.5 28q0 22 -19.5 35.5t-49.5 13.5q-34 0 -55.5 -17.5
t-22.5 -42.5h-50q2 45 37.5 74.5t93.5 29.5q51 0 84 -25.5t33 -65.5q0 -25 -13 -43.5t-42 -42.5q-30 -24 -39.5 -36.5t-9.5 -25.5v-12h-47v16z" />
    <glyph glyph-name="uni1EE0" unicode="&#x1ee0;" horiz-adv-x="866" 
d="M753 554q50 -84 50 -194q0 -107 -48 -192t-133 -133t-191 -48t-191 48t-133 133t-48 192t48 192t133 133t191 48q47 0 152 -7q74 -6 104 -6q44 0 65 18t21 54q0 17 -5 33t-17 39h59q9 -14 13.5 -34.5t4.5 -40.5q0 -54 -35 -83.5t-99 -29.5q-18 0 -78 4q87 -42 137 -126z
M590.5 83q70.5 41 110.5 113.5t40 163.5t-40 163.5t-110.5 113.5t-159.5 41t-159.5 -41t-110.5 -113.5t-40 -163.5t40 -163.5t110.5 -113.5t159.5 -41t159.5 41zM460 812.5q-22 13.5 -48 38.5q-20 19 -34 28.5t-31 9.5q-26 0 -41.5 -23.5t-17.5 -63.5h-48q2 61 30.5 98
t77.5 37q30 0 51 -13t49 -39q20 -20 34 -29.5t31 -9.5q26 0 41.5 23.5t17.5 63.5h48q-2 -61 -30.5 -97.5t-77.5 -36.5q-30 0 -52 13.5z" />
    <glyph glyph-name="uni1EE1" unicode="&#x1ee1;" horiz-adv-x="671" 
d="M210 688q-16 -24 -18 -64h-45q1 61 28.5 98t76.5 37q30 0 51 -13.5t48 -39.5q20 -20 33.5 -29.5t30.5 -9.5q25 0 41 24t18 64h45q-1 -61 -28.5 -97.5t-76.5 -36.5q-30 0 -50.5 13t-48.5 39q-18 19 -32.5 29t-31.5 10q-25 0 -41 -24zM627.5 528.5q-33.5 -29.5 -91.5 -29.5
q-17 0 -49 2q63 -37 97 -96.5t34 -133.5q0 -79 -37 -144t-101.5 -102.5t-144.5 -37.5t-144.5 37.5t-101.5 102.5t-37 144t37 144t101.5 102.5t144.5 37.5q47 0 99 -7q58 -6 97 -6q76 0 76 72q0 29 -20 72h56q9 -14 13.5 -35t4.5 -40q0 -53 -33.5 -82.5zM528.5 388
q-29.5 53 -80.5 83t-113 30t-113 -30t-80.5 -83t-29.5 -117t29.5 -117t80.5 -83t113 -30t113 30t80.5 83t29.5 117t-29.5 117z" />
    <glyph glyph-name="uni1EE2" unicode="&#x1ee2;" horiz-adv-x="866" 
d="M753 554q50 -84 50 -194q0 -107 -48 -192t-133 -133t-191 -48t-191 48t-133 133t-48 192t48 192t133 133t191 48q47 0 152 -7q74 -6 104 -6q44 0 65 18t21 54q0 17 -5 33t-17 39h59q9 -14 13.5 -34.5t4.5 -40.5q0 -54 -35 -83.5t-99 -29.5q-18 0 -78 4q87 -42 137 -126z
M590.5 83q70.5 41 110.5 113.5t40 163.5t-40 163.5t-110.5 113.5t-159.5 41t-159.5 -41t-110.5 -113.5t-40 -163.5t40 -163.5t110.5 -113.5t159.5 -41t159.5 41zM461 -107q12 -12 12 -31t-12 -31t-31 -12t-31 12t-12 31t12 31t31 12t31 -12z" />
    <glyph glyph-name="uni1EE3" unicode="&#x1ee3;" horiz-adv-x="671" 
d="M627.5 528.5q-33.5 -29.5 -91.5 -29.5q-17 0 -49 2q63 -37 97 -96.5t34 -133.5q0 -79 -37 -144t-101.5 -102.5t-144.5 -37.5t-144.5 37.5t-101.5 102.5t-37 144t37 144t101.5 102.5t144.5 37.5q47 0 99 -7q58 -6 97 -6q76 0 76 72q0 29 -20 72h56q9 -14 13.5 -35t4.5 -40
q0 -53 -33.5 -82.5zM528.5 388q-29.5 53 -80.5 83t-113 30t-113 -30t-80.5 -83t-29.5 -117t29.5 -117t80.5 -83t113 -30t113 30t80.5 83t29.5 117t-29.5 117zM366 -107q12 -12 12 -31t-12 -31t-31 -12t-31 12t-12 31t12 31t31 12t31 -12z" />
    <glyph glyph-name="uni1EE4" unicode="&#x1ee4;" horiz-adv-x="774" 
d="M232.5 20q-67.5 33 -105 94t-37.5 142v464h60v-459q0 -67 30 -116.5t83.5 -76t123.5 -26.5t123.5 26.5t83.5 76t30 116.5v459h60v-464q0 -81 -37.5 -142t-105 -94t-154.5 -33t-154.5 33zM417 -107q12 -12 12 -31t-12 -31t-31 -12t-31 12t-12 31t12 31t31 12t31 -12z" />
    <glyph glyph-name="uni1EE5" unicode="&#x1ee5;" horiz-adv-x="657" 
d="M562 542v-542h-56v91q-35 -54 -90 -79t-118 -25q-97 0 -155 55.5t-58 148.5v351h58v-342q0 -74 43 -116.5t122 -42.5q57 0 102 23t69.5 61.5t24.5 84.5v332h58zM354 -107q12 -12 12 -31t-12 -31t-31 -12t-31 12t-12 31t12 31t31 12t31 -12z" />
    <glyph glyph-name="uni1EE6" unicode="&#x1ee6;" horiz-adv-x="774" 
d="M232.5 20q-67.5 33 -105 94t-37.5 142v464h60v-459q0 -67 30 -116.5t83.5 -76t123.5 -26.5t123.5 26.5t83.5 76t30 116.5v459h60v-464q0 -81 -37.5 -142t-105 -94t-154.5 -33t-154.5 33zM358 801q0 23 12.5 41.5t41.5 41.5q25 19 35.5 31t10.5 28q0 22 -19.5 35.5
t-49.5 13.5q-34 0 -55.5 -17.5t-22.5 -42.5h-50q2 45 37.5 74.5t93.5 29.5q51 0 84 -25.5t33 -65.5q0 -25 -13 -43.5t-42 -42.5q-30 -24 -39.5 -36.5t-9.5 -25.5v-12h-47v16z" />
    <glyph glyph-name="uni1EE7" unicode="&#x1ee7;" horiz-adv-x="657" 
d="M562 542v-542h-56v91q-35 -54 -90 -79t-118 -25q-97 0 -155 55.5t-58 148.5v351h58v-342q0 -74 43 -116.5t122 -42.5q57 0 102 23t69.5 61.5t24.5 84.5v332h58zM295 623q0 23 12.5 41.5t41.5 41.5q25 19 35.5 31t10.5 28q0 22 -19.5 35.5t-49.5 13.5q-34 0 -55.5 -17.5
t-22.5 -42.5h-50q2 45 37.5 74.5t93.5 29.5q51 0 84 -25.5t33 -65.5q0 -25 -13 -43.5t-42 -42.5q-30 -24 -39.5 -36.5t-9.5 -25.5v-12h-47v16z" />
    <glyph glyph-name="uni1EE8" unicode="&#x1ee8;" horiz-adv-x="790" 
d="M843 789q0 -53 -33.5 -83t-90.5 -30h-34v-420q0 -81 -37.5 -142t-105 -94t-155.5 -33q-87 0 -154.5 33t-105 94t-37.5 142v464h60v-459q0 -67 30 -116.5t83.5 -76t123.5 -26.5t124 26.5t84 76t30 116.5v459h85q77 0 77 72q0 18 -4.5 34t-16.5 38h59q18 -28 18 -75z
M389 789h-59l125 158h68v-7z" />
    <glyph glyph-name="uni1EE9" unicode="&#x1ee9;" horiz-adv-x="667" 
d="M562 542v-542h-56v91q-35 -54 -90 -79t-118 -25q-97 0 -155 55.5t-58 148.5v351h58v-342q0 -74 43 -116.5t122 -42.5q57 0 102 23t69.5 61.5t24.5 84.5v332h58zM513 499v43h61q77 0 77 72q0 30 -21 72h57q9 -14 13.5 -35t4.5 -40q0 -53 -33.5 -82.5t-90.5 -29.5h-68z
M326 611h-59l125 158h68v-7z" />
    <glyph glyph-name="uni1EEA" unicode="&#x1eea;" horiz-adv-x="790" 
d="M843 789q0 -53 -33.5 -83t-90.5 -30h-34v-420q0 -81 -37.5 -142t-105 -94t-155.5 -33q-87 0 -154.5 33t-105 94t-37.5 142v464h60v-459q0 -67 30 -116.5t83.5 -76t123.5 -26.5t124 26.5t84 76t30 116.5v459h85q77 0 77 72q0 18 -4.5 34t-16.5 38h59q18 -28 18 -75z
M321 946l116 -156h-58l-125 148v8h67z" />
    <glyph glyph-name="uni1EEB" unicode="&#x1eeb;" horiz-adv-x="667" 
d="M562 542v-542h-56v91q-35 -54 -90 -79t-118 -25q-97 0 -155 55.5t-58 148.5v351h58v-342q0 -74 43 -116.5t122 -42.5q57 0 102 23t69.5 61.5t24.5 84.5v332h58zM513 499v43h61q77 0 77 72q0 30 -21 72h57q9 -14 13.5 -35t4.5 -40q0 -53 -33.5 -82.5t-90.5 -29.5h-68z
M258 768l116 -156h-58l-125 148v8h67z" />
    <glyph glyph-name="uni1EEC" unicode="&#x1eec;" horiz-adv-x="790" 
d="M843 789q0 -53 -33.5 -83t-90.5 -30h-34v-420q0 -81 -37.5 -142t-105 -94t-155.5 -33q-87 0 -154.5 33t-105 94t-37.5 142v464h60v-459q0 -67 30 -116.5t83.5 -76t123.5 -26.5t124 26.5t84 76t30 116.5v459h85q77 0 77 72q0 18 -4.5 34t-16.5 38h59q18 -28 18 -75z
M358 801q0 23 12.5 41.5t41.5 41.5q25 19 35.5 31t10.5 28q0 22 -19.5 35.5t-49.5 13.5q-34 0 -55.5 -17.5t-22.5 -42.5h-50q2 45 37.5 74.5t93.5 29.5q51 0 84 -25.5t33 -65.5q0 -25 -13 -43.5t-42 -42.5q-30 -24 -39.5 -36.5t-9.5 -25.5v-12h-47v16z" />
    <glyph glyph-name="uni1EED" unicode="&#x1eed;" horiz-adv-x="667" 
d="M562 542v-542h-56v91q-35 -54 -90 -79t-118 -25q-97 0 -155 55.5t-58 148.5v351h58v-342q0 -74 43 -116.5t122 -42.5q57 0 102 23t69.5 61.5t24.5 84.5v332h58zM513 499v43h61q77 0 77 72q0 30 -21 72h57q9 -14 13.5 -35t4.5 -40q0 -53 -33.5 -82.5t-90.5 -29.5h-68z
M295 623q0 23 12.5 41.5t41.5 41.5q25 19 35.5 31t10.5 28q0 22 -19.5 35.5t-49.5 13.5q-34 0 -55.5 -17.5t-22.5 -42.5h-50q2 45 37.5 74.5t93.5 29.5q51 0 84 -25.5t33 -65.5q0 -25 -13 -43.5t-42 -42.5q-30 -24 -39.5 -36.5t-9.5 -25.5v-12h-47v16z" />
    <glyph glyph-name="uni1EEE" unicode="&#x1eee;" horiz-adv-x="790" 
d="M843 789q0 -53 -33.5 -83t-90.5 -30h-34v-420q0 -81 -37.5 -142t-105 -94t-155.5 -33q-87 0 -154.5 33t-105 94t-37.5 142v464h60v-459q0 -67 30 -116.5t83.5 -76t123.5 -26.5t124 26.5t84 76t30 116.5v459h85q77 0 77 72q0 18 -4.5 34t-16.5 38h59q18 -28 18 -75z
M416 812.5q-22 13.5 -48 38.5q-20 19 -34 28.5t-31 9.5q-26 0 -41.5 -23.5t-17.5 -63.5h-48q2 61 30.5 98t77.5 37q30 0 51 -13t49 -39q20 -20 34 -29.5t31 -9.5q26 0 41.5 23.5t17.5 63.5h48q-2 -61 -30.5 -97.5t-77.5 -36.5q-30 0 -52 13.5z" />
    <glyph glyph-name="uni1EEF" unicode="&#x1eef;" horiz-adv-x="667" 
d="M562 542v-542h-56v91q-35 -54 -90 -79t-118 -25q-97 0 -155 55.5t-58 148.5v351h58v-342q0 -74 43 -116.5t122 -42.5q57 0 102 23t69.5 61.5t24.5 84.5v332h58zM513 499v43h61q77 0 77 72q0 30 -21 72h57q9 -14 13.5 -35t4.5 -40q0 -53 -33.5 -82.5t-90.5 -29.5h-68z
M353 634.5q-22 13.5 -48 38.5q-20 19 -34 28.5t-31 9.5q-26 0 -41.5 -23.5t-17.5 -63.5h-48q2 61 30.5 98t77.5 37q30 0 51 -13t49 -39q20 -20 34 -29.5t31 -9.5q26 0 41.5 23.5t17.5 63.5h48q-2 -61 -30.5 -97.5t-77.5 -36.5q-30 0 -52 13.5z" />
    <glyph glyph-name="uni1EF0" unicode="&#x1ef0;" horiz-adv-x="790" 
d="M843 789q0 -53 -33.5 -83t-90.5 -30h-34v-420q0 -81 -37.5 -142t-105 -94t-155.5 -33q-87 0 -154.5 33t-105 94t-37.5 142v464h60v-459q0 -67 30 -116.5t83.5 -76t123.5 -26.5t124 26.5t84 76t30 116.5v459h85q77 0 77 72q0 18 -4.5 34t-16.5 38h59q18 -28 18 -75z
M417 -107q12 -12 12 -31t-12 -31t-31 -12t-31 12t-12 31t12 31t31 12t31 -12z" />
    <glyph glyph-name="uni1EF1" unicode="&#x1ef1;" horiz-adv-x="667" 
d="M562 542v-542h-56v91q-35 -54 -90 -79t-118 -25q-97 0 -155 55.5t-58 148.5v351h58v-342q0 -74 43 -116.5t122 -42.5q57 0 102 23t69.5 61.5t24.5 84.5v332h58zM513 499v43h61q77 0 77 72q0 30 -21 72h57q9 -14 13.5 -35t4.5 -40q0 -53 -33.5 -82.5t-90.5 -29.5h-68z
M354 -107q12 -12 12 -31t-12 -31t-31 -12t-31 12t-12 31t12 31t31 12t31 -12z" />
    <glyph glyph-name="Ygrave" unicode="&#x1ef2;" horiz-adv-x="720" 
d="M391 248v-248h-60v247l-304 473h70l264 -419l264 419h68zM294 946l116 -156h-58l-125 148v8h67z" />
    <glyph glyph-name="ygrave" unicode="&#x1ef3;" horiz-adv-x="599" 
d="M579 542l-285 -619q-52 -113 -160 -113q-53 0 -103 22l20 51q42 -21 81 -21t67 20.5t48 64.5l26 56l-250 539h65l215 -478l213 478h63zM235 768l116 -156h-58l-125 148v8h67z" />
    <glyph glyph-name="uni1EF4" unicode="&#x1ef4;" horiz-adv-x="720" 
d="M391 248v-248h-60v247l-304 473h70l264 -419l264 419h68zM390 -107q12 -12 12 -31t-12 -31t-31 -12t-31 12t-12 31t12 31t31 12t31 -12z" />
    <glyph glyph-name="uni1EF5" unicode="&#x1ef5;" horiz-adv-x="599" 
d="M579 542l-285 -619q-52 -113 -160 -113q-53 0 -103 22l20 51q42 -21 81 -21t67 20.5t48 64.5l26 56l-250 539h65l215 -478l213 478h63zM448 -107q12 -12 12 -31t-12 -31t-31 -12t-31.5 12t-12.5 31t12.5 31t31.5 12t31 -12z" />
    <glyph glyph-name="uni1EF6" unicode="&#x1ef6;" horiz-adv-x="720" 
d="M391 248v-248h-60v247l-304 473h70l264 -419l264 419h68zM331 801q0 23 12.5 41.5t41.5 41.5q25 19 35.5 31t10.5 28q0 22 -19.5 35.5t-49.5 13.5q-34 0 -55.5 -17.5t-22.5 -42.5h-50q2 45 37.5 74.5t93.5 29.5q51 0 84 -25.5t33 -65.5q0 -25 -13 -43.5t-42 -42.5
q-30 -24 -39.5 -36.5t-9.5 -25.5v-12h-47v16z" />
    <glyph glyph-name="uni1EF7" unicode="&#x1ef7;" horiz-adv-x="599" 
d="M579 542l-285 -619q-52 -113 -160 -113q-53 0 -103 22l20 51q42 -21 81 -21t67 20.5t48 64.5l26 56l-250 539h65l215 -478l213 478h63zM272 623q0 23 12.5 41.5t41.5 41.5q25 19 35.5 31t10.5 28q0 22 -19.5 35.5t-49.5 13.5q-34 0 -55.5 -17.5t-22.5 -42.5h-50
q2 45 37.5 74.5t93.5 29.5q51 0 84 -25.5t33 -65.5q0 -25 -13 -43.5t-42 -42.5q-30 -24 -39.5 -36.5t-9.5 -25.5v-12h-47v16z" />
    <glyph glyph-name="uni1EF8" unicode="&#x1ef8;" horiz-adv-x="720" 
d="M391 248v-248h-60v247l-304 473h70l264 -419l264 419h68zM389 812.5q-22 13.5 -48 38.5q-20 19 -34 28.5t-31 9.5q-26 0 -41.5 -23.5t-17.5 -63.5h-48q2 61 30.5 98t77.5 37q30 0 51 -13t49 -39q20 -20 34 -29.5t31 -9.5q26 0 41.5 23.5t17.5 63.5h48q-2 -61 -30.5 -97.5
t-77.5 -36.5q-30 0 -52 13.5z" />
    <glyph glyph-name="uni1EF9" unicode="&#x1ef9;" horiz-adv-x="599" 
d="M579 542l-285 -619q-52 -113 -160 -113q-53 0 -103 22l20 51q42 -21 81 -21t67 20.5t48 64.5l26 56l-250 539h65l215 -478l213 478h63zM330 634.5q-22 13.5 -48 38.5q-20 19 -34 28.5t-31 9.5q-26 0 -41.5 -23.5t-17.5 -63.5h-48q2 61 30.5 98t77.5 37q30 0 51 -13
t49 -39q20 -20 34 -29.5t31 -9.5q26 0 41.5 23.5t17.5 63.5h48q-2 -61 -30.5 -97.5t-77.5 -36.5q-30 0 -52 13.5z" />
    <glyph glyph-name="uni2007" unicode="&#x2007;" horiz-adv-x="734" 
 />
    <glyph glyph-name="uni2008" unicode="&#x2008;" horiz-adv-x="238" 
 />
    <glyph glyph-name="uni2009" unicode="&#x2009;" horiz-adv-x="188" 
 />
    <glyph glyph-name="uni200A" unicode="&#x200a;" horiz-adv-x="60" 
 />
    <glyph glyph-name="uni200B" unicode="&#x200b;" 
 />
    <glyph glyph-name="uni2010" unicode="&#x2010;" horiz-adv-x="362" 
d="M309 349l-17 -56h-239l16 56h240z" />
    </font>
</defs>
</svg>
